<?xml version="1.0" encoding="UTF-8"?>
<svg version="1.1" xmlns="http://www.w3.org/2000/svg" width="1024" height="1024">
<path d="M0 0 C337.92 0 675.84 0 1024 0 C1024 337.92 1024 675.84 1024 1024 C686.08 1024 348.16 1024 0 1024 C0 686.08 0 348.16 0 0 Z " fill="transparent" transform="translate(0,0)"/>
<path d="M0 0 C3.87705189 0.84266123 5.93136849 0.74710198 9.73828125 -0.1875 C11.0841073 -0.49063553 12.43051294 -0.79120406 13.77734375 -1.08984375 C16.02739545 -1.59610538 18.27599546 -2.10420637 20.51953125 -2.63867188 C37.98928077 -6.50613326 56.05740712 -6.62861878 73.86328125 -6.625 C75.54673141 -6.62660126 75.54673141 -6.62660126 77.26419067 -6.62823486 C93.98232963 -6.60529801 109.57341585 -5.78191874 125.73828125 -1.1875 C127.4501268 -0.74716324 129.16236293 -0.30834188 130.875 0.12890625 C150.88358374 5.47929363 170.06879286 14.06654749 187.73828125 24.8125 C188.79789063 25.45574219 189.8575 26.09898437 190.94921875 26.76171875 C232.52155392 53.34349338 259.70661205 95.54409156 274.73828125 141.8125 C275.11726562 142.94429687 275.49625 144.07609375 275.88671875 145.2421875 C281.55718273 163.43303594 284.85296253 183.17705786 284.94140625 202.234375 C284.94710632 203.21504944 284.9528064 204.19572388 284.9586792 205.20611572 C284.96807929 207.27688538 284.97464318 209.34766966 284.97851562 211.41845703 C284.98812541 214.51232801 285.01915729 217.60550584 285.05078125 220.69921875 C285.14508627 238.36966551 283.11081442 255.21188244 278.90730286 272.3717041 C276.74160919 281.28573937 278.80900415 289.87872641 280.67578125 298.6875 C281.03641759 300.44505415 281.39579877 302.20286634 281.75390625 303.9609375 C281.92470703 304.7972168 282.09550781 305.63349609 282.27148438 306.49511719 C293.46806835 362.07983219 281.67581287 423.91491683 250.61328125 471.375 C249.33729622 473.19857375 248.04578941 475.01139438 246.73828125 476.8125 C246.05507813 477.77929688 245.371875 478.74609375 244.66796875 479.7421875 C238.92374785 487.66880056 232.51419654 494.77542753 225.73828125 501.8125 C225.18479004 502.39322266 224.63129883 502.97394531 224.06103516 503.57226562 C215.86302374 512.14259461 207.34172489 519.84733573 197.73828125 526.8125 C197.17625 527.22419434 196.61421875 527.63588867 196.03515625 528.06005859 C160.34642602 553.89550694 116.36412184 567.34405744 72.47290039 567.01831055 C69.91086955 566.9998928 67.34920008 566.99780298 64.78710938 566.99804688 C53.42324751 566.97450102 42.36922207 566.46315019 31.17578125 564.375 C30.44617188 564.24375732 29.7165625 564.11251465 28.96484375 563.97729492 C24.35426515 563.14045034 19.76793732 562.22336095 15.20703125 561.14453125 C7.83441756 560.15296137 1.08005621 561.14352815 -6.13671875 562.6875 C-35.2249442 568.43770442 -67.08879561 569.77142651 -96.26171875 563.8125 C-97.30215332 563.60318848 -98.34258789 563.39387695 -99.41455078 563.17822266 C-146.81250316 553.41961757 -191.35170051 529.70147003 -221.26171875 490.8125 C-221.89980469 490.05195312 -222.53789062 489.29140625 -223.1953125 488.5078125 C-251.85793341 454.25107845 -269.11529105 406.48721783 -269.5 361.953125 C-269.50970322 361.01853455 -269.51940643 360.08394409 -269.52940369 359.12103271 C-269.55429116 356.10147789 -269.5669278 353.08214712 -269.57421875 350.0625 C-269.57683716 349.03382813 -269.57945557 348.00515625 -269.58215332 346.9453125 C-269.58744422 327.54735132 -268.79183346 308.45177366 -262.88671875 289.8125 C-260.79999559 283.19085092 -261.62276123 278.45980678 -263.26171875 271.8125 C-277.20066655 209.19904464 -270.22217317 144.15803954 -235.59960938 89.17285156 C-228.30792137 78.06229646 -220.31509587 67.54377992 -211.26171875 57.8125 C-210.49093994 56.98395508 -210.49093994 56.98395508 -209.70458984 56.13867188 C-188.51328402 33.63716843 -161.9780748 16.92151449 -133.26171875 5.8125 C-132.07707031 5.35101563 -130.89242187 4.88953125 -129.671875 4.4140625 C-88.98733417 -10.21932332 -41.64541518 -11.76056264 0 0 Z " fill="#FEFAF3" transform="translate(504.26171875,228.1875)"/>
<path d="M0 0 C3.87705189 0.84266123 5.93136849 0.74710198 9.73828125 -0.1875 C11.0841073 -0.49063553 12.43051294 -0.79120406 13.77734375 -1.08984375 C16.02739545 -1.59610538 18.27599546 -2.10420637 20.51953125 -2.63867188 C37.98928077 -6.50613326 56.05740712 -6.62861878 73.86328125 -6.625 C75.54673141 -6.62660126 75.54673141 -6.62660126 77.26419067 -6.62823486 C93.98232963 -6.60529801 109.57341585 -5.78191874 125.73828125 -1.1875 C127.4501268 -0.74716324 129.16236293 -0.30834188 130.875 0.12890625 C150.88358374 5.47929363 170.06879286 14.06654749 187.73828125 24.8125 C188.79789063 25.45574219 189.8575 26.09898437 190.94921875 26.76171875 C232.52155392 53.34349338 259.70661205 95.54409156 274.73828125 141.8125 C275.11726562 142.94429687 275.49625 144.07609375 275.88671875 145.2421875 C281.55718273 163.43303594 284.85296253 183.17705786 284.94140625 202.234375 C284.94710632 203.21504944 284.9528064 204.19572388 284.9586792 205.20611572 C284.96807929 207.27688538 284.97464318 209.34766966 284.97851562 211.41845703 C284.98812541 214.51232801 285.01915729 217.60550584 285.05078125 220.69921875 C285.14508627 238.36966551 283.11081442 255.21188244 278.90730286 272.3717041 C276.74160919 281.28573937 278.80900415 289.87872641 280.67578125 298.6875 C281.03641759 300.44505415 281.39579877 302.20286634 281.75390625 303.9609375 C281.92470703 304.7972168 282.09550781 305.63349609 282.27148438 306.49511719 C293.46806835 362.07983219 281.67581287 423.91491683 250.61328125 471.375 C249.33729622 473.19857375 248.04578941 475.01139438 246.73828125 476.8125 C246.05507813 477.77929688 245.371875 478.74609375 244.66796875 479.7421875 C238.92374785 487.66880056 232.51419654 494.77542753 225.73828125 501.8125 C225.18479004 502.39322266 224.63129883 502.97394531 224.06103516 503.57226562 C215.86302374 512.14259461 207.34172489 519.84733573 197.73828125 526.8125 C197.17625 527.22419434 196.61421875 527.63588867 196.03515625 528.06005859 C160.34642602 553.89550694 116.36412184 567.34405744 72.47290039 567.01831055 C69.91086955 566.9998928 67.34920008 566.99780298 64.78710938 566.99804688 C53.42324751 566.97450102 42.36922207 566.46315019 31.17578125 564.375 C30.44617188 564.24375732 29.7165625 564.11251465 28.96484375 563.97729492 C24.35426515 563.14045034 19.76793732 562.22336095 15.20703125 561.14453125 C7.83441756 560.15296137 1.08005621 561.14352815 -6.13671875 562.6875 C-35.2249442 568.43770442 -67.08879561 569.77142651 -96.26171875 563.8125 C-97.30215332 563.60318848 -98.34258789 563.39387695 -99.41455078 563.17822266 C-146.81250316 553.41961757 -191.35170051 529.70147003 -221.26171875 490.8125 C-221.89980469 490.05195312 -222.53789062 489.29140625 -223.1953125 488.5078125 C-251.85793341 454.25107845 -269.11529105 406.48721783 -269.5 361.953125 C-269.50970322 361.01853455 -269.51940643 360.08394409 -269.52940369 359.12103271 C-269.55429116 356.10147789 -269.5669278 353.08214712 -269.57421875 350.0625 C-269.57683716 349.03382813 -269.57945557 348.00515625 -269.58215332 346.9453125 C-269.58744422 327.54735132 -268.79183346 308.45177366 -262.88671875 289.8125 C-260.79999559 283.19085092 -261.62276123 278.45980678 -263.26171875 271.8125 C-277.20066655 209.19904464 -270.22217317 144.15803954 -235.59960938 89.17285156 C-228.30792137 78.06229646 -220.31509587 67.54377992 -211.26171875 57.8125 C-210.49093994 56.98395508 -210.49093994 56.98395508 -209.70458984 56.13867188 C-188.51328402 33.63716843 -161.9780748 16.92151449 -133.26171875 5.8125 C-132.07707031 5.35101563 -130.89242187 4.88953125 -129.671875 4.4140625 C-88.98733417 -10.21932332 -41.64541518 -11.76056264 0 0 Z M-3.88671875 24.3125 C-4.60980225 24.48773193 -5.33288574 24.66296387 -6.07788086 24.84350586 C-44.29990027 34.59570906 -79.82429221 55.0400173 -110.51454163 79.42892456 C-111.67216569 80.3456377 -112.83305925 81.25823832 -113.99729919 82.16653442 C-124.35445967 90.25034026 -133.84098322 98.94578629 -143.07348633 108.28808594 C-145.213313 110.45175127 -147.36642309 112.60151869 -149.52148438 114.75 C-156.89051272 122.13453785 -163.82897494 129.59022305 -170.26171875 137.8125 C-171.13573928 138.85269381 -172.01589663 139.88781403 -172.90625 140.9140625 C-192.26997136 163.45273637 -207.61776411 189.99007442 -220.26171875 216.8125 C-220.84373047 218.04685791 -220.84373047 218.04685791 -221.4375 219.30615234 C-226.76987993 230.76018907 -231.31313497 242.35074409 -235.19921875 254.375 C-235.5645874 255.50325195 -235.92995605 256.63150391 -236.30639648 257.79394531 C-242.1488258 276.43622151 -243.10766671 288.02339558 -236.38671875 306.375 C-236.01990997 307.39052948 -236.01990997 307.39052948 -235.64569092 308.42657471 C-225.03917065 337.7532124 -211.59369465 365.8503574 -194.26171875 391.8125 C-193.73046387 392.61413574 -193.19920898 393.41577148 -192.65185547 394.24169922 C-179.04778897 414.70638494 -163.90597504 433.67721264 -146.26171875 450.8125 C-143.66548689 453.39224785 -141.09003288 455.9886133 -138.53515625 458.609375 C-132.12200136 465.16820817 -125.51343587 471.17329939 -118.26171875 476.8125 C-117.37154053 477.51729492 -117.37154053 477.51729492 -116.46337891 478.23632812 C-82.4415349 505.16491428 -45.58561985 524.93455359 -3.86328125 536.76953125 C-0.26171875 537.8125 -0.26171875 537.8125 2.77734375 538.94921875 C9.12001954 540.79846855 14.56397707 539.5519186 20.6640625 537.46875 C21.40467926 537.22422592 22.14529602 536.97970184 22.90835571 536.72776794 C25.29353735 535.9350852 27.67242549 535.12541556 30.05078125 534.3125 C31.27004807 533.90017624 31.27004807 533.90017624 32.51394653 533.47952271 C44.21910172 529.51553798 55.68912305 525.38496138 66.73828125 519.8125 C67.92671631 519.22831299 67.92671631 519.22831299 69.13916016 518.63232422 C95.37061604 505.68946833 119.86613651 489.24495026 141.73828125 469.8125 C142.46426514 469.1733667 143.19024902 468.5342334 143.93823242 467.87573242 C149.99100384 462.49848018 155.79583281 456.91099913 161.50756836 451.17358398 C162.93165617 449.74410283 164.36106169 448.32009489 165.79101562 446.89648438 C170.98271751 441.69754667 176.0003671 436.42799431 180.73828125 430.8125 C181.2789624 430.17852295 181.81964355 429.5445459 182.37670898 428.89135742 C201.80680512 405.98390345 217.7766897 381.38058745 231.73828125 354.8125 C232.125 354.07902344 232.51171875 353.34554688 232.91015625 352.58984375 C235.29034331 348.04506629 237.56244687 343.45853965 239.73828125 338.8125 C240.05716309 338.13316406 240.37604492 337.45382812 240.70458984 336.75390625 C247.10970382 322.88093212 251.55506247 308.40551594 255.85449219 293.77148438 C256.36401728 292.0655606 256.89283789 290.36463469 257.47363281 288.68164062 C259.84591059 281.671738 257.6710814 274.84087173 255.40234375 268.0703125 C255.16752792 267.35316574 254.9327121 266.63601898 254.69078064 265.8971405 C253.92502698 263.57376382 253.14593451 261.25523507 252.36328125 258.9375 C252.09506561 258.13871429 251.82684998 257.33992859 251.55050659 256.51693726 C235.12993342 207.78662 209.8672849 162.45361319 175.07421875 124.39453125 C173.17154418 122.29140769 171.31328567 120.16258749 169.4609375 118.015625 C165.73989715 113.75467485 161.8113251 109.73733916 157.80078125 105.75 C157.13626953 105.08162109 156.47175781 104.41324219 155.78710938 103.72460938 C151.26917473 99.21543891 146.59248229 94.95589236 141.73828125 90.8125 C141.10591553 90.26811279 140.4735498 89.72372559 139.82202148 89.1628418 C128.98295062 79.88740394 117.66964761 71.62245152 105.73828125 63.8125 C105.07006348 63.3695459 104.4018457 62.9265918 103.71337891 62.47021484 C76.5618799 44.53685988 29.99881894 16.06783355 -3.88671875 24.3125 Z " fill="#FEBF0B" transform="translate(504.26171875,228.1875)"/>
<path d="M0 0 C5.48263121 1.14019322 9.95485791 4.23884809 14.625 7.1875 C16.21800325 8.180886 17.81175619 9.17307078 19.40625 10.1640625 C20.18355469 10.6477832 20.96085938 11.13150391 21.76171875 11.62988281 C25.77824256 14.0885141 29.88906323 16.37754317 34.0078125 18.66015625 C34.66523437 19.10230469 35.32265625 19.54445313 36 20 C36 20.66 36 21.32 36 22 C34.56982422 23.26171875 34.56982422 23.26171875 32.5546875 24.6875 C31.80574219 25.22246094 31.05679688 25.75742187 30.28515625 26.30859375 C29.48980469 26.86675781 28.69445312 27.42492187 27.875 28 C27.13378906 28.52722656 26.39257812 29.05445313 25.62890625 29.59765625 C24.86191406 30.14292969 24.09492187 30.68820312 23.3046875 31.25 C22.53078895 31.81936342 21.75689039 32.38872684 20.95954037 32.9753437 C18.79184776 34.45828766 16.77587461 35.6752396 14.47131443 36.88572502 C7.61926138 40.69254044 7.61926138 40.69254044 3.20990252 46.92604685 C1.97313483 52.55285077 2.32460611 58.28104813 2.52514648 64.00048828 C2.54053404 65.91995334 2.54953831 67.83947851 2.55267334 69.75900269 C2.57226477 73.87802567 2.63517656 77.9932537 2.73193169 82.11117935 C2.88324145 88.62525004 2.92803666 95.13744193 2.95729065 101.65304565 C3.03446286 115.47836341 3.23224567 129.30109106 3.4375 143.125 C3.65642301 158.05770762 3.85140237 172.98929315 3.92279869 187.92353618 C3.95764434 194.3981138 4.05634292 200.86759547 4.20457637 207.34052682 C4.28399366 211.36822513 4.30953121 215.39497928 4.32069397 219.42338943 C4.33698027 221.28772232 4.37566128 223.15201765 4.43863106 225.01535797 C4.62074491 230.60197609 4.61908863 235.61783122 3 241 C-0.91988351 244.97847706 -4.83626174 246.84554444 -10 249 C-12.02788715 250.08235653 -14.0478754 251.17983204 -16.0546875 252.30078125 C-17.99219746 253.30968516 -19.93228672 254.31365214 -21.875 255.3125 C-22.8546875 255.82361328 -23.834375 256.33472656 -24.84375 256.86132812 C-29.85180988 259.45647505 -34.79691686 261.77010723 -40 264 C-40.33 214.5 -40.66 165 -41 114 C-48.92 118.95 -48.92 118.95 -57 124 C-57.99 124.33 -58.98 124.66 -60 125 C-60 173.84 -60 222.68 -60 273 C-73.03976622 278.43323592 -86.55125097 282.67718781 -100 287 C-100 256.31 -100 225.62 -100 194 C-109.23993178 199.13484142 -109.23993178 199.13484142 -118 205 C-118.66 205 -119.32 205 -120 205 C-120 234.7 -120 264.4 -120 295 C-103.04707529 292.56501784 -103.04707529 292.56501784 -86.6171875 288.4375 C-85.86791992 288.20546875 -85.11865234 287.9734375 -84.34667969 287.734375 C-83.57227539 287.49203125 -82.79787109 287.2496875 -82 287 C-81.17918945 286.74734375 -80.35837891 286.4946875 -79.51269531 286.234375 C-65.94392999 282.02284495 -52.91930711 276.89898791 -40 271 C-38.44104004 270.29230469 -38.44104004 270.29230469 -36.85058594 269.5703125 C-8.37620812 256.54381195 18.50657107 240.80310285 42 220 C42.91652344 219.19433594 43.83304688 218.38867188 44.77734375 217.55859375 C47.20926673 215.39729077 49.61226346 213.20992637 52 211 C52.93585938 210.14535156 52.93585938 210.14535156 53.890625 209.2734375 C64.21124579 199.46419882 71.96466337 187.706475 72.375 173.25 C72.30811028 167.87652574 72.02725666 163.99206249 68.7265625 159.66796875 C60.81792351 152.02772249 48.73586704 147.49466412 38 146 C38 144.35 38 142.7 38 141 C57.01252355 140.37321351 81.47757193 143.43910256 96 157 C102.47991486 163.40594323 105.14680154 168.79484362 105.3125 177.9375 C105.25365225 195.33681775 95.62879385 209.82110552 84 222 C83.02933594 223.02407959 83.02933594 223.02407959 82.0390625 224.06884766 C74.38928169 232.07943365 66.74060235 239.69262273 57.6796875 246.1015625 C55.07811432 247.94465954 52.64061237 249.90262318 50.1875 251.9375 C43.77315097 257.09952374 36.90511557 261.53160882 30 266 C28.92250488 266.70431152 28.92250488 266.70431152 27.82324219 267.42285156 C-3.16546377 287.64463917 -35.60653666 301.50500576 -71 312 C-72.16877686 312.34828857 -73.33755371 312.69657715 -74.54174805 313.05541992 C-81.50447655 315.09229049 -88.42946434 316.86780488 -95.5625 318.1875 C-96.80676758 318.4340332 -96.80676758 318.4340332 -98.07617188 318.68554688 C-129.12797266 324.55379079 -168.35453705 323.97528427 -196 307 C-203.66809833 301.23246101 -208.84238481 295.83244811 -211.75 286.625 C-213.23088239 271.07573496 -208.12923063 257.46678981 -198.41308594 245.31420898 C-190.34125299 235.59211518 -180.91262436 225.51571294 -170 219 C-169.34 219 -168.68 219 -168 219 C-168 219.66 -168 220.32 -168 221 C-168.721875 221.72058594 -169.44375 222.44117188 -170.1875 223.18359375 C-180.10672458 233.11659503 -188.37010224 246.98624296 -188.5625 261.1875 C-188.42854706 268.94036786 -186.93792048 274.69227135 -181.765625 280.515625 C-178.79670061 283.18262487 -176.015933 284.80788723 -172.4375 286.5625 C-171.32246094 287.12066406 -170.20742188 287.67882812 -169.05859375 288.25390625 C-165.69833024 289.79256358 -162.25561122 290.95438208 -158.74633789 292.10913086 C-157.66921036 292.46462509 -156.59208282 292.82011932 -155.48231506 293.18638611 C-154.66315109 293.45487869 -153.84398712 293.72337128 -153 294 C-153.05995651 292.12650627 -153.05995651 292.12650627 -153.12112427 290.21516418 C-153.48714972 278.40322666 -153.75635774 266.59244852 -153.93261909 254.77611256 C-154.02629586 248.70159664 -154.15314721 242.63168157 -154.35791016 236.55981445 C-154.55455655 230.69141292 -154.66131599 224.82741208 -154.70779037 218.95596886 C-154.74087028 216.72476576 -154.80548409 214.49378522 -154.90314102 212.26447487 C-155.61737331 195.27288614 -155.61737331 195.27288614 -151.25411224 189.8168602 C-146.99964972 185.89486467 -142.26038197 183.02159391 -137.19570541 180.26865196 C-133.94783884 178.39207404 -131.23198031 176.1137653 -128.375 173.6875 C-127.51648438 172.96949219 -126.65796875 172.25148438 -125.7734375 171.51171875 C-124.89558594 170.76341797 -124.89558594 170.76341797 -124 170 C-120.66790224 171.28336016 -117.50895417 172.70953452 -114.35546875 174.3828125 C-113.51435547 174.82753906 -112.67324219 175.27226563 -111.80664062 175.73046875 C-110.94232422 176.19066406 -110.07800781 176.65085937 -109.1875 177.125 C-107.86202148 177.82689453 -107.86202148 177.82689453 -106.50976562 178.54296875 C-104.33864475 179.69307603 -102.1687774 180.84548146 -100 182 C-100.03330917 181.15998947 -100.06661835 180.31997894 -100.10093689 179.45451355 C-100.40280469 171.497332 -100.63048588 163.54209799 -100.77718258 155.58048534 C-100.85515084 151.48775795 -100.96063681 147.39979698 -101.1315918 143.30981445 C-102.29736839 114.66691623 -102.29736839 114.66691623 -96.95239258 108.59667969 C-93.89047023 106.02490182 -90.58777284 104.33295855 -86.90084839 102.82424927 C-84.15300522 101.63272461 -81.90144606 99.91563548 -79.51953125 98.1171875 C-77.95222133 97.03399369 -76.38327395 95.95316437 -74.8125 94.875 C-74.00748047 94.31296875 -73.20246094 93.7509375 -72.37304688 93.171875 C-71.59638672 92.63820313 -70.81972656 92.10453125 -70.01953125 91.5546875 C-69.33995361 91.08530762 -68.66037598 90.61592773 -67.96020508 90.13232422 C-65.82889302 88.90115903 -64.44730523 88.3013972 -62 88 C-59.52636719 88.98803711 -59.52636719 88.98803711 -56.796875 90.52734375 C-55.8171875 91.07197266 -54.8375 91.61660156 -53.828125 92.17773438 C-52.30445313 93.04881836 -52.30445313 93.04881836 -50.75 93.9375 C-49.71875 94.51435547 -48.6875 95.09121094 -47.625 95.68554688 C-45.07699419 97.11290198 -42.53591786 98.55131103 -40 100 C-40.02220612 99.11574341 -40.04441223 98.23148682 -40.06729126 97.32043457 C-40.26812275 88.96450362 -40.42013625 80.60938908 -40.51812172 72.25159454 C-40.57019453 67.95508939 -40.64074462 63.66058683 -40.75439453 59.36523438 C-40.86350182 55.2153323 -40.92293067 51.06734859 -40.94877243 46.91612244 C-40.96717233 45.33709003 -41.00310867 43.75815637 -41.05730057 42.1799469 C-41.46270951 29.8778346 -41.46270951 29.8778346 -37.94548035 25.36239624 C-35.39838129 23.28652744 -32.85160197 21.62555892 -30 20 C-28.80418872 19.16715324 -27.6143122 18.32563786 -26.43383789 17.47119141 C-25.37414795 16.77171387 -24.31445801 16.07223633 -23.22265625 15.3515625 C-22.64462753 14.96809662 -22.06659882 14.58463074 -21.47105408 14.18954468 C-19.67111555 12.99688469 -17.86696451 11.81079791 -16.0625 10.625 C-14.83239127 9.81163788 -13.60257192 8.99783794 -12.37304688 8.18359375 C-10.13724978 6.70383786 -7.89954733 5.22713964 -5.66040039 3.75244141 C-3.76993852 2.50716882 -1.88355125 1.25570083 0 0 Z " fill="#FEBF0A" transform="translate(554,338)"/>
<path d="M0 0 C3.40660077 -0.06138926 6.81270967 -0.0999189 10.21972656 -0.12988281 C11.3010083 -0.14317627 12.38229004 -0.15646973 13.49633789 -0.17016602 C20.86031416 -0.17633867 27.8108124 0.62663077 35.03222656 2.05761719 C32.47271553 3.35720289 29.90000821 4.57973025 27.26660156 5.72167969 C3.54431965 16.08083631 -18.91618097 28.11554165 -39.81982422 43.48339844 C-42.10669848 45.1594345 -44.4093169 46.81223398 -46.71386719 48.46386719 C-62.01434698 59.48905489 -75.63834476 71.56311888 -88.96777344 84.87011719 C-89.51097229 85.41213776 -90.05417114 85.95415833 -90.61383057 86.51260376 C-96.61184066 92.51208979 -102.5133152 98.55213085 -107.96777344 105.05761719 C-108.73009277 105.95975952 -108.73009277 105.95975952 -109.5078125 106.88012695 C-138.94762791 142.00781991 -162.39877266 181.93584277 -177.96777344 225.05761719 C-178.29777344 225.05761719 -178.62777344 225.05761719 -178.96777344 225.05761719 C-179.99171712 220.82957241 -180.128254 216.72376069 -180.13574219 212.39746094 C-180.14202637 211.29008575 -180.14202637 211.29008575 -180.1484375 210.16033936 C-180.15820396 207.7718776 -180.15822936 205.38359559 -180.15527344 202.99511719 C-180.15500153 202.1824942 -180.15472961 201.36987122 -180.15444946 200.53262329 C-180.13552014 188.2765712 -179.82727711 176.19379814 -177.96777344 164.05761719 C-177.79632813 162.86523438 -177.62488281 161.67285156 -177.44824219 160.44433594 C-174.15094254 141.319998 -167.58252815 122.41074259 -158.96777344 105.05761719 C-158.65372559 104.41324707 -158.33967773 103.76887695 -158.01611328 103.10498047 C-135.48131609 57.25349515 -94.54328827 24.50968767 -46.80761719 7.92089844 C-31.50827672 2.86234945 -16.07664157 0.31211644 0 0 Z " fill="#FEFAF2" transform="translate(433.9677734375,240.9423828125)"/>
<path d="M0 0 C1.27617188 -0.00386719 2.55234375 -0.00773438 3.8671875 -0.01171875 C16.5392908 0.00123841 28.14240265 1.04498036 40.4375 4.1875 C41.65598633 4.49695557 42.87447266 4.80641113 44.12988281 5.12524414 C70.82790857 12.12166649 97.01387248 23.90587902 118 42.125 C119.19109375 43.15173828 119.19109375 43.15173828 120.40625 44.19921875 C122.97891914 46.46658697 125.49640128 48.78160179 128 51.125 C128.94875 52.00800781 129.8975 52.89101563 130.875 53.80078125 C161.10017215 82.57910909 177.07675783 121.88991307 185 162.125 C185.13550262 162.79449677 185.27100525 163.46399353 185.41061401 164.15377808 C188.16141763 178.07131581 188.3605628 191.6637997 188.1875 205.8125 C188.17240509 207.99022498 188.1587253 210.16796024 188.14648438 212.34570312 C188.11390786 217.6056987 188.06410075 222.86529885 188 228.125 C185.87326884 224.93490327 184.70927786 221.76372192 183.4375 218.1875 C167.40985167 174.62351666 142.66265287 133.67395129 111.1953125 99.53125 C109.3588622 97.51834362 107.57802679 95.47480355 105.80078125 93.41015625 C101.74625153 88.76573899 97.43157658 84.40945467 93.0625 80.0625 C92.30259766 79.29873047 91.54269531 78.53496094 90.75976562 77.74804688 C86.00302639 72.99943188 81.10555099 68.49425882 76 64.125 C75.01257813 63.25617188 74.02515625 62.38734375 73.0078125 61.4921875 C43.78195494 36.22647324 8.9257547 16.17978627 -27 2.125 C-27 1.795 -27 1.465 -27 1.125 C-17.98459958 0.20373352 -9.05842645 -0.02744978 0 0 Z " fill="#FEFAF2" transform="translate(582,240.875)"/>
<path d="M0 0 C1.7095138 2.56427069 2.4383026 4.0888137 3.2890625 6.9375 C5.19443733 12.83678787 7.76126904 18.38571098 10.375 24 C10.90101807 25.13139404 11.42703613 26.26278809 11.96899414 27.4284668 C29.10651772 63.94985404 50.03272573 96.93970502 77 127 C77.63043213 127.7118042 78.26086426 128.4236084 78.91040039 129.15698242 C92.10442709 143.97316338 105.95816675 158.27328005 122 170 C123.55807187 171.22881895 125.11612073 172.45767982 126.66992188 173.69189453 C149.52750568 191.71096014 175.3251702 206.68691142 202.00390625 218.23828125 C205.39645997 219.71249858 208.70850511 221.31005397 212 223 C212 223.33 212 223.66 212 224 C206.79371465 224.05039966 201.58757906 224.0861781 196.38110352 224.10986328 C194.61935953 224.11976341 192.85763123 224.13328696 191.09594727 224.15087891 C174.15772477 224.31546866 157.57292203 223.5906256 141.1875 218.9375 C139.54865845 218.48068848 139.54865845 218.48068848 137.87670898 218.01464844 C107.60490115 209.28345087 81.59156181 193.85287314 59 172 C58.50016602 171.52594727 58.00033203 171.05189453 57.48535156 170.56347656 C24.92098987 139.65107995 2.03297107 91.44526353 0.79467773 46.31835938 C0.75330791 44.16023511 0.71650001 42.0020199 0.68359375 39.84375 C0.66281265 38.70087524 0.64203156 37.55800049 0.62062073 36.38049316 C0.55558659 32.75371933 0.49645601 29.12687722 0.4375 25.5 C0.39427085 23.03124313 0.3506552 20.56249299 0.30664062 18.09375 C0.19995288 12.06257077 0.09810344 6.03132464 0 0 Z " fill="#FEFAF2" transform="translate(254,551)"/>
<path d="M0 0 C0.33 0 0.66 0 1 0 C2.2814705 54.57881446 -5.98881309 106.89950277 -42 150 C-42.42764648 150.52319824 -42.85529297 151.04639648 -43.29589844 151.58544922 C-68.84733105 182.82599757 -105.56970551 207.40817998 -145.4375 215.625 C-146.85772461 215.93050781 -146.85772461 215.93050781 -148.30664062 216.2421875 C-151.19959204 216.85495114 -154.09878711 217.42781225 -157 218 C-157.86802246 218.19416504 -158.73604492 218.38833008 -159.63037109 218.58837891 C-169.90563959 220.6647285 -180.31961973 220.21806568 -190.75 220.125 C-192.71874544 220.11494876 -194.68749586 220.10582671 -196.65625 220.09765625 C-201.43762471 220.07581575 -206.21875632 220.04140432 -211 220 C-209.72793478 217.45586956 -208.86515779 217.35767065 -206.2578125 216.328125 C-205.45263184 216.00094482 -204.64745117 215.67376465 -203.81787109 215.33666992 C-202.92922363 214.97806885 -202.04057617 214.61946777 -201.125 214.25 C-175.23016381 203.447343 -150.99653119 189.6695762 -128.86132812 172.44384766 C-127.05880486 171.04561541 -125.24251837 169.66748424 -123.421875 168.29296875 C-110.28823667 158.29607738 -98.68139463 146.75457666 -87 135.125 C-86.11562256 134.24537598 -85.23124512 133.36575195 -84.32006836 132.45947266 C-79.34009105 127.46672254 -74.55941278 122.37886548 -70 117 C-69.1953833 116.06341553 -69.1953833 116.06341553 -68.37451172 115.10791016 C-58.8098406 103.91996952 -50.19399602 92.22108721 -42 80 C-41.42781738 79.15373047 -40.85563477 78.30746094 -40.26611328 77.43554688 C-24.34790444 53.74458218 -9.6911476 26.89600141 0 0 Z " fill="#FEFAF2" transform="translate(769,555)"/>
<path d="M0 0 C-0.33 0.66 -0.66 1.32 -1 2 C-3.58584711 2.49225292 -6.07631174 2.85067173 -8.6875 3.125 C-9.44538818 3.20991699 -10.20327637 3.29483398 -10.98413086 3.38232422 C-18.00510621 4.1116428 -24.94251928 4.20132275 -32 4 C-32.33 4.66 -32.66 5.32 -33 6 C-33 5.34 -33 4.68 -33 4 C-38.61 4 -44.22 4 -50 4 C-50.33 3.34 -50.66 2.68 -51 2 C-50.02764404 1.97494385 -49.05528809 1.9498877 -48.0534668 1.92407227 C-44.39483755 1.82884677 -40.73634828 1.72892284 -37.07788086 1.62768555 C-35.50402128 1.58476649 -33.93012787 1.543068 -32.35620117 1.50268555 C-24.25827823 1.29412219 -16.2058348 1.06198835 -8.14453125 0.20507812 C-5.42393145 -0.05508852 -2.7305885 -0.07379969 0 0 Z " fill="#FAEDD1" transform="translate(485,793)"/>
<path d="M0 0 C9.24 0 18.48 0 28 0 C28.33 0.66 28.66 1.32 29 2 C25.7 2 22.4 2 19 2 C18.67 2.66 18.34 3.32 18 4 C18 3.34 18 2.68 18 2 C12.39 2 6.78 2 1 2 C0.67 1.34 0.34 0.68 0 0 Z " fill="#FAEDCF" transform="translate(562,795)"/>
<path d="M0 0 C0 0.66 0 1.32 0 2 C-1.66666667 3.66666667 -3.33333333 5.33333333 -5 7 C-5.93933003 8.25417472 -6.85632271 9.52539626 -7.75 10.8125 C-8.4925 11.864375 -9.235 12.91625 -10 14 C-10.33 14 -10.66 14 -11 14 C-11 7.05054945 -11 7.05054945 -8.22265625 4.1328125 C-2.75508373 0 -2.75508373 0 0 0 Z " fill="#FBC013" transform="translate(386,557)"/>
<path d="M0 0 C0.99 0.33 1.98 0.66 3 1 C-0.34003602 5.32239956 -3.32751069 8.17477391 -8 11 C-8.66 10.67 -9.32 10.34 -10 10 C-6.7 6.7 -3.4 3.4 0 0 Z " fill="#FBC423" transform="translate(369,569)"/>
<path d="M0 0 C-0.33 0.66 -0.66 1.32 -1 2 C-0.01 2.33 0.98 2.66 2 3 C-1.63 3 -5.26 3 -9 3 C-8 1 -8 1 -5.625 -0.1875 C-3 -1 -3 -1 0 0 Z " fill="#FDF2CB" transform="translate(567,772)"/>
<path d="M0 0 C0 3 0 3 -2.5 5.6875 C-3.325 6.450625 -4.15 7.21375 -5 8 C-5.99 7.67 -6.98 7.34 -8 7 C-5.36 4.69 -2.72 2.38 0 0 Z " fill="#FCC220" transform="translate(308,272)"/>
<path d="M0 0 C4.29 0.33 8.58 0.66 13 1 C13 1.33 13 1.66 13 2 C11.20909747 2.19466332 9.41723495 2.38051213 7.625 2.5625 C6.12839844 2.71912109 6.12839844 2.71912109 4.6015625 2.87890625 C2 3 2 3 0 2 C0 1.34 0 0.68 0 0 Z " fill="#F8E9C3" transform="translate(528,791)"/>
<path d="M0 0 C0.99 0.33 1.98 0.66 3 1 C-0.20336822 3.83374881 -2.78087253 4.5205537 -7 5 C-4.702779 3.25728062 -2.40133271 1.60088848 0 0 Z " fill="#FBC01B" transform="translate(346,245)"/>
<path d="M0 0 C0 0.66 0 1.32 0 2 C-1.62626404 3.38232443 -3.2925002 4.71937515 -5 6 C-5.99 5.34 -6.98 4.68 -8 4 C-2.25 0 -2.25 0 0 0 Z " fill="#FAC22A" transform="translate(386,557)"/>
</svg>
