<svg xmlns="http://www.w3.org/2000/svg" xmlns:v="https://svgstorm.com"
viewBox = "0 0 248 205"
width="248"
height="205">
<g fill="None" fill-opacity="0.0" stroke="#F6F5F1" stroke-opacity="1.00" stroke-width="0.3"><path d="
M 0.00 205.00 
L 248.00 205.00
L 248.00 0.00
L 0.00 0.00
L 0.00 205.00
M 115.00 1.00 
C 157.31 5.09 185.30 31.62 201.92 70.08 C 218.55 108.53 202.38 156.31 167.25 178.25 C 132.13 200.20 80.03 207.84 48.25 177.75 C 16.47 147.66 7.71 101.99 17.99 60.99 C 28.28 19.99 74.34 -2.94 115.00 1.00 Z"/>
</g>
<g fill="None" fill-opacity="0.0" stroke="#231F20" stroke-opacity="1.00" stroke-width="0.3"><path d="
M 115.00 1.00 
C 74.34 -2.94 28.28 19.99 17.99 60.99 C 7.71 101.99 16.47 147.66 48.25 177.75 C 80.03 207.84 132.13 200.20 167.25 178.25 C 202.38 156.31 218.55 108.53 201.92 70.08 C 185.30 31.62 157.31 5.09 115.00 1.00
M 132.00 62.00 
C 132.61 63.92 132.35 66.82 133.00 69.00
C 137.63 79.86 134.87 87.71 127.68 96.68 C 120.49 105.65 105.79 103.01 95.32 101.68 C 84.85 100.34 80.93 81.09 94.00 79.00
C 87.32 70.54 88.85 55.12 101.01 54.01 C 113.17 52.90 126.27 50.31 132.00 62.00
M 71.00 138.00 
C 71.45 137.17 72.84 134.83 73.00 134.00
C 73.00 128.77 70.78 122.76 75.75 118.75 C 80.73 114.75 84.88 117.08 86.00 123.00
C 86.55 125.90 87.73 131.16 88.00 134.00
C 88.00 131.00 87.92 127.99 88.00 125.00
C 88.07 122.57 87.70 120.80 89.00 119.00
C 89.43 117.41 92.60 116.91 94.00 117.00
C 93.63 118.54 95.43 119.40 95.00 121.00
C 95.07 120.43 96.40 118.48 97.00 118.00
C 98.03 117.18 100.72 116.38 102.00 117.00
C 102.77 117.37 103.98 122.47 104.00 123.00
C 105.49 115.26 110.01 116.26 112.00 123.00
C 110.68 118.85 114.03 116.21 118.00 117.00
C 119.55 124.25 116.34 129.95 117.01 137.01 C 117.68 144.07 110.45 148.70 110.00 139.00
C 108.67 142.72 109.44 148.04 103.00 146.00
C 103.00 140.33 103.00 134.67 103.00 129.00
C 102.88 129.21 102.00 129.00 102.00 129.00
C 102.00 137.24 98.85 153.12 94.00 138.00
C 91.97 139.77 93.47 143.48 93.00 146.00
C 91.33 146.00 89.67 146.00 88.00 146.00
C 86.63 145.13 86.14 136.40 86.00 135.00
C 86.00 136.93 86.28 139.09 86.00 141.00
C 85.77 142.56 85.66 141.93 85.00 143.00
C 82.91 146.41 73.41 148.50 73.00 143.00
C 73.00 142.96 72.00 143.00 72.00 143.00
C 71.74 143.12 71.23 143.74 71.00 144.00
C 63.88 152.03 61.15 140.35 61.00 135.00
C 60.87 134.67 59.33 134.05 59.00 134.00
C 56.22 133.59 54.17 136.35 55.00 139.00
C 59.51 135.50 59.32 142.02 59.00 145.00
C 55.44 145.62 51.84 146.40 48.00 146.00
C 47.32 137.75 49.68 130.26 49.00 122.00
C 49.02 121.69 48.73 117.29 50.00 118.00
C 51.35 114.57 59.05 117.80 60.00 119.00
C 60.43 119.54 61.99 122.52 62.00 123.00
C 63.02 117.66 65.76 114.50 72.00 116.00
C 71.44 118.52 73.19 122.30 71.00 124.00
C 64.77 122.25 67.60 133.84 67.00 138.00
C 68.33 138.00 69.67 138.00 71.00 138.00
M 138.00 120.00 
C 140.61 113.97 147.93 116.97 144.69 122.69 C 141.46 128.42 142.00 132.57 144.33 138.67 C 146.66 144.78 136.95 149.27 138.00 140.00
C 137.39 147.65 129.97 146.26 131.33 140.33 C 132.69 134.39 136.46 130.37 133.02 124.98 C 129.59 119.59 137.27 112.67 138.00 120.00
M 160.00 129.00 
C 160.00 132.58 161.43 139.78 160.00 143.00
C 160.34 147.12 148.90 144.45 147.00 145.00
C 144.47 137.59 146.99 131.67 146.99 123.99 C 147.00 116.31 154.20 118.79 160.00 116.00
C 160.00 120.33 160.00 124.67 160.00 129.00
M 173.00 132.00 
C 174.23 134.58 173.40 135.66 173.00 138.00
C 172.36 149.13 157.29 148.23 161.00 136.00
C 162.67 136.00 164.33 136.00 166.00 136.00
C 166.47 136.11 167.00 136.00 167.00 136.00
C 163.45 130.39 160.99 129.22 162.00 121.00
C 162.19 119.44 162.19 120.03 163.00 119.00
C 165.32 116.06 169.22 115.77 173.00 116.00
C 176.09 120.72 172.32 131.86 168.00 124.00
C 166.02 128.97 172.62 128.54 173.00 132.00
M 131.00 117.00 
C 133.40 123.69 126.83 122.90 125.00 127.00
C 128.60 127.78 131.30 129.15 130.00 134.00
C 126.92 133.58 124.00 135.60 125.00 139.00
C 135.85 136.22 126.68 150.50 119.00 146.00
C 118.72 136.17 119.12 126.54 120.00 117.00
C 123.67 117.00 127.33 117.00 131.00 117.00 Z"/>
</g>
<g fill="None" fill-opacity="0.0" stroke="#E4E3DF" stroke-opacity="1.00" stroke-width="0.3"><path d="
M 133.00 69.00 
C 132.06 66.80 132.54 64.59 132.00 62.00
C 126.27 50.31 113.17 52.90 101.01 54.01 C 88.85 55.12 87.32 70.54 94.00 79.00
C 80.93 81.09 84.85 100.34 95.32 101.68 C 105.79 103.01 120.49 105.65 127.68 96.68 C 134.87 87.71 137.63 79.86 133.00 69.00
M 116.00 55.00 
C 119.86 55.47 132.68 58.69 128.24 64.25 C 123.81 69.80 112.48 68.42 107.00 69.00 C 101.52 69.58 89.64 63.94 94.26 59.26 C 98.87 54.58 109.82 54.25 116.00 55.00
M 94.00 72.00 
C 88.87 68.62 95.70 64.67 94.00 72.00
M 96.00 68.00 
C 99.99 74.78 92.23 73.72 96.00 68.00
M 127.00 73.00 
C 125.99 75.51 123.95 70.82 126.00 69.00
C 126.23 67.09 127.46 71.87 127.00 73.00
M 99.00 75.00 
C 97.61 74.26 97.35 70.68 99.00 70.00
C 100.39 70.74 100.65 74.32 99.00 75.00
M 103.00 71.00 
C 103.41 72.32 103.37 75.40 102.00 76.00
C 99.10 75.61 101.93 67.56 103.00 71.00
M 123.00 75.00 
C 121.61 74.26 121.35 70.68 123.00 70.00
C 124.39 70.74 124.65 74.32 123.00 75.00
M 106.00 76.00 
C 104.61 75.26 104.35 71.68 106.00 71.00
C 107.39 71.74 107.65 75.32 106.00 76.00
M 110.00 77.00 
C 107.06 77.80 106.95 70.17 110.00 71.00
C 111.54 71.42 111.63 76.55 110.00 77.00
M 114.00 71.00 
C 116.06 80.37 108.29 74.12 114.00 71.00
M 117.00 76.00 
C 115.61 75.26 115.35 71.68 117.00 71.00
C 118.39 71.74 118.65 75.32 117.00 76.00
M 121.00 71.00 
C 122.86 79.20 115.46 73.13 121.00 71.00
M 120.00 81.00 
C 116.87 81.51 114.05 81.44 111.00 81.00
C 107.10 80.85 103.46 80.73 100.00 79.00
C 110.34 79.20 123.76 79.97 133.00 73.00
C 134.66 79.00 124.79 81.07 120.00 81.00
M 97.00 79.00 
C 100.99 85.78 93.23 84.72 97.00 79.00
M 134.00 79.00 
C 135.60 87.24 128.66 83.08 134.00 79.00
M 100.00 82.00 
C 101.49 83.49 100.35 87.43 100.00 86.00
C 98.51 84.51 99.65 80.57 100.00 82.00
M 131.00 81.00 
C 132.66 90.06 125.34 83.89 131.00 81.00
M 115.00 92.00 
C 108.37 95.39 81.16 91.47 93.00 82.00
C 96.28 90.53 106.68 92.11 115.00 92.00
M 103.00 82.00 
C 106.91 89.00 98.97 88.03 103.00 82.00
M 127.00 87.00 
C 126.77 88.91 125.54 84.13 126.00 83.00
C 127.01 80.49 129.05 85.18 127.00 87.00
M 107.00 89.00 
C 101.62 84.64 108.93 80.51 107.00 89.00
M 110.00 89.00 
C 109.74 89.25 109.00 89.00 109.00 89.00
C 107.42 87.46 107.82 84.85 109.00 83.00
C 111.40 83.61 111.88 87.85 110.00 89.00
M 121.00 84.00 
C 121.39 85.34 121.39 88.39 120.00 89.00
C 116.97 88.64 120.26 81.48 121.00 84.00
M 124.00 83.00 
C 125.26 90.32 121.06 87.99 124.00 83.00
M 114.00 84.00 
C 115.86 92.20 108.46 86.13 114.00 84.00
M 118.00 84.00 
C 119.86 92.20 112.46 86.13 118.00 84.00
M 90.00 96.00 
C 84.87 92.62 91.70 88.67 90.00 96.00
M 123.00 93.00 
C 123.39 94.34 123.39 97.39 122.00 98.00
C 118.97 97.64 122.26 90.48 123.00 93.00
M 93.00 98.00 
C 87.87 94.62 94.70 90.67 93.00 98.00
M 95.00 99.00 
C 93.61 98.26 93.35 94.68 95.00 94.00
C 96.39 94.74 96.65 98.32 95.00 99.00
M 119.00 99.00 
C 117.61 98.26 117.35 94.68 119.00 94.00
C 120.39 94.74 120.65 98.32 119.00 99.00
M 99.00 95.00 
C 100.21 101.27 96.10 98.91 99.00 95.00
M 103.00 95.00 
C 104.86 103.20 97.46 97.13 103.00 95.00
M 106.00 101.00 
C 103.06 101.80 102.95 94.17 106.00 95.00
C 107.54 95.42 107.63 100.55 106.00 101.00
M 110.00 95.00 
C 112.06 104.37 104.29 98.12 110.00 95.00
M 112.00 100.00 
C 111.61 98.66 111.61 95.61 113.00 95.00
C 116.03 95.36 112.74 102.52 112.00 100.00
M 117.00 95.00 
C 118.86 103.20 111.46 97.13 117.00 95.00 Z"/>
</g>
<g fill="None" fill-opacity="0.0" stroke="#272324" stroke-opacity="1.00" stroke-width="0.3"><path d="
M 116.00 55.00 
C 109.82 54.25 98.87 54.58 94.26 59.26 C 89.64 63.94 101.52 69.58 107.00 69.00 C 112.48 68.42 123.81 69.80 128.24 64.25 C 132.68 58.69 119.86 55.47 116.00 55.00 Z"/>
</g>
<g fill="None" fill-opacity="0.0" stroke="#7D7B79" stroke-opacity="1.00" stroke-width="0.3"><path d="
M 133.00 69.00 
C 132.35 66.82 132.61 63.92 132.00 62.00
C 132.54 64.59 132.06 66.80 133.00 69.00 Z"/>
</g>
<g fill="None" fill-opacity="0.0" stroke="#716D6D" stroke-opacity="1.00" stroke-width="0.3"><path d="
M 94.00 72.00 
C 95.70 64.67 88.87 68.62 94.00 72.00 Z"/>
</g>
<g fill="None" fill-opacity="0.0" stroke="#504C4C" stroke-opacity="1.00" stroke-width="0.3"><path d="
M 96.00 68.00 
C 92.23 73.72 99.99 74.78 96.00 68.00 Z"/>
</g>
<g fill="None" fill-opacity="0.0" stroke="#2B2728" stroke-opacity="1.00" stroke-width="0.3"><path d="
M 126.00 69.00 
C 125.85 70.23 125.53 72.53 127.00 73.00
C 127.46 71.87 126.23 67.09 126.00 69.00 Z"/>
</g>
<g fill="None" fill-opacity="0.0" stroke="#8B8987" stroke-opacity="1.00" stroke-width="0.3"><path d="
M 127.00 73.00 
C 125.53 72.53 125.85 70.23 126.00 69.00
C 123.95 70.82 125.99 75.51 127.00 73.00 Z"/>
</g>
<g fill="None" fill-opacity="0.0" stroke="#878583" stroke-opacity="1.00" stroke-width="0.3"><path d="
M 99.00 75.00 
C 99.00 73.33 99.00 71.67 99.00 70.00
C 97.35 70.68 97.61 74.26 99.00 75.00 Z"/>
</g>
<g fill="None" fill-opacity="0.0" stroke="#231F20" stroke-opacity="1.00" stroke-width="0.3"><path d="
M 99.00 75.00 
C 100.65 74.32 100.39 70.74 99.00 70.00
C 99.00 71.67 99.00 73.33 99.00 75.00 Z"/>
</g>
<g fill="None" fill-opacity="0.0" stroke="#ABAAA7" stroke-opacity="1.00" stroke-width="0.3"><path d="
M 102.00 76.00 
C 102.39 74.43 101.06 71.78 103.00 71.00
C 101.93 67.56 99.10 75.61 102.00 76.00 Z"/>
</g>
<g fill="None" fill-opacity="0.0" stroke="#696665" stroke-opacity="1.00" stroke-width="0.3"><path d="
M 123.00 75.00 
C 123.00 73.33 123.00 71.67 123.00 70.00
C 121.35 70.68 121.61 74.26 123.00 75.00 Z"/>
</g>
<g fill="None" fill-opacity="0.0" stroke="#353031" stroke-opacity="1.00" stroke-width="0.3"><path d="
M 123.00 75.00 
C 124.65 74.32 124.39 70.74 123.00 70.00
C 123.00 71.67 123.00 73.33 123.00 75.00 Z"/>
</g>
<g fill="None" fill-opacity="0.0" stroke="#231F20" stroke-opacity="1.00" stroke-width="0.3"><path d="
M 102.00 76.00 
C 103.37 75.40 103.41 72.32 103.00 71.00
C 101.06 71.78 102.39 74.43 102.00 76.00 Z"/>
</g>
<g fill="None" fill-opacity="0.0" stroke="#231F20" stroke-opacity="1.00" stroke-width="0.3"><path d="
M 106.00 76.00 
C 106.00 74.33 106.00 72.67 106.00 71.00
C 104.35 71.68 104.61 75.26 106.00 76.00 Z"/>
</g>
<g fill="None" fill-opacity="0.0" stroke="#666262" stroke-opacity="1.00" stroke-width="0.3"><path d="
M 106.00 76.00 
C 107.65 75.32 107.39 71.74 106.00 71.00
C 106.00 72.67 106.00 74.33 106.00 76.00 Z"/>
</g>
<g fill="None" fill-opacity="0.0" stroke="#4D4A4A" stroke-opacity="1.00" stroke-width="0.3"><path d="
M 110.00 77.00 
C 110.00 75.00 110.00 73.00 110.00 71.00
C 106.95 70.17 107.06 77.80 110.00 77.00 Z"/>
</g>
<g fill="None" fill-opacity="0.0" stroke="#A9A7A5" stroke-opacity="1.00" stroke-width="0.3"><path d="
M 110.00 77.00 
C 111.63 76.55 111.54 71.42 110.00 71.00
C 110.00 73.00 110.00 75.00 110.00 77.00 Z"/>
</g>
<g fill="None" fill-opacity="0.0" stroke="#333030" stroke-opacity="1.00" stroke-width="0.3"><path d="
M 114.00 71.00 
C 108.29 74.12 116.06 80.37 114.00 71.00 Z"/>
</g>
<g fill="None" fill-opacity="0.0" stroke="#231F20" stroke-opacity="1.00" stroke-width="0.3"><path d="
M 117.00 76.00 
C 117.00 74.33 117.00 72.67 117.00 71.00
C 115.35 71.68 115.61 75.26 117.00 76.00 Z"/>
</g>
<g fill="None" fill-opacity="0.0" stroke="#817D7D" stroke-opacity="1.00" stroke-width="0.3"><path d="
M 117.00 76.00 
C 118.65 75.32 118.39 71.74 117.00 71.00
C 117.00 72.67 117.00 74.33 117.00 76.00 Z"/>
</g>
<g fill="None" fill-opacity="0.0" stroke="#504D4D" stroke-opacity="1.00" stroke-width="0.3"><path d="
M 121.00 71.00 
C 115.46 73.13 122.86 79.20 121.00 71.00 Z"/>
</g>
<g fill="None" fill-opacity="0.0" stroke="#302C2D" stroke-opacity="1.00" stroke-width="0.3"><path d="
M 111.00 81.00 
C 113.96 81.11 117.05 81.16 120.00 81.00
C 124.79 81.07 134.66 79.00 133.00 73.00
C 123.76 79.97 110.34 79.20 100.00 79.00
C 103.46 80.73 107.10 80.85 111.00 81.00 Z"/>
</g>
<g fill="None" fill-opacity="0.0" stroke="#757272" stroke-opacity="1.00" stroke-width="0.3"><path d="
M 97.00 79.00 
C 93.23 84.72 100.99 85.78 97.00 79.00 Z"/>
</g>
<g fill="None" fill-opacity="0.0" stroke="#787675" stroke-opacity="1.00" stroke-width="0.3"><path d="
M 134.00 79.00 
C 128.66 83.08 135.60 87.24 134.00 79.00 Z"/>
</g>
<g fill="None" fill-opacity="0.0" stroke="#231F20" stroke-opacity="1.00" stroke-width="0.3"><path d="
M 100.00 86.00 
C 99.69 84.74 100.31 83.26 100.00 82.00
C 99.65 80.57 98.51 84.51 100.00 86.00 Z"/>
</g>
<g fill="None" fill-opacity="0.0" stroke="#8F8D8C" stroke-opacity="1.00" stroke-width="0.3"><path d="
M 120.00 81.00 
C 117.05 81.16 113.96 81.11 111.00 81.00
C 114.05 81.44 116.87 81.51 120.00 81.00 Z"/>
</g>
<g fill="None" fill-opacity="0.0" stroke="#565352" stroke-opacity="1.00" stroke-width="0.3"><path d="
M 131.00 81.00 
C 125.34 83.89 132.66 90.06 131.00 81.00 Z"/>
</g>
<g fill="None" fill-opacity="0.0" stroke="#322E2F" stroke-opacity="1.00" stroke-width="0.3"><path d="
M 115.00 92.00 
C 106.68 92.11 96.28 90.53 93.00 82.00
C 81.16 91.47 108.37 95.39 115.00 92.00 Z"/>
</g>
<g fill="None" fill-opacity="0.0" stroke="#7E7B7A" stroke-opacity="1.00" stroke-width="0.3"><path d="
M 100.00 86.00 
C 100.35 87.43 101.49 83.49 100.00 82.00
C 100.31 83.26 99.69 84.74 100.00 86.00 Z"/>
</g>
<g fill="None" fill-opacity="0.0" stroke="#575353" stroke-opacity="1.00" stroke-width="0.3"><path d="
M 103.00 82.00 
C 98.97 88.03 106.91 89.00 103.00 82.00 Z"/>
</g>
<g fill="None" fill-opacity="0.0" stroke="#706C6C" stroke-opacity="1.00" stroke-width="0.3"><path d="
M 126.00 83.00 
C 127.30 83.50 127.14 85.80 127.00 87.00
C 129.05 85.18 127.01 80.49 126.00 83.00 Z"/>
</g>
<g fill="None" fill-opacity="0.0" stroke="#53504F" stroke-opacity="1.00" stroke-width="0.3"><path d="
M 107.00 89.00 
C 108.93 80.51 101.62 84.64 107.00 89.00 Z"/>
</g>
<g fill="None" fill-opacity="0.0" stroke="#9A9897" stroke-opacity="1.00" stroke-width="0.3"><path d="
M 109.00 89.00 
C 108.82 87.35 109.13 85.65 109.00 84.00
C 110.75 84.83 109.66 87.44 110.00 89.00
C 111.88 87.85 111.40 83.61 109.00 83.00
C 107.82 84.85 107.42 87.46 109.00 89.00 Z"/>
</g>
<g fill="None" fill-opacity="0.0" stroke="#807E7C" stroke-opacity="1.00" stroke-width="0.3"><path d="
M 120.00 89.00 
C 120.39 87.43 119.06 84.78 121.00 84.00
C 120.26 81.48 116.97 88.64 120.00 89.00 Z"/>
</g>
<g fill="None" fill-opacity="0.0" stroke="#333030" stroke-opacity="1.00" stroke-width="0.3"><path d="
M 124.00 83.00 
C 121.06 87.99 125.26 90.32 124.00 83.00 Z"/>
</g>
<g fill="None" fill-opacity="0.0" stroke="#332F2F" stroke-opacity="1.00" stroke-width="0.3"><path d="
M 127.00 87.00 
C 127.14 85.80 127.30 83.50 126.00 83.00
C 125.54 84.13 126.77 88.91 127.00 87.00 Z"/>
</g>
<g fill="None" fill-opacity="0.0" stroke="#231F20" stroke-opacity="1.00" stroke-width="0.3"><path d="
M 109.00 89.00 
C 109.00 89.00 109.74 89.25 110.00 89.00
C 109.66 87.44 110.75 84.83 109.00 84.00
C 109.13 85.65 108.82 87.35 109.00 89.00 Z"/>
</g>
<g fill="None" fill-opacity="0.0" stroke="#231F20" stroke-opacity="1.00" stroke-width="0.3"><path d="
M 114.00 84.00 
C 108.46 86.13 115.86 92.20 114.00 84.00 Z"/>
</g>
<g fill="None" fill-opacity="0.0" stroke="#343131" stroke-opacity="1.00" stroke-width="0.3"><path d="
M 118.00 84.00 
C 112.46 86.13 119.86 92.20 118.00 84.00 Z"/>
</g>
<g fill="None" fill-opacity="0.0" stroke="#231F20" stroke-opacity="1.00" stroke-width="0.3"><path d="
M 120.00 89.00 
C 121.39 88.39 121.39 85.34 121.00 84.00
C 119.06 84.78 120.39 87.43 120.00 89.00 Z"/>
</g>
<g fill="None" fill-opacity="0.0" stroke="#726F6E" stroke-opacity="1.00" stroke-width="0.3"><path d="
M 90.00 96.00 
C 91.70 88.67 84.87 92.62 90.00 96.00 Z"/>
</g>
<g fill="None" fill-opacity="0.0" stroke="#92908F" stroke-opacity="1.00" stroke-width="0.3"><path d="
M 122.00 98.00 
C 122.39 96.43 121.06 93.78 123.00 93.00
C 122.26 90.48 118.97 97.64 122.00 98.00 Z"/>
</g>
<g fill="None" fill-opacity="0.0" stroke="#4A4747" stroke-opacity="1.00" stroke-width="0.3"><path d="
M 93.00 98.00 
C 94.70 90.67 87.87 94.62 93.00 98.00 Z"/>
</g>
<g fill="None" fill-opacity="0.0" stroke="#282425" stroke-opacity="1.00" stroke-width="0.3"><path d="
M 122.00 98.00 
C 123.39 97.39 123.39 94.34 123.00 93.00
C 121.06 93.78 122.39 96.43 122.00 98.00 Z"/>
</g>
<g fill="None" fill-opacity="0.0" stroke="#888584" stroke-opacity="1.00" stroke-width="0.3"><path d="
M 95.00 99.00 
C 95.00 97.33 95.00 95.67 95.00 94.00
C 93.35 94.68 93.61 98.26 95.00 99.00 Z"/>
</g>
<g fill="None" fill-opacity="0.0" stroke="#231F20" stroke-opacity="1.00" stroke-width="0.3"><path d="
M 95.00 99.00 
C 96.65 98.32 96.39 94.74 95.00 94.00
C 95.00 95.67 95.00 97.33 95.00 99.00 Z"/>
</g>
<g fill="None" fill-opacity="0.0" stroke="#6F6D6C" stroke-opacity="1.00" stroke-width="0.3"><path d="
M 119.00 99.00 
C 119.00 97.33 119.00 95.67 119.00 94.00
C 117.35 94.68 117.61 98.26 119.00 99.00 Z"/>
</g>
<g fill="None" fill-opacity="0.0" stroke="#2D2A29" stroke-opacity="1.00" stroke-width="0.3"><path d="
M 119.00 99.00 
C 120.65 98.32 120.39 94.74 119.00 94.00
C 119.00 95.67 119.00 97.33 119.00 99.00 Z"/>
</g>
<g fill="None" fill-opacity="0.0" stroke="#231F20" stroke-opacity="1.00" stroke-width="0.3"><path d="
M 99.00 95.00 
C 96.10 98.91 100.21 101.27 99.00 95.00 Z"/>
</g>
<g fill="None" fill-opacity="0.0" stroke="#434040" stroke-opacity="1.00" stroke-width="0.3"><path d="
M 103.00 95.00 
C 97.46 97.13 104.86 103.20 103.00 95.00 Z"/>
</g>
<g fill="None" fill-opacity="0.0" stroke="#4E4B4B" stroke-opacity="1.00" stroke-width="0.3"><path d="
M 106.00 101.00 
C 106.00 99.00 106.00 97.00 106.00 95.00
C 102.95 94.17 103.06 101.80 106.00 101.00 Z"/>
</g>
<g fill="None" fill-opacity="0.0" stroke="#A2A09E" stroke-opacity="1.00" stroke-width="0.3"><path d="
M 106.00 101.00 
C 107.63 100.55 107.54 95.42 106.00 95.00
C 106.00 97.00 106.00 99.00 106.00 101.00 Z"/>
</g>
<g fill="None" fill-opacity="0.0" stroke="#312D2E" stroke-opacity="1.00" stroke-width="0.3"><path d="
M 110.00 95.00 
C 104.29 98.12 112.06 104.37 110.00 95.00 Z"/>
</g>
<g fill="None" fill-opacity="0.0" stroke="#252121" stroke-opacity="1.00" stroke-width="0.3"><path d="
M 112.00 100.00 
C 113.75 99.17 112.66 96.56 113.00 95.00
C 111.61 95.61 111.61 98.66 112.00 100.00 Z"/>
</g>
<g fill="None" fill-opacity="0.0" stroke="#7C7978" stroke-opacity="1.00" stroke-width="0.3"><path d="
M 112.00 100.00 
C 112.74 102.52 116.03 95.36 113.00 95.00
C 112.66 96.56 113.75 99.17 112.00 100.00 Z"/>
</g>
<g fill="None" fill-opacity="0.0" stroke="#4E4B4A" stroke-opacity="1.00" stroke-width="0.3"><path d="
M 117.00 95.00 
C 111.46 97.13 118.86 103.20 117.00 95.00 Z"/>
</g>
<g fill="None" fill-opacity="0.0" stroke="#CFCECB" stroke-opacity="1.00" stroke-width="0.3"><path d="
M 62.00 123.00 
C 61.81 124.02 61.18 124.39 61.00 125.00
C 60.67 126.10 61.00 127.85 61.00 129.00
C 61.00 131.00 60.94 133.00 61.00 135.00
C 61.15 140.35 63.88 152.03 71.00 144.00
C 70.55 143.63 71.00 139.69 71.00 139.00
C 71.00 138.50 71.00 138.00 71.00 138.00
C 69.67 138.00 68.33 138.00 67.00 138.00
C 67.60 133.84 64.77 122.25 71.00 124.00
C 73.19 122.30 71.44 118.52 72.00 116.00
C 65.76 114.50 63.02 117.66 62.00 123.00
M 70.00 118.00 
C 70.20 122.28 63.51 123.48 65.00 129.00 C 66.49 134.52 62.15 140.54 70.00 140.00
C 67.15 149.74 61.35 138.71 63.00 133.00 C 64.65 127.29 60.15 116.72 70.00 118.00 Z"/>
</g>
<g fill="None" fill-opacity="0.0" stroke="#D3D1CE" stroke-opacity="1.00" stroke-width="0.3"><path d="
M 138.00 120.00 
C 137.27 112.67 129.59 119.59 133.02 124.98 C 136.46 130.37 132.69 134.39 131.33 140.33 C 129.97 146.26 137.39 147.65 138.00 140.00
C 136.95 149.27 146.66 144.78 144.33 138.67 C 142.00 132.57 141.46 128.42 144.69 122.69 C 147.93 116.97 140.61 113.97 138.00 120.00
M 139.00 125.00 
C 141.00 122.95 139.99 118.12 144.00 119.00
C 137.44 127.09 143.48 135.57 142.00 144.00
C 139.79 141.73 140.23 137.23 138.00 135.00
C 135.79 137.27 136.23 141.77 134.00 144.00
C 134.81 135.97 136.07 127.08 134.00 119.00
C 137.25 118.84 135.71 124.37 139.00 125.00 Z"/>
</g>
<g fill="None" fill-opacity="0.0" stroke="#D9D8D5" stroke-opacity="1.00" stroke-width="0.3"><path d="
M 160.00 143.00 
C 159.92 143.19 158.46 143.14 158.00 143.00
C 153.25 141.59 147.38 144.36 148.00 137.00 C 148.62 129.64 147.73 126.72 149.00 120.00
C 151.92 119.48 150.73 123.33 151.00 125.00
C 151.34 128.37 150.01 132.78 151.00 136.00
C 151.39 136.81 150.69 138.15 151.00 139.00
C 152.28 138.72 154.50 139.76 155.00 138.00
C 157.63 133.85 153.43 125.38 156.00 121.00
C 156.35 119.86 156.13 118.64 158.00 119.00
C 158.00 125.67 158.00 132.33 158.00 139.00
C 158.35 136.44 159.76 131.49 160.00 129.00
C 160.00 124.67 160.00 120.33 160.00 116.00
C 154.20 118.79 147.00 116.31 146.99 123.99 C 146.99 131.67 144.47 137.59 147.00 145.00
C 148.90 144.45 160.34 147.12 160.00 143.00
M 154.00 129.00 
C 154.00 130.33 154.06 131.67 154.00 133.00
C 153.97 133.65 153.33 139.81 152.00 137.00
C 151.15 135.21 151.82 130.14 153.00 129.00
C 152.73 126.02 153.20 122.98 153.00 120.00
C 155.08 122.10 153.50 126.15 154.00 129.00 Z"/>
</g>
<g fill="None" fill-opacity="0.0" stroke="#DBD9D6" stroke-opacity="1.00" stroke-width="0.3"><path d="
M 163.00 119.00 
C 162.05 119.57 165.06 118.98 165.00 119.00
C 170.07 117.63 173.31 118.57 172.00 125.00
C 170.58 117.97 162.84 124.68 166.33 128.67 C 169.82 132.66 174.01 134.67 171.67 140.67 C 169.33 146.67 160.92 144.05 163.00 138.00
C 165.65 144.20 172.23 137.31 168.22 133.78 C 164.22 130.25 162.08 127.99 163.00 122.00
C 162.98 121.66 162.11 121.26 162.00 121.00
C 160.99 129.22 163.45 130.39 167.00 136.00
C 167.66 137.18 168.85 139.21 166.00 139.00
C 166.00 138.00 166.00 137.00 166.00 136.00
C 164.33 136.00 162.67 136.00 161.00 136.00
C 157.29 148.23 172.36 149.13 173.00 138.00
C 173.10 136.30 173.44 133.64 173.00 132.00
C 172.62 128.54 166.02 128.97 168.00 124.00
C 172.32 131.86 176.09 120.72 173.00 116.00
C 169.22 115.77 165.32 116.06 163.00 119.00 Z"/>
</g>
<g fill="None" fill-opacity="0.0" stroke="#D9D8D5" stroke-opacity="1.00" stroke-width="0.3"><path d="
M 50.00 118.00 
C 49.04 117.46 51.20 120.71 51.00 120.00
C 52.03 120.20 56.13 117.78 58.00 119.00
C 59.15 122.81 54.87 121.46 53.00 123.00
C 51.86 128.03 53.74 130.32 58.00 131.00
C 52.21 131.63 50.29 144.00 58.00 140.00
C 58.75 144.17 52.93 143.95 50.00 144.00
C 50.00 138.33 50.00 132.67 50.00 127.00
C 49.93 125.32 49.07 122.98 49.00 122.00
C 49.68 130.26 47.32 137.75 48.00 146.00
C 51.84 146.40 55.44 145.62 59.00 145.00
C 59.32 142.02 59.51 135.50 55.00 139.00
C 54.17 136.35 56.22 133.59 59.00 134.00
C 58.98 133.95 59.96 129.60 60.00 129.00
C 58.81 128.70 56.84 127.20 55.00 128.00
C 54.10 124.96 56.02 123.27 59.00 124.00
C 58.93 123.90 60.30 119.93 60.00 119.00
C 59.05 117.80 51.35 114.57 50.00 118.00 Z"/>
</g>
<g fill="None" fill-opacity="0.0" stroke="#D8D7D3" stroke-opacity="1.00" stroke-width="0.3"><path d="
M 73.00 134.00 
C 73.00 136.96 73.27 140.06 73.00 143.00
C 73.41 148.50 82.91 146.41 85.00 143.00
C 85.08 142.73 84.13 142.27 84.00 142.00
C 73.80 148.05 76.76 139.13 75.00 133.00 C 73.24 126.87 77.01 115.79 82.67 119.33 C 88.33 122.87 84.36 133.79 85.00 139.00
C 85.10 139.82 85.95 140.67 86.00 141.00
C 86.28 139.09 86.00 136.93 86.00 135.00
C 86.00 131.04 86.30 126.95 86.00 123.00
C 84.88 117.08 80.73 114.75 75.75 118.75 C 70.78 122.76 73.00 128.77 73.00 134.00 Z"/>
</g>
<g fill="None" fill-opacity="0.0" stroke="#DBDAD7" stroke-opacity="1.00" stroke-width="0.3"><path d="
M 89.00 119.00 
C 88.54 120.69 89.79 121.06 90.00 122.00
C 90.30 120.88 90.34 119.17 92.00 119.00
C 93.73 122.55 94.27 126.44 96.00 130.00
C 100.46 129.07 96.12 121.90 99.00 119.00
C 100.07 125.79 101.89 137.04 98.00 143.00
C 96.63 139.33 95.17 135.73 94.00 132.00
C 88.73 132.86 95.31 143.13 90.00 144.00
C 88.25 143.43 88.54 137.30 89.00 135.00 C 89.46 132.70 88.12 126.79 88.00 125.00
C 87.92 127.99 88.00 131.00 88.00 134.00
C 88.00 138.00 88.00 142.00 88.00 146.00
C 89.67 146.00 91.33 146.00 93.00 146.00
C 93.47 143.48 91.97 139.77 94.00 138.00
C 98.85 153.12 102.00 137.24 102.00 129.00
C 102.00 125.00 102.00 121.00 102.00 117.00
C 100.72 116.38 98.03 117.18 97.00 118.00
C 96.01 119.12 97.75 122.66 97.00 124.00
C 95.99 123.45 95.56 122.02 95.00 121.00
C 95.43 119.40 93.63 118.54 94.00 117.00
C 92.60 116.91 89.43 117.41 89.00 119.00 Z"/>
</g>
<g fill="None" fill-opacity="0.0" stroke="#4D4A4A" stroke-opacity="1.00" stroke-width="0.3"><path d="
M 102.00 129.00 
C 102.00 129.00 102.88 129.21 103.00 129.00
C 103.19 127.14 103.63 124.94 104.00 123.00
C 103.98 122.47 102.77 117.37 102.00 117.00
C 102.00 121.00 102.00 125.00 102.00 129.00 Z"/>
</g>
<g fill="None" fill-opacity="0.0" stroke="#D3D2CE" stroke-opacity="1.00" stroke-width="0.3"><path d="
M 104.00 123.00 
C 103.63 124.94 103.19 127.14 103.00 129.00
C 103.00 134.67 103.00 140.33 103.00 146.00
C 109.44 148.04 108.67 142.72 110.00 139.00
C 110.45 148.70 117.68 144.07 117.01 137.01 C 116.34 129.95 119.55 124.25 118.00 117.00
C 114.03 116.21 110.68 118.85 112.00 123.00
C 110.01 116.26 105.49 115.26 104.00 123.00
M 108.00 119.00 
C 109.18 122.62 109.92 127.00 112.00 130.00
C 115.85 127.67 112.34 121.67 115.00 119.00
C 117.39 126.22 115.56 135.34 115.00 143.00
C 110.72 141.77 111.80 135.19 109.00 132.00
C 104.43 134.17 109.12 141.16 106.00 144.00
C 105.44 137.15 101.99 123.40 108.00 119.00 Z"/>
</g>
<g fill="None" fill-opacity="0.0" stroke="#D3D1CE" stroke-opacity="1.00" stroke-width="0.3"><path d="
M 131.00 117.00 
C 127.33 117.00 123.67 117.00 120.00 117.00
C 119.12 126.54 118.72 136.17 119.00 146.00
C 126.68 150.50 135.85 136.22 125.00 139.00
C 124.00 135.60 126.92 133.58 130.00 134.00
C 131.30 129.15 128.60 127.78 125.00 127.00
C 126.83 122.90 133.40 123.69 131.00 117.00
M 129.00 119.00 
C 129.89 123.99 124.89 120.12 123.25 124.25 C 121.61 128.37 124.53 130.53 128.00 131.00
C 121.96 132.40 121.14 142.40 128.00 141.00
C 127.87 143.88 123.39 143.90 121.00 144.00
C 123.21 135.80 114.90 116.60 129.00 119.00 Z"/>
</g>
<g fill="None" fill-opacity="0.0" stroke="#949290" stroke-opacity="1.00" stroke-width="0.3"><path d="
M 49.00 122.00 
C 49.07 122.98 49.93 125.32 50.00 127.00
C 50.17 125.24 51.71 122.50 51.00 120.00
C 51.20 120.71 49.04 117.46 50.00 118.00
C 48.73 117.29 49.02 121.69 49.00 122.00 Z"/>
</g>
<g fill="None" fill-opacity="0.0" stroke="#2D2929" stroke-opacity="1.00" stroke-width="0.3"><path d="
M 70.00 118.00 
C 60.15 116.72 64.65 127.29 63.00 133.00 C 61.35 138.71 67.15 149.74 70.00 140.00
C 62.15 140.54 66.49 134.52 65.00 129.00 C 63.51 123.48 70.20 122.28 70.00 118.00 Z"/>
</g>
<g fill="None" fill-opacity="0.0" stroke="#7E7B7A" stroke-opacity="1.00" stroke-width="0.3"><path d="
M 95.00 121.00 
C 95.56 122.02 95.99 123.45 97.00 124.00
C 97.75 122.66 96.01 119.12 97.00 118.00
C 96.40 118.48 95.07 120.43 95.00 121.00 Z"/>
</g>
<g fill="None" fill-opacity="0.0" stroke="#353132" stroke-opacity="1.00" stroke-width="0.3"><path d="
M 165.00 119.00 
C 165.15 119.23 163.65 122.11 163.00 122.00
C 162.08 127.99 164.22 130.25 168.22 133.78 C 172.23 137.31 165.65 144.20 163.00 138.00
C 160.92 144.05 169.33 146.67 171.67 140.67 C 174.01 134.67 169.82 132.66 166.33 128.67 C 162.84 124.68 170.58 117.97 172.00 125.00
C 173.31 118.57 170.07 117.63 165.00 119.00 Z"/>
</g>
<g fill="None" fill-opacity="0.0" stroke="#332F2F" stroke-opacity="1.00" stroke-width="0.3"><path d="
M 51.00 120.00 
C 51.71 122.50 50.17 125.24 50.00 127.00
C 50.00 132.67 50.00 138.33 50.00 144.00
C 52.93 143.95 58.75 144.17 58.00 140.00
C 50.29 144.00 52.21 131.63 58.00 131.00
C 53.74 130.32 51.86 128.03 53.00 123.00
C 54.87 121.46 59.15 122.81 58.00 119.00
C 56.13 117.78 52.03 120.20 51.00 120.00 Z"/>
</g>
<g fill="None" fill-opacity="0.0" stroke="#63605F" stroke-opacity="1.00" stroke-width="0.3"><path d="
M 59.00 124.00 
C 60.13 124.17 60.47 123.86 61.00 125.00
C 61.18 124.39 61.81 124.02 62.00 123.00
C 61.99 122.52 60.43 119.54 60.00 119.00
C 60.30 119.93 58.93 123.90 59.00 124.00 Z"/>
</g>
<g fill="None" fill-opacity="0.0" stroke="#2C2829" stroke-opacity="1.00" stroke-width="0.3"><path d="
M 84.00 142.00 
C 83.24 140.46 84.83 139.80 85.00 139.00
C 84.36 133.79 88.33 122.87 82.67 119.33 C 77.01 115.79 73.24 126.87 75.00 133.00 C 76.76 139.13 73.80 148.05 84.00 142.00
M 81.00 123.00 
C 84.21 124.80 82.58 141.61 78.32 139.66 C 74.07 137.71 77.02 120.76 81.00 123.00 Z"/>
</g>
<g fill="None" fill-opacity="0.0" stroke="#959391" stroke-opacity="1.00" stroke-width="0.3"><path d="
M 88.00 125.00 
C 88.12 126.79 89.46 132.70 89.00 135.00 C 88.54 137.30 88.25 143.43 90.00 144.00
C 88.85 136.92 91.54 128.99 90.00 122.00
C 89.79 121.06 88.54 120.69 89.00 119.00
C 87.70 120.80 88.07 122.57 88.00 125.00 Z"/>
</g>
<g fill="None" fill-opacity="0.0" stroke="#292526" stroke-opacity="1.00" stroke-width="0.3"><path d="
M 90.00 122.00 
C 91.54 128.99 88.85 136.92 90.00 144.00
C 95.31 143.13 88.73 132.86 94.00 132.00
C 95.17 135.73 96.63 139.33 98.00 143.00
C 101.89 137.04 100.07 125.79 99.00 119.00
C 96.12 121.90 100.46 129.07 96.00 130.00
C 94.27 126.44 93.73 122.55 92.00 119.00
C 90.34 119.17 90.30 120.88 90.00 122.00 Z"/>
</g>
<g fill="None" fill-opacity="0.0" stroke="#2F2B2C" stroke-opacity="1.00" stroke-width="0.3"><path d="
M 108.00 119.00 
C 101.99 123.40 105.44 137.15 106.00 144.00
C 109.12 141.16 104.43 134.17 109.00 132.00
C 111.80 135.19 110.72 141.77 115.00 143.00
C 115.56 135.34 117.39 126.22 115.00 119.00
C 112.34 121.67 115.85 127.67 112.00 130.00
C 109.92 127.00 109.18 122.62 108.00 119.00 Z"/>
</g>
<g fill="None" fill-opacity="0.0" stroke="#2B2728" stroke-opacity="1.00" stroke-width="0.3"><path d="
M 129.00 119.00 
C 114.90 116.60 123.21 135.80 121.00 144.00
C 123.39 143.90 127.87 143.88 128.00 141.00
C 121.14 142.40 121.96 132.40 128.00 131.00
C 124.53 130.53 121.61 128.37 123.25 124.25 C 124.89 120.12 129.89 123.99 129.00 119.00 Z"/>
</g>
<g fill="None" fill-opacity="0.0" stroke="#302C2D" stroke-opacity="1.00" stroke-width="0.3"><path d="
M 139.00 125.00 
C 135.71 124.37 137.25 118.84 134.00 119.00
C 136.07 127.08 134.81 135.97 134.00 144.00
C 136.23 141.77 135.79 137.27 138.00 135.00
C 140.23 137.23 139.79 141.73 142.00 144.00
C 143.48 135.57 137.44 127.09 144.00 119.00
C 139.99 118.12 141.00 122.95 139.00 125.00 Z"/>
</g>
<g fill="None" fill-opacity="0.0" stroke="#2A2627" stroke-opacity="1.00" stroke-width="0.3"><path d="
M 156.00 121.00 
C 154.59 125.60 158.44 134.56 155.00 138.00
C 154.50 139.76 152.28 138.72 151.00 139.00
C 150.69 138.15 151.39 136.81 151.00 136.00
C 149.20 132.29 151.00 128.36 151.00 125.00
C 150.73 123.33 151.92 119.48 149.00 120.00
C 147.73 126.72 148.62 129.64 148.00 137.00 C 147.38 144.36 153.25 141.59 158.00 143.00
C 157.66 142.74 158.00 139.51 158.00 139.00
C 158.00 132.33 158.00 125.67 158.00 119.00
C 156.13 118.64 156.35 119.86 156.00 121.00 Z"/>
</g>
<g fill="None" fill-opacity="0.0" stroke="#94918F" stroke-opacity="1.00" stroke-width="0.3"><path d="
M 162.00 121.00 
C 162.11 121.26 162.98 121.66 163.00 122.00
C 163.65 122.11 165.15 119.23 165.00 119.00
C 165.06 118.98 162.05 119.57 163.00 119.00
C 162.19 120.03 162.19 119.44 162.00 121.00 Z"/>
</g>
<g fill="None" fill-opacity="0.0" stroke="#373434" stroke-opacity="1.00" stroke-width="0.3"><path d="
M 153.00 129.00 
C 153.26 128.75 154.00 129.00 154.00 129.00
C 153.50 126.15 155.08 122.10 153.00 120.00
C 153.20 122.98 152.73 126.02 153.00 129.00 Z"/>
</g>
<g fill="None" fill-opacity="0.0" stroke="#8B8886" stroke-opacity="1.00" stroke-width="0.3"><path d="
M 155.00 138.00 
C 158.44 134.56 154.59 125.60 156.00 121.00
C 153.43 125.38 157.63 133.85 155.00 138.00 Z"/>
</g>
<g fill="None" fill-opacity="0.0" stroke="#D3D2CF" stroke-opacity="1.00" stroke-width="0.3"><path d="
M 81.00 123.00 
C 77.02 120.76 74.07 137.71 78.32 139.66 C 82.58 141.61 84.21 124.80 81.00 123.00
M 80.00 126.00 
C 80.00 130.00 80.00 134.00 80.00 138.00
C 78.43 135.06 78.29 128.87 80.00 126.00 Z"/>
</g>
<g fill="None" fill-opacity="0.0" stroke="#787574" stroke-opacity="1.00" stroke-width="0.3"><path d="
M 86.00 135.00 
C 86.14 136.40 86.63 145.13 88.00 146.00
C 88.00 142.00 88.00 138.00 88.00 134.00
C 87.73 131.16 86.55 125.90 86.00 123.00
C 86.30 126.95 86.00 131.04 86.00 135.00 Z"/>
</g>
<g fill="None" fill-opacity="0.0" stroke="#262223" stroke-opacity="1.00" stroke-width="0.3"><path d="
M 60.00 129.00 
C 60.47 129.12 61.00 129.00 61.00 129.00
C 61.00 127.85 60.67 126.10 61.00 125.00
C 60.47 123.86 60.13 124.17 59.00 124.00
C 56.02 123.27 54.10 124.96 55.00 128.00
C 56.84 127.20 58.81 128.70 60.00 129.00 Z"/>
</g>
<g fill="None" fill-opacity="0.0" stroke="#797675" stroke-opacity="1.00" stroke-width="0.3"><path d="
M 151.00 136.00 
C 150.01 132.78 151.34 128.37 151.00 125.00
C 151.00 128.36 149.20 132.29 151.00 136.00 Z"/>
</g>
<g fill="None" fill-opacity="0.0" stroke="#3C3839" stroke-opacity="1.00" stroke-width="0.3"><path d="
M 80.00 126.00 
C 78.29 128.87 78.43 135.06 80.00 138.00
C 80.00 134.00 80.00 130.00 80.00 126.00 Z"/>
</g>
<g fill="None" fill-opacity="0.0" stroke="#4F4C4C" stroke-opacity="1.00" stroke-width="0.3"><path d="
M 59.00 134.00 
C 59.33 134.05 60.87 134.67 61.00 135.00
C 60.94 133.00 61.00 131.00 61.00 129.00
C 61.00 129.00 60.47 129.12 60.00 129.00
C 59.96 129.60 58.98 133.95 59.00 134.00 Z"/>
</g>
<g fill="None" fill-opacity="0.0" stroke="#686665" stroke-opacity="1.00" stroke-width="0.3"><path d="
M 152.00 137.00 
C 152.52 136.30 153.89 133.72 154.00 133.00
C 154.06 131.67 154.00 130.33 154.00 129.00
C 154.00 129.00 153.26 128.75 153.00 129.00
C 151.82 130.14 151.15 135.21 152.00 137.00 Z"/>
</g>
<g fill="None" fill-opacity="0.0" stroke="#A9A7A5" stroke-opacity="1.00" stroke-width="0.3"><path d="
M 158.00 139.00 
C 158.00 139.51 157.66 142.74 158.00 143.00
C 158.46 143.14 159.92 143.19 160.00 143.00
C 161.43 139.78 160.00 132.58 160.00 129.00
C 159.76 131.49 158.35 136.44 158.00 139.00 Z"/>
</g>
<g fill="None" fill-opacity="0.0" stroke="#7C7978" stroke-opacity="1.00" stroke-width="0.3"><path d="
M 173.00 138.00 
C 173.40 135.66 174.23 134.58 173.00 132.00
C 173.44 133.64 173.10 136.30 173.00 138.00 Z"/>
</g>
<g fill="None" fill-opacity="0.0" stroke="#979594" stroke-opacity="1.00" stroke-width="0.3"><path d="
M 152.00 137.00 
C 153.33 139.81 153.97 133.65 154.00 133.00
C 153.89 133.72 152.52 136.30 152.00 137.00 Z"/>
</g>
<g fill="None" fill-opacity="0.0" stroke="#4F4C4C" stroke-opacity="1.00" stroke-width="0.3"><path d="
M 71.00 138.00 
C 71.00 138.00 71.00 138.50 71.00 139.00
C 72.24 140.21 71.79 141.24 72.00 143.00
C 72.00 143.00 73.00 142.96 73.00 143.00
C 73.27 140.06 73.00 136.96 73.00 134.00
C 72.84 134.83 71.45 137.17 71.00 138.00 Z"/>
</g>
<g fill="None" fill-opacity="0.0" stroke="#9C9A98" stroke-opacity="1.00" stroke-width="0.3"><path d="
M 167.00 136.00 
C 167.00 136.00 166.47 136.11 166.00 136.00
C 166.00 137.00 166.00 138.00 166.00 139.00
C 168.85 139.21 167.66 137.18 167.00 136.00 Z"/>
</g>
<g fill="None" fill-opacity="0.0" stroke="#7C7978" stroke-opacity="1.00" stroke-width="0.3"><path d="
M 71.00 144.00 
C 71.23 143.74 71.74 143.12 72.00 143.00
C 71.79 141.24 72.24 140.21 71.00 139.00
C 71.00 139.69 70.55 143.63 71.00 144.00 Z"/>
</g>
<g fill="None" fill-opacity="0.0" stroke="#8C8988" stroke-opacity="1.00" stroke-width="0.3"><path d="
M 84.00 142.00 
C 84.13 142.27 85.08 142.73 85.00 143.00
C 85.66 141.93 85.77 142.56 86.00 141.00
C 85.95 140.67 85.10 139.82 85.00 139.00
C 84.83 139.80 83.24 140.46 84.00 142.00 Z"/>
</g>
<g fill="#F6F5F1" fill-opacity="1.00" stroke="None">
<path d="
M 0.00 205.00 
L 248.00 205.00
L 248.00 0.00
L 0.00 0.00
L 0.00 205.00
M 115.00 1.00 
C 157.31 5.09 185.30 31.62 201.92 70.08 C 218.55 108.53 202.38 156.31 167.25 178.25 C 132.13 200.20 80.03 207.84 48.25 177.75 C 16.47 147.66 7.71 101.99 17.99 60.99 C 28.28 19.99 74.34 -2.94 115.00 1.00 Z"/>
</g>
<g fill="#231F20" fill-opacity="1.00" stroke="None">
<path d="
M 115.00 1.00 
C 74.34 -2.94 28.28 19.99 17.99 60.99 C 7.71 101.99 16.47 147.66 48.25 177.75 C 80.03 207.84 132.13 200.20 167.25 178.25 C 202.38 156.31 218.55 108.53 201.92 70.08 C 185.30 31.62 157.31 5.09 115.00 1.00
M 132.00 62.00 
C 132.61 63.92 132.35 66.82 133.00 69.00
C 137.63 79.86 134.87 87.71 127.68 96.68 C 120.49 105.65 105.79 103.01 95.32 101.68 C 84.85 100.34 80.93 81.09 94.00 79.00
C 87.32 70.54 88.85 55.12 101.01 54.01 C 113.17 52.90 126.27 50.31 132.00 62.00
M 71.00 138.00 
C 71.45 137.17 72.84 134.83 73.00 134.00
C 73.00 128.77 70.78 122.76 75.75 118.75 C 80.73 114.75 84.88 117.08 86.00 123.00
C 86.55 125.90 87.73 131.16 88.00 134.00
C 88.00 131.00 87.92 127.99 88.00 125.00
C 88.07 122.57 87.70 120.80 89.00 119.00
C 89.43 117.41 92.60 116.91 94.00 117.00
C 93.63 118.54 95.43 119.40 95.00 121.00
C 95.07 120.43 96.40 118.48 97.00 118.00
C 98.03 117.18 100.72 116.38 102.00 117.00
C 102.77 117.37 103.98 122.47 104.00 123.00
C 105.49 115.26 110.01 116.26 112.00 123.00
C 110.68 118.85 114.03 116.21 118.00 117.00
C 119.55 124.25 116.34 129.95 117.01 137.01 C 117.68 144.07 110.45 148.70 110.00 139.00
C 108.67 142.72 109.44 148.04 103.00 146.00
C 103.00 140.33 103.00 134.67 103.00 129.00
C 102.88 129.21 102.00 129.00 102.00 129.00
C 102.00 137.24 98.85 153.12 94.00 138.00
C 91.97 139.77 93.47 143.48 93.00 146.00
C 91.33 146.00 89.67 146.00 88.00 146.00
C 86.63 145.13 86.14 136.40 86.00 135.00
C 86.00 136.93 86.28 139.09 86.00 141.00
C 85.77 142.56 85.66 141.93 85.00 143.00
C 82.91 146.41 73.41 148.50 73.00 143.00
C 73.00 142.96 72.00 143.00 72.00 143.00
C 71.74 143.12 71.23 143.74 71.00 144.00
C 63.88 152.03 61.15 140.35 61.00 135.00
C 60.87 134.67 59.33 134.05 59.00 134.00
C 56.22 133.59 54.17 136.35 55.00 139.00
C 59.51 135.50 59.32 142.02 59.00 145.00
C 55.44 145.62 51.84 146.40 48.00 146.00
C 47.32 137.75 49.68 130.26 49.00 122.00
C 49.02 121.69 48.73 117.29 50.00 118.00
C 51.35 114.57 59.05 117.80 60.00 119.00
C 60.43 119.54 61.99 122.52 62.00 123.00
C 63.02 117.66 65.76 114.50 72.00 116.00
C 71.44 118.52 73.19 122.30 71.00 124.00
C 64.77 122.25 67.60 133.84 67.00 138.00
C 68.33 138.00 69.67 138.00 71.00 138.00
M 138.00 120.00 
C 140.61 113.97 147.93 116.97 144.69 122.69 C 141.46 128.42 142.00 132.57 144.33 138.67 C 146.66 144.78 136.95 149.27 138.00 140.00
C 137.39 147.65 129.97 146.26 131.33 140.33 C 132.69 134.39 136.46 130.37 133.02 124.98 C 129.59 119.59 137.27 112.67 138.00 120.00
M 160.00 129.00 
C 160.00 132.58 161.43 139.78 160.00 143.00
C 160.34 147.12 148.90 144.45 147.00 145.00
C 144.47 137.59 146.99 131.67 146.99 123.99 C 147.00 116.31 154.20 118.79 160.00 116.00
C 160.00 120.33 160.00 124.67 160.00 129.00
M 173.00 132.00 
C 174.23 134.58 173.40 135.66 173.00 138.00
C 172.36 149.13 157.29 148.23 161.00 136.00
C 162.67 136.00 164.33 136.00 166.00 136.00
C 166.47 136.11 167.00 136.00 167.00 136.00
C 163.45 130.39 160.99 129.22 162.00 121.00
C 162.19 119.44 162.19 120.03 163.00 119.00
C 165.32 116.06 169.22 115.77 173.00 116.00
C 176.09 120.72 172.32 131.86 168.00 124.00
C 166.02 128.97 172.62 128.54 173.00 132.00
M 131.00 117.00 
C 133.40 123.69 126.83 122.90 125.00 127.00
C 128.60 127.78 131.30 129.15 130.00 134.00
C 126.92 133.58 124.00 135.60 125.00 139.00
C 135.85 136.22 126.68 150.50 119.00 146.00
C 118.72 136.17 119.12 126.54 120.00 117.00
C 123.67 117.00 127.33 117.00 131.00 117.00 Z"/>
</g>
<g fill="#E4E3DF" fill-opacity="1.00" stroke="None">
<path d="
M 133.00 69.00 
C 132.06 66.80 132.54 64.59 132.00 62.00
C 126.27 50.31 113.17 52.90 101.01 54.01 C 88.85 55.12 87.32 70.54 94.00 79.00
C 80.93 81.09 84.85 100.34 95.32 101.68 C 105.79 103.01 120.49 105.65 127.68 96.68 C 134.87 87.71 137.63 79.86 133.00 69.00
M 116.00 55.00 
C 119.86 55.47 132.68 58.69 128.24 64.25 C 123.81 69.80 112.48 68.42 107.00 69.00 C 101.52 69.58 89.64 63.94 94.26 59.26 C 98.87 54.58 109.82 54.25 116.00 55.00
M 94.00 72.00 
C 88.87 68.62 95.70 64.67 94.00 72.00
M 96.00 68.00 
C 99.99 74.78 92.23 73.72 96.00 68.00
M 127.00 73.00 
C 125.99 75.51 123.95 70.82 126.00 69.00
C 126.23 67.09 127.46 71.87 127.00 73.00
M 99.00 75.00 
C 97.61 74.26 97.35 70.68 99.00 70.00
C 100.39 70.74 100.65 74.32 99.00 75.00
M 103.00 71.00 
C 103.41 72.32 103.37 75.40 102.00 76.00
C 99.10 75.61 101.93 67.56 103.00 71.00
M 123.00 75.00 
C 121.61 74.26 121.35 70.68 123.00 70.00
C 124.39 70.74 124.65 74.32 123.00 75.00
M 106.00 76.00 
C 104.61 75.26 104.35 71.68 106.00 71.00
C 107.39 71.74 107.65 75.32 106.00 76.00
M 110.00 77.00 
C 107.06 77.80 106.95 70.17 110.00 71.00
C 111.54 71.42 111.63 76.55 110.00 77.00
M 114.00 71.00 
C 116.06 80.37 108.29 74.12 114.00 71.00
M 117.00 76.00 
C 115.61 75.26 115.35 71.68 117.00 71.00
C 118.39 71.74 118.65 75.32 117.00 76.00
M 121.00 71.00 
C 122.86 79.20 115.46 73.13 121.00 71.00
M 120.00 81.00 
C 116.87 81.51 114.05 81.44 111.00 81.00
C 107.10 80.85 103.46 80.73 100.00 79.00
C 110.34 79.20 123.76 79.97 133.00 73.00
C 134.66 79.00 124.79 81.07 120.00 81.00
M 97.00 79.00 
C 100.99 85.78 93.23 84.72 97.00 79.00
M 134.00 79.00 
C 135.60 87.24 128.66 83.08 134.00 79.00
M 100.00 82.00 
C 101.49 83.49 100.35 87.43 100.00 86.00
C 98.51 84.51 99.65 80.57 100.00 82.00
M 131.00 81.00 
C 132.66 90.06 125.34 83.89 131.00 81.00
M 115.00 92.00 
C 108.37 95.39 81.16 91.47 93.00 82.00
C 96.28 90.53 106.68 92.11 115.00 92.00
M 103.00 82.00 
C 106.91 89.00 98.97 88.03 103.00 82.00
M 127.00 87.00 
C 126.77 88.91 125.54 84.13 126.00 83.00
C 127.01 80.49 129.05 85.18 127.00 87.00
M 107.00 89.00 
C 101.62 84.64 108.93 80.51 107.00 89.00
M 110.00 89.00 
C 109.74 89.25 109.00 89.00 109.00 89.00
C 107.42 87.46 107.82 84.85 109.00 83.00
C 111.40 83.61 111.88 87.85 110.00 89.00
M 121.00 84.00 
C 121.39 85.34 121.39 88.39 120.00 89.00
C 116.97 88.64 120.26 81.48 121.00 84.00
M 124.00 83.00 
C 125.26 90.32 121.06 87.99 124.00 83.00
M 114.00 84.00 
C 115.86 92.20 108.46 86.13 114.00 84.00
M 118.00 84.00 
C 119.86 92.20 112.46 86.13 118.00 84.00
M 90.00 96.00 
C 84.87 92.62 91.70 88.67 90.00 96.00
M 123.00 93.00 
C 123.39 94.34 123.39 97.39 122.00 98.00
C 118.97 97.64 122.26 90.48 123.00 93.00
M 93.00 98.00 
C 87.87 94.62 94.70 90.67 93.00 98.00
M 95.00 99.00 
C 93.61 98.26 93.35 94.68 95.00 94.00
C 96.39 94.74 96.65 98.32 95.00 99.00
M 119.00 99.00 
C 117.61 98.26 117.35 94.68 119.00 94.00
C 120.39 94.74 120.65 98.32 119.00 99.00
M 99.00 95.00 
C 100.21 101.27 96.10 98.91 99.00 95.00
M 103.00 95.00 
C 104.86 103.20 97.46 97.13 103.00 95.00
M 106.00 101.00 
C 103.06 101.80 102.95 94.17 106.00 95.00
C 107.54 95.42 107.63 100.55 106.00 101.00
M 110.00 95.00 
C 112.06 104.37 104.29 98.12 110.00 95.00
M 112.00 100.00 
C 111.61 98.66 111.61 95.61 113.00 95.00
C 116.03 95.36 112.74 102.52 112.00 100.00
M 117.00 95.00 
C 118.86 103.20 111.46 97.13 117.00 95.00 Z"/>
</g>
<g fill="#272324" fill-opacity="1.00" stroke="None">
<path d="
M 116.00 55.00 
C 109.82 54.25 98.87 54.58 94.26 59.26 C 89.64 63.94 101.52 69.58 107.00 69.00 C 112.48 68.42 123.81 69.80 128.24 64.25 C 132.68 58.69 119.86 55.47 116.00 55.00 Z"/>
</g>
<g fill="#7D7B79" fill-opacity="1.00" stroke="None">
<path d="
M 133.00 69.00 
C 132.35 66.82 132.61 63.92 132.00 62.00
C 132.54 64.59 132.06 66.80 133.00 69.00 Z"/>
</g>
<g fill="#716D6D" fill-opacity="1.00" stroke="None">
<path d="
M 94.00 72.00 
C 95.70 64.67 88.87 68.62 94.00 72.00 Z"/>
</g>
<g fill="#504C4C" fill-opacity="1.00" stroke="None">
<path d="
M 96.00 68.00 
C 92.23 73.72 99.99 74.78 96.00 68.00 Z"/>
</g>
<g fill="#2B2728" fill-opacity="1.00" stroke="None">
<path d="
M 126.00 69.00 
C 125.85 70.23 125.53 72.53 127.00 73.00
C 127.46 71.87 126.23 67.09 126.00 69.00 Z"/>
</g>
<g fill="#8B8987" fill-opacity="1.00" stroke="None">
<path d="
M 127.00 73.00 
C 125.53 72.53 125.85 70.23 126.00 69.00
C 123.95 70.82 125.99 75.51 127.00 73.00 Z"/>
</g>
<g fill="#878583" fill-opacity="1.00" stroke="None">
<path d="
M 99.00 75.00 
C 99.00 73.33 99.00 71.67 99.00 70.00
C 97.35 70.68 97.61 74.26 99.00 75.00 Z"/>
</g>
<g fill="#231F20" fill-opacity="1.00" stroke="None">
<path d="
M 99.00 75.00 
C 100.65 74.32 100.39 70.74 99.00 70.00
C 99.00 71.67 99.00 73.33 99.00 75.00 Z"/>
</g>
<g fill="#ABAAA7" fill-opacity="1.00" stroke="None">
<path d="
M 102.00 76.00 
C 102.39 74.43 101.06 71.78 103.00 71.00
C 101.93 67.56 99.10 75.61 102.00 76.00 Z"/>
</g>
<g fill="#696665" fill-opacity="1.00" stroke="None">
<path d="
M 123.00 75.00 
C 123.00 73.33 123.00 71.67 123.00 70.00
C 121.35 70.68 121.61 74.26 123.00 75.00 Z"/>
</g>
<g fill="#353031" fill-opacity="1.00" stroke="None">
<path d="
M 123.00 75.00 
C 124.65 74.32 124.39 70.74 123.00 70.00
C 123.00 71.67 123.00 73.33 123.00 75.00 Z"/>
</g>
<g fill="#231F20" fill-opacity="1.00" stroke="None">
<path d="
M 102.00 76.00 
C 103.37 75.40 103.41 72.32 103.00 71.00
C 101.06 71.78 102.39 74.43 102.00 76.00 Z"/>
</g>
<g fill="#231F20" fill-opacity="1.00" stroke="None">
<path d="
M 106.00 76.00 
C 106.00 74.33 106.00 72.67 106.00 71.00
C 104.35 71.68 104.61 75.26 106.00 76.00 Z"/>
</g>
<g fill="#666262" fill-opacity="1.00" stroke="None">
<path d="
M 106.00 76.00 
C 107.65 75.32 107.39 71.74 106.00 71.00
C 106.00 72.67 106.00 74.33 106.00 76.00 Z"/>
</g>
<g fill="#4D4A4A" fill-opacity="1.00" stroke="None">
<path d="
M 110.00 77.00 
C 110.00 75.00 110.00 73.00 110.00 71.00
C 106.95 70.17 107.06 77.80 110.00 77.00 Z"/>
</g>
<g fill="#A9A7A5" fill-opacity="1.00" stroke="None">
<path d="
M 110.00 77.00 
C 111.63 76.55 111.54 71.42 110.00 71.00
C 110.00 73.00 110.00 75.00 110.00 77.00 Z"/>
</g>
<g fill="#333030" fill-opacity="1.00" stroke="None">
<path d="
M 114.00 71.00 
C 108.29 74.12 116.06 80.37 114.00 71.00 Z"/>
</g>
<g fill="#231F20" fill-opacity="1.00" stroke="None">
<path d="
M 117.00 76.00 
C 117.00 74.33 117.00 72.67 117.00 71.00
C 115.35 71.68 115.61 75.26 117.00 76.00 Z"/>
</g>
<g fill="#817D7D" fill-opacity="1.00" stroke="None">
<path d="
M 117.00 76.00 
C 118.65 75.32 118.39 71.74 117.00 71.00
C 117.00 72.67 117.00 74.33 117.00 76.00 Z"/>
</g>
<g fill="#504D4D" fill-opacity="1.00" stroke="None">
<path d="
M 121.00 71.00 
C 115.46 73.13 122.86 79.20 121.00 71.00 Z"/>
</g>
<g fill="#302C2D" fill-opacity="1.00" stroke="None">
<path d="
M 111.00 81.00 
C 113.96 81.11 117.05 81.16 120.00 81.00
C 124.79 81.07 134.66 79.00 133.00 73.00
C 123.76 79.97 110.34 79.20 100.00 79.00
C 103.46 80.73 107.10 80.85 111.00 81.00 Z"/>
</g>
<g fill="#757272" fill-opacity="1.00" stroke="None">
<path d="
M 97.00 79.00 
C 93.23 84.72 100.99 85.78 97.00 79.00 Z"/>
</g>
<g fill="#787675" fill-opacity="1.00" stroke="None">
<path d="
M 134.00 79.00 
C 128.66 83.08 135.60 87.24 134.00 79.00 Z"/>
</g>
<g fill="#231F20" fill-opacity="1.00" stroke="None">
<path d="
M 100.00 86.00 
C 99.69 84.74 100.31 83.26 100.00 82.00
C 99.65 80.57 98.51 84.51 100.00 86.00 Z"/>
</g>
<g fill="#8F8D8C" fill-opacity="1.00" stroke="None">
<path d="
M 120.00 81.00 
C 117.05 81.16 113.96 81.11 111.00 81.00
C 114.05 81.44 116.87 81.51 120.00 81.00 Z"/>
</g>
<g fill="#565352" fill-opacity="1.00" stroke="None">
<path d="
M 131.00 81.00 
C 125.34 83.89 132.66 90.06 131.00 81.00 Z"/>
</g>
<g fill="#322E2F" fill-opacity="1.00" stroke="None">
<path d="
M 115.00 92.00 
C 106.68 92.11 96.28 90.53 93.00 82.00
C 81.16 91.47 108.37 95.39 115.00 92.00 Z"/>
</g>
<g fill="#7E7B7A" fill-opacity="1.00" stroke="None">
<path d="
M 100.00 86.00 
C 100.35 87.43 101.49 83.49 100.00 82.00
C 100.31 83.26 99.69 84.74 100.00 86.00 Z"/>
</g>
<g fill="#575353" fill-opacity="1.00" stroke="None">
<path d="
M 103.00 82.00 
C 98.97 88.03 106.91 89.00 103.00 82.00 Z"/>
</g>
<g fill="#706C6C" fill-opacity="1.00" stroke="None">
<path d="
M 126.00 83.00 
C 127.30 83.50 127.14 85.80 127.00 87.00
C 129.05 85.18 127.01 80.49 126.00 83.00 Z"/>
</g>
<g fill="#53504F" fill-opacity="1.00" stroke="None">
<path d="
M 107.00 89.00 
C 108.93 80.51 101.62 84.64 107.00 89.00 Z"/>
</g>
<g fill="#9A9897" fill-opacity="1.00" stroke="None">
<path d="
M 109.00 89.00 
C 108.82 87.35 109.13 85.65 109.00 84.00
C 110.75 84.83 109.66 87.44 110.00 89.00
C 111.88 87.85 111.40 83.61 109.00 83.00
C 107.82 84.85 107.42 87.46 109.00 89.00 Z"/>
</g>
<g fill="#807E7C" fill-opacity="1.00" stroke="None">
<path d="
M 120.00 89.00 
C 120.39 87.43 119.06 84.78 121.00 84.00
C 120.26 81.48 116.97 88.64 120.00 89.00 Z"/>
</g>
<g fill="#333030" fill-opacity="1.00" stroke="None">
<path d="
M 124.00 83.00 
C 121.06 87.99 125.26 90.32 124.00 83.00 Z"/>
</g>
<g fill="#332F2F" fill-opacity="1.00" stroke="None">
<path d="
M 127.00 87.00 
C 127.14 85.80 127.30 83.50 126.00 83.00
C 125.54 84.13 126.77 88.91 127.00 87.00 Z"/>
</g>
<g fill="#231F20" fill-opacity="1.00" stroke="None">
<path d="
M 109.00 89.00 
C 109.00 89.00 109.74 89.25 110.00 89.00
C 109.66 87.44 110.75 84.83 109.00 84.00
C 109.13 85.65 108.82 87.35 109.00 89.00 Z"/>
</g>
<g fill="#231F20" fill-opacity="1.00" stroke="None">
<path d="
M 114.00 84.00 
C 108.46 86.13 115.86 92.20 114.00 84.00 Z"/>
</g>
<g fill="#343131" fill-opacity="1.00" stroke="None">
<path d="
M 118.00 84.00 
C 112.46 86.13 119.86 92.20 118.00 84.00 Z"/>
</g>
<g fill="#231F20" fill-opacity="1.00" stroke="None">
<path d="
M 120.00 89.00 
C 121.39 88.39 121.39 85.34 121.00 84.00
C 119.06 84.78 120.39 87.43 120.00 89.00 Z"/>
</g>
<g fill="#726F6E" fill-opacity="1.00" stroke="None">
<path d="
M 90.00 96.00 
C 91.70 88.67 84.87 92.62 90.00 96.00 Z"/>
</g>
<g fill="#92908F" fill-opacity="1.00" stroke="None">
<path d="
M 122.00 98.00 
C 122.39 96.43 121.06 93.78 123.00 93.00
C 122.26 90.48 118.97 97.64 122.00 98.00 Z"/>
</g>
<g fill="#4A4747" fill-opacity="1.00" stroke="None">
<path d="
M 93.00 98.00 
C 94.70 90.67 87.87 94.62 93.00 98.00 Z"/>
</g>
<g fill="#282425" fill-opacity="1.00" stroke="None">
<path d="
M 122.00 98.00 
C 123.39 97.39 123.39 94.34 123.00 93.00
C 121.06 93.78 122.39 96.43 122.00 98.00 Z"/>
</g>
<g fill="#888584" fill-opacity="1.00" stroke="None">
<path d="
M 95.00 99.00 
C 95.00 97.33 95.00 95.67 95.00 94.00
C 93.35 94.68 93.61 98.26 95.00 99.00 Z"/>
</g>
<g fill="#231F20" fill-opacity="1.00" stroke="None">
<path d="
M 95.00 99.00 
C 96.65 98.32 96.39 94.74 95.00 94.00
C 95.00 95.67 95.00 97.33 95.00 99.00 Z"/>
</g>
<g fill="#6F6D6C" fill-opacity="1.00" stroke="None">
<path d="
M 119.00 99.00 
C 119.00 97.33 119.00 95.67 119.00 94.00
C 117.35 94.68 117.61 98.26 119.00 99.00 Z"/>
</g>
<g fill="#2D2A29" fill-opacity="1.00" stroke="None">
<path d="
M 119.00 99.00 
C 120.65 98.32 120.39 94.74 119.00 94.00
C 119.00 95.67 119.00 97.33 119.00 99.00 Z"/>
</g>
<g fill="#231F20" fill-opacity="1.00" stroke="None">
<path d="
M 99.00 95.00 
C 96.10 98.91 100.21 101.27 99.00 95.00 Z"/>
</g>
<g fill="#434040" fill-opacity="1.00" stroke="None">
<path d="
M 103.00 95.00 
C 97.46 97.13 104.86 103.20 103.00 95.00 Z"/>
</g>
<g fill="#4E4B4B" fill-opacity="1.00" stroke="None">
<path d="
M 106.00 101.00 
C 106.00 99.00 106.00 97.00 106.00 95.00
C 102.95 94.17 103.06 101.80 106.00 101.00 Z"/>
</g>
<g fill="#A2A09E" fill-opacity="1.00" stroke="None">
<path d="
M 106.00 101.00 
C 107.63 100.55 107.54 95.42 106.00 95.00
C 106.00 97.00 106.00 99.00 106.00 101.00 Z"/>
</g>
<g fill="#312D2E" fill-opacity="1.00" stroke="None">
<path d="
M 110.00 95.00 
C 104.29 98.12 112.06 104.37 110.00 95.00 Z"/>
</g>
<g fill="#252121" fill-opacity="1.00" stroke="None">
<path d="
M 112.00 100.00 
C 113.75 99.17 112.66 96.56 113.00 95.00
C 111.61 95.61 111.61 98.66 112.00 100.00 Z"/>
</g>
<g fill="#7C7978" fill-opacity="1.00" stroke="None">
<path d="
M 112.00 100.00 
C 112.74 102.52 116.03 95.36 113.00 95.00
C 112.66 96.56 113.75 99.17 112.00 100.00 Z"/>
</g>
<g fill="#4E4B4A" fill-opacity="1.00" stroke="None">
<path d="
M 117.00 95.00 
C 111.46 97.13 118.86 103.20 117.00 95.00 Z"/>
</g>
<g fill="#CFCECB" fill-opacity="1.00" stroke="None">
<path d="
M 62.00 123.00 
C 61.81 124.02 61.18 124.39 61.00 125.00
C 60.67 126.10 61.00 127.85 61.00 129.00
C 61.00 131.00 60.94 133.00 61.00 135.00
C 61.15 140.35 63.88 152.03 71.00 144.00
C 70.55 143.63 71.00 139.69 71.00 139.00
C 71.00 138.50 71.00 138.00 71.00 138.00
C 69.67 138.00 68.33 138.00 67.00 138.00
C 67.60 133.84 64.77 122.25 71.00 124.00
C 73.19 122.30 71.44 118.52 72.00 116.00
C 65.76 114.50 63.02 117.66 62.00 123.00
M 70.00 118.00 
C 70.20 122.28 63.51 123.48 65.00 129.00 C 66.49 134.52 62.15 140.54 70.00 140.00
C 67.15 149.74 61.35 138.71 63.00 133.00 C 64.65 127.29 60.15 116.72 70.00 118.00 Z"/>
</g>
<g fill="#D3D1CE" fill-opacity="1.00" stroke="None">
<path d="
M 138.00 120.00 
C 137.27 112.67 129.59 119.59 133.02 124.98 C 136.46 130.37 132.69 134.39 131.33 140.33 C 129.97 146.26 137.39 147.65 138.00 140.00
C 136.95 149.27 146.66 144.78 144.33 138.67 C 142.00 132.57 141.46 128.42 144.69 122.69 C 147.93 116.97 140.61 113.97 138.00 120.00
M 139.00 125.00 
C 141.00 122.95 139.99 118.12 144.00 119.00
C 137.44 127.09 143.48 135.57 142.00 144.00
C 139.79 141.73 140.23 137.23 138.00 135.00
C 135.79 137.27 136.23 141.77 134.00 144.00
C 134.81 135.97 136.07 127.08 134.00 119.00
C 137.25 118.84 135.71 124.37 139.00 125.00 Z"/>
</g>
<g fill="#D9D8D5" fill-opacity="1.00" stroke="None">
<path d="
M 160.00 143.00 
C 159.92 143.19 158.46 143.14 158.00 143.00
C 153.25 141.59 147.38 144.36 148.00 137.00 C 148.62 129.64 147.73 126.72 149.00 120.00
C 151.92 119.48 150.73 123.33 151.00 125.00
C 151.34 128.37 150.01 132.78 151.00 136.00
C 151.39 136.81 150.69 138.15 151.00 139.00
C 152.28 138.72 154.50 139.76 155.00 138.00
C 157.63 133.85 153.43 125.38 156.00 121.00
C 156.35 119.86 156.13 118.64 158.00 119.00
C 158.00 125.67 158.00 132.33 158.00 139.00
C 158.35 136.44 159.76 131.49 160.00 129.00
C 160.00 124.67 160.00 120.33 160.00 116.00
C 154.20 118.79 147.00 116.31 146.99 123.99 C 146.99 131.67 144.47 137.59 147.00 145.00
C 148.90 144.45 160.34 147.12 160.00 143.00
M 154.00 129.00 
C 154.00 130.33 154.06 131.67 154.00 133.00
C 153.97 133.65 153.33 139.81 152.00 137.00
C 151.15 135.21 151.82 130.14 153.00 129.00
C 152.73 126.02 153.20 122.98 153.00 120.00
C 155.08 122.10 153.50 126.15 154.00 129.00 Z"/>
</g>
<g fill="#DBD9D6" fill-opacity="1.00" stroke="None">
<path d="
M 163.00 119.00 
C 162.05 119.57 165.06 118.98 165.00 119.00
C 170.07 117.63 173.31 118.57 172.00 125.00
C 170.58 117.97 162.84 124.68 166.33 128.67 C 169.82 132.66 174.01 134.67 171.67 140.67 C 169.33 146.67 160.92 144.05 163.00 138.00
C 165.65 144.20 172.23 137.31 168.22 133.78 C 164.22 130.25 162.08 127.99 163.00 122.00
C 162.98 121.66 162.11 121.26 162.00 121.00
C 160.99 129.22 163.45 130.39 167.00 136.00
C 167.66 137.18 168.85 139.21 166.00 139.00
C 166.00 138.00 166.00 137.00 166.00 136.00
C 164.33 136.00 162.67 136.00 161.00 136.00
C 157.29 148.23 172.36 149.13 173.00 138.00
C 173.10 136.30 173.44 133.64 173.00 132.00
C 172.62 128.54 166.02 128.97 168.00 124.00
C 172.32 131.86 176.09 120.72 173.00 116.00
C 169.22 115.77 165.32 116.06 163.00 119.00 Z"/>
</g>
<g fill="#D9D8D5" fill-opacity="1.00" stroke="None">
<path d="
M 50.00 118.00 
C 49.04 117.46 51.20 120.71 51.00 120.00
C 52.03 120.20 56.13 117.78 58.00 119.00
C 59.15 122.81 54.87 121.46 53.00 123.00
C 51.86 128.03 53.74 130.32 58.00 131.00
C 52.21 131.63 50.29 144.00 58.00 140.00
C 58.75 144.17 52.93 143.95 50.00 144.00
C 50.00 138.33 50.00 132.67 50.00 127.00
C 49.93 125.32 49.07 122.98 49.00 122.00
C 49.68 130.26 47.32 137.75 48.00 146.00
C 51.84 146.40 55.44 145.62 59.00 145.00
C 59.32 142.02 59.51 135.50 55.00 139.00
C 54.17 136.35 56.22 133.59 59.00 134.00
C 58.98 133.95 59.96 129.60 60.00 129.00
C 58.81 128.70 56.84 127.20 55.00 128.00
C 54.10 124.96 56.02 123.27 59.00 124.00
C 58.93 123.90 60.30 119.93 60.00 119.00
C 59.05 117.80 51.35 114.57 50.00 118.00 Z"/>
</g>
<g fill="#D8D7D3" fill-opacity="1.00" stroke="None">
<path d="
M 73.00 134.00 
C 73.00 136.96 73.27 140.06 73.00 143.00
C 73.41 148.50 82.91 146.41 85.00 143.00
C 85.08 142.73 84.13 142.27 84.00 142.00
C 73.80 148.05 76.76 139.13 75.00 133.00 C 73.24 126.87 77.01 115.79 82.67 119.33 C 88.33 122.87 84.36 133.79 85.00 139.00
C 85.10 139.82 85.95 140.67 86.00 141.00
C 86.28 139.09 86.00 136.93 86.00 135.00
C 86.00 131.04 86.30 126.95 86.00 123.00
C 84.88 117.08 80.73 114.75 75.75 118.75 C 70.78 122.76 73.00 128.77 73.00 134.00 Z"/>
</g>
<g fill="#DBDAD7" fill-opacity="1.00" stroke="None">
<path d="
M 89.00 119.00 
C 88.54 120.69 89.79 121.06 90.00 122.00
C 90.30 120.88 90.34 119.17 92.00 119.00
C 93.73 122.55 94.27 126.44 96.00 130.00
C 100.46 129.07 96.12 121.90 99.00 119.00
C 100.07 125.79 101.89 137.04 98.00 143.00
C 96.63 139.33 95.17 135.73 94.00 132.00
C 88.73 132.86 95.31 143.13 90.00 144.00
C 88.25 143.43 88.54 137.30 89.00 135.00 C 89.46 132.70 88.12 126.79 88.00 125.00
C 87.92 127.99 88.00 131.00 88.00 134.00
C 88.00 138.00 88.00 142.00 88.00 146.00
C 89.67 146.00 91.33 146.00 93.00 146.00
C 93.47 143.48 91.97 139.77 94.00 138.00
C 98.85 153.12 102.00 137.24 102.00 129.00
C 102.00 125.00 102.00 121.00 102.00 117.00
C 100.72 116.38 98.03 117.18 97.00 118.00
C 96.01 119.12 97.75 122.66 97.00 124.00
C 95.99 123.45 95.56 122.02 95.00 121.00
C 95.43 119.40 93.63 118.54 94.00 117.00
C 92.60 116.91 89.43 117.41 89.00 119.00 Z"/>
</g>
<g fill="#4D4A4A" fill-opacity="1.00" stroke="None">
<path d="
M 102.00 129.00 
C 102.00 129.00 102.88 129.21 103.00 129.00
C 103.19 127.14 103.63 124.94 104.00 123.00
C 103.98 122.47 102.77 117.37 102.00 117.00
C 102.00 121.00 102.00 125.00 102.00 129.00 Z"/>
</g>
<g fill="#D3D2CE" fill-opacity="1.00" stroke="None">
<path d="
M 104.00 123.00 
C 103.63 124.94 103.19 127.14 103.00 129.00
C 103.00 134.67 103.00 140.33 103.00 146.00
C 109.44 148.04 108.67 142.72 110.00 139.00
C 110.45 148.70 117.68 144.07 117.01 137.01 C 116.34 129.95 119.55 124.25 118.00 117.00
C 114.03 116.21 110.68 118.85 112.00 123.00
C 110.01 116.26 105.49 115.26 104.00 123.00
M 108.00 119.00 
C 109.18 122.62 109.92 127.00 112.00 130.00
C 115.85 127.67 112.34 121.67 115.00 119.00
C 117.39 126.22 115.56 135.34 115.00 143.00
C 110.72 141.77 111.80 135.19 109.00 132.00
C 104.43 134.17 109.12 141.16 106.00 144.00
C 105.44 137.15 101.99 123.40 108.00 119.00 Z"/>
</g>
<g fill="#D3D1CE" fill-opacity="1.00" stroke="None">
<path d="
M 131.00 117.00 
C 127.33 117.00 123.67 117.00 120.00 117.00
C 119.12 126.54 118.72 136.17 119.00 146.00
C 126.68 150.50 135.85 136.22 125.00 139.00
C 124.00 135.60 126.92 133.58 130.00 134.00
C 131.30 129.15 128.60 127.78 125.00 127.00
C 126.83 122.90 133.40 123.69 131.00 117.00
M 129.00 119.00 
C 129.89 123.99 124.89 120.12 123.25 124.25 C 121.61 128.37 124.53 130.53 128.00 131.00
C 121.96 132.40 121.14 142.40 128.00 141.00
C 127.87 143.88 123.39 143.90 121.00 144.00
C 123.21 135.80 114.90 116.60 129.00 119.00 Z"/>
</g>
<g fill="#949290" fill-opacity="1.00" stroke="None">
<path d="
M 49.00 122.00 
C 49.07 122.98 49.93 125.32 50.00 127.00
C 50.17 125.24 51.71 122.50 51.00 120.00
C 51.20 120.71 49.04 117.46 50.00 118.00
C 48.73 117.29 49.02 121.69 49.00 122.00 Z"/>
</g>
<g fill="#2D2929" fill-opacity="1.00" stroke="None">
<path d="
M 70.00 118.00 
C 60.15 116.72 64.65 127.29 63.00 133.00 C 61.35 138.71 67.15 149.74 70.00 140.00
C 62.15 140.54 66.49 134.52 65.00 129.00 C 63.51 123.48 70.20 122.28 70.00 118.00 Z"/>
</g>
<g fill="#7E7B7A" fill-opacity="1.00" stroke="None">
<path d="
M 95.00 121.00 
C 95.56 122.02 95.99 123.45 97.00 124.00
C 97.75 122.66 96.01 119.12 97.00 118.00
C 96.40 118.48 95.07 120.43 95.00 121.00 Z"/>
</g>
<g fill="#353132" fill-opacity="1.00" stroke="None">
<path d="
M 165.00 119.00 
C 165.15 119.23 163.65 122.11 163.00 122.00
C 162.08 127.99 164.22 130.25 168.22 133.78 C 172.23 137.31 165.65 144.20 163.00 138.00
C 160.92 144.05 169.33 146.67 171.67 140.67 C 174.01 134.67 169.82 132.66 166.33 128.67 C 162.84 124.68 170.58 117.97 172.00 125.00
C 173.31 118.57 170.07 117.63 165.00 119.00 Z"/>
</g>
<g fill="#332F2F" fill-opacity="1.00" stroke="None">
<path d="
M 51.00 120.00 
C 51.71 122.50 50.17 125.24 50.00 127.00
C 50.00 132.67 50.00 138.33 50.00 144.00
C 52.93 143.95 58.75 144.17 58.00 140.00
C 50.29 144.00 52.21 131.63 58.00 131.00
C 53.74 130.32 51.86 128.03 53.00 123.00
C 54.87 121.46 59.15 122.81 58.00 119.00
C 56.13 117.78 52.03 120.20 51.00 120.00 Z"/>
</g>
<g fill="#63605F" fill-opacity="1.00" stroke="None">
<path d="
M 59.00 124.00 
C 60.13 124.17 60.47 123.86 61.00 125.00
C 61.18 124.39 61.81 124.02 62.00 123.00
C 61.99 122.52 60.43 119.54 60.00 119.00
C 60.30 119.93 58.93 123.90 59.00 124.00 Z"/>
</g>
<g fill="#2C2829" fill-opacity="1.00" stroke="None">
<path d="
M 84.00 142.00 
C 83.24 140.46 84.83 139.80 85.00 139.00
C 84.36 133.79 88.33 122.87 82.67 119.33 C 77.01 115.79 73.24 126.87 75.00 133.00 C 76.76 139.13 73.80 148.05 84.00 142.00
M 81.00 123.00 
C 84.21 124.80 82.58 141.61 78.32 139.66 C 74.07 137.71 77.02 120.76 81.00 123.00 Z"/>
</g>
<g fill="#959391" fill-opacity="1.00" stroke="None">
<path d="
M 88.00 125.00 
C 88.12 126.79 89.46 132.70 89.00 135.00 C 88.54 137.30 88.25 143.43 90.00 144.00
C 88.85 136.92 91.54 128.99 90.00 122.00
C 89.79 121.06 88.54 120.69 89.00 119.00
C 87.70 120.80 88.07 122.57 88.00 125.00 Z"/>
</g>
<g fill="#292526" fill-opacity="1.00" stroke="None">
<path d="
M 90.00 122.00 
C 91.54 128.99 88.85 136.92 90.00 144.00
C 95.31 143.13 88.73 132.86 94.00 132.00
C 95.17 135.73 96.63 139.33 98.00 143.00
C 101.89 137.04 100.07 125.79 99.00 119.00
C 96.12 121.90 100.46 129.07 96.00 130.00
C 94.27 126.44 93.73 122.55 92.00 119.00
C 90.34 119.17 90.30 120.88 90.00 122.00 Z"/>
</g>
<g fill="#2F2B2C" fill-opacity="1.00" stroke="None">
<path d="
M 108.00 119.00 
C 101.99 123.40 105.44 137.15 106.00 144.00
C 109.12 141.16 104.43 134.17 109.00 132.00
C 111.80 135.19 110.72 141.77 115.00 143.00
C 115.56 135.34 117.39 126.22 115.00 119.00
C 112.34 121.67 115.85 127.67 112.00 130.00
C 109.92 127.00 109.18 122.62 108.00 119.00 Z"/>
</g>
<g fill="#2B2728" fill-opacity="1.00" stroke="None">
<path d="
M 129.00 119.00 
C 114.90 116.60 123.21 135.80 121.00 144.00
C 123.39 143.90 127.87 143.88 128.00 141.00
C 121.14 142.40 121.96 132.40 128.00 131.00
C 124.53 130.53 121.61 128.37 123.25 124.25 C 124.89 120.12 129.89 123.99 129.00 119.00 Z"/>
</g>
<g fill="#302C2D" fill-opacity="1.00" stroke="None">
<path d="
M 139.00 125.00 
C 135.71 124.37 137.25 118.84 134.00 119.00
C 136.07 127.08 134.81 135.97 134.00 144.00
C 136.23 141.77 135.79 137.27 138.00 135.00
C 140.23 137.23 139.79 141.73 142.00 144.00
C 143.48 135.57 137.44 127.09 144.00 119.00
C 139.99 118.12 141.00 122.95 139.00 125.00 Z"/>
</g>
<g fill="#2A2627" fill-opacity="1.00" stroke="None">
<path d="
M 156.00 121.00 
C 154.59 125.60 158.44 134.56 155.00 138.00
C 154.50 139.76 152.28 138.72 151.00 139.00
C 150.69 138.15 151.39 136.81 151.00 136.00
C 149.20 132.29 151.00 128.36 151.00 125.00
C 150.73 123.33 151.92 119.48 149.00 120.00
C 147.73 126.72 148.62 129.64 148.00 137.00 C 147.38 144.36 153.25 141.59 158.00 143.00
C 157.66 142.74 158.00 139.51 158.00 139.00
C 158.00 132.33 158.00 125.67 158.00 119.00
C 156.13 118.64 156.35 119.86 156.00 121.00 Z"/>
</g>
<g fill="#94918F" fill-opacity="1.00" stroke="None">
<path d="
M 162.00 121.00 
C 162.11 121.26 162.98 121.66 163.00 122.00
C 163.65 122.11 165.15 119.23 165.00 119.00
C 165.06 118.98 162.05 119.57 163.00 119.00
C 162.19 120.03 162.19 119.44 162.00 121.00 Z"/>
</g>
<g fill="#373434" fill-opacity="1.00" stroke="None">
<path d="
M 153.00 129.00 
C 153.26 128.75 154.00 129.00 154.00 129.00
C 153.50 126.15 155.08 122.10 153.00 120.00
C 153.20 122.98 152.73 126.02 153.00 129.00 Z"/>
</g>
<g fill="#8B8886" fill-opacity="1.00" stroke="None">
<path d="
M 155.00 138.00 
C 158.44 134.56 154.59 125.60 156.00 121.00
C 153.43 125.38 157.63 133.85 155.00 138.00 Z"/>
</g>
<g fill="#D3D2CF" fill-opacity="1.00" stroke="None">
<path d="
M 81.00 123.00 
C 77.02 120.76 74.07 137.71 78.32 139.66 C 82.58 141.61 84.21 124.80 81.00 123.00
M 80.00 126.00 
C 80.00 130.00 80.00 134.00 80.00 138.00
C 78.43 135.06 78.29 128.87 80.00 126.00 Z"/>
</g>
<g fill="#787574" fill-opacity="1.00" stroke="None">
<path d="
M 86.00 135.00 
C 86.14 136.40 86.63 145.13 88.00 146.00
C 88.00 142.00 88.00 138.00 88.00 134.00
C 87.73 131.16 86.55 125.90 86.00 123.00
C 86.30 126.95 86.00 131.04 86.00 135.00 Z"/>
</g>
<g fill="#262223" fill-opacity="1.00" stroke="None">
<path d="
M 60.00 129.00 
C 60.47 129.12 61.00 129.00 61.00 129.00
C 61.00 127.85 60.67 126.10 61.00 125.00
C 60.47 123.86 60.13 124.17 59.00 124.00
C 56.02 123.27 54.10 124.96 55.00 128.00
C 56.84 127.20 58.81 128.70 60.00 129.00 Z"/>
</g>
<g fill="#797675" fill-opacity="1.00" stroke="None">
<path d="
M 151.00 136.00 
C 150.01 132.78 151.34 128.37 151.00 125.00
C 151.00 128.36 149.20 132.29 151.00 136.00 Z"/>
</g>
<g fill="#3C3839" fill-opacity="1.00" stroke="None">
<path d="
M 80.00 126.00 
C 78.29 128.87 78.43 135.06 80.00 138.00
C 80.00 134.00 80.00 130.00 80.00 126.00 Z"/>
</g>
<g fill="#4F4C4C" fill-opacity="1.00" stroke="None">
<path d="
M 59.00 134.00 
C 59.33 134.05 60.87 134.67 61.00 135.00
C 60.94 133.00 61.00 131.00 61.00 129.00
C 61.00 129.00 60.47 129.12 60.00 129.00
C 59.96 129.60 58.98 133.95 59.00 134.00 Z"/>
</g>
<g fill="#686665" fill-opacity="1.00" stroke="None">
<path d="
M 152.00 137.00 
C 152.52 136.30 153.89 133.72 154.00 133.00
C 154.06 131.67 154.00 130.33 154.00 129.00
C 154.00 129.00 153.26 128.75 153.00 129.00
C 151.82 130.14 151.15 135.21 152.00 137.00 Z"/>
</g>
<g fill="#A9A7A5" fill-opacity="1.00" stroke="None">
<path d="
M 158.00 139.00 
C 158.00 139.51 157.66 142.74 158.00 143.00
C 158.46 143.14 159.92 143.19 160.00 143.00
C 161.43 139.78 160.00 132.58 160.00 129.00
C 159.76 131.49 158.35 136.44 158.00 139.00 Z"/>
</g>
<g fill="#7C7978" fill-opacity="1.00" stroke="None">
<path d="
M 173.00 138.00 
C 173.40 135.66 174.23 134.58 173.00 132.00
C 173.44 133.64 173.10 136.30 173.00 138.00 Z"/>
</g>
<g fill="#979594" fill-opacity="1.00" stroke="None">
<path d="
M 152.00 137.00 
C 153.33 139.81 153.97 133.65 154.00 133.00
C 153.89 133.72 152.52 136.30 152.00 137.00 Z"/>
</g>
<g fill="#4F4C4C" fill-opacity="1.00" stroke="None">
<path d="
M 71.00 138.00 
C 71.00 138.00 71.00 138.50 71.00 139.00
C 72.24 140.21 71.79 141.24 72.00 143.00
C 72.00 143.00 73.00 142.96 73.00 143.00
C 73.27 140.06 73.00 136.96 73.00 134.00
C 72.84 134.83 71.45 137.17 71.00 138.00 Z"/>
</g>
<g fill="#9C9A98" fill-opacity="1.00" stroke="None">
<path d="
M 167.00 136.00 
C 167.00 136.00 166.47 136.11 166.00 136.00
C 166.00 137.00 166.00 138.00 166.00 139.00
C 168.85 139.21 167.66 137.18 167.00 136.00 Z"/>
</g>
<g fill="#7C7978" fill-opacity="1.00" stroke="None">
<path d="
M 71.00 144.00 
C 71.23 143.74 71.74 143.12 72.00 143.00
C 71.79 141.24 72.24 140.21 71.00 139.00
C 71.00 139.69 70.55 143.63 71.00 144.00 Z"/>
</g>
<g fill="#8C8988" fill-opacity="1.00" stroke="None">
<path d="
M 84.00 142.00 
C 84.13 142.27 85.08 142.73 85.00 143.00
C 85.66 141.93 85.77 142.56 86.00 141.00
C 85.95 140.67 85.10 139.82 85.00 139.00
C 84.83 139.80 83.24 140.46 84.00 142.00 Z"/>
</g>
</svg>