<?xml version="1.0" encoding="UTF-8"?>
<svg version="1.1" xmlns="http://www.w3.org/2000/svg" width="1024" height="1024">
<path d="M0 0 C337.92 0 675.84 0 1024 0 C1024 337.92 1024 675.84 1024 1024 C686.08 1024 348.16 1024 0 1024 C0 686.08 0 348.16 0 0 Z " fill="#FECE28" transform="translate(0,0)"/>
<path d="M0 0 C1.13236084 0.00323273 1.13236084 0.00323273 2.28759766 0.00653076 C22.34401725 0.09759103 41.41004056 2.49123861 60.8828125 7.41845703 C67.32794529 8.99347655 72.49335624 9.67098361 79 8.3125 C80.29115723 8.05025635 80.29115723 8.05025635 81.60839844 7.78271484 C84.45460232 7.17610575 87.28929649 6.5288274 90.125 5.875 C149.55641956 -7.38346929 213.38633214 1.74783631 265.2421875 34.20703125 C287.02541049 48.21806355 307.1110014 65.83788968 323 86.3125 C323.763125 87.24707031 324.52625 88.18164062 325.3125 89.14453125 C343.31902766 111.62383421 356.50752171 137.85512319 365 165.3125 C365.26506348 166.15200195 365.53012695 166.99150391 365.80322266 167.85644531 C378.76084166 209.26771473 383.17205632 258.2428759 370.39453125 300.30566406 C367.63965505 309.5455928 370.38739289 318.65213029 372.4375 327.8125 C385.32239233 388.32308918 373.35976309 455.86642981 340.12158203 508.22021484 C325.24403468 531.12102634 307.81388952 552.65569849 286 569.3125 C285.46890625 569.72532227 284.9378125 570.13814453 284.390625 570.56347656 C253.34489271 594.61323821 217.69001599 609.78296717 179 616.3125 C177.47620728 616.58960815 177.47620728 616.58960815 175.92163086 616.87231445 C165.35204184 618.62186551 154.87684046 618.66741479 144.1875 618.625 C142.76227524 618.62226578 142.76227524 618.62226578 141.30825806 618.61947632 C121.12383018 618.55432898 101.84051168 617.03651063 82.2487793 611.85083008 C76.88065419 610.4786713 72.4651493 610.15294223 67 611.3125 C66.14817139 611.48668457 65.29634277 611.66086914 64.41870117 611.84033203 C60.51241675 612.66295714 56.6157433 613.52531596 52.72265625 614.40820312 C36.22507089 617.98949121 19.77252954 618.72256929 2.9375 618.6875 C1.94965515 618.68695618 0.9618103 618.68641235 -0.05596924 618.68585205 C-15.41036079 618.64707128 -29.99778792 617.82394426 -45 614.3125 C-45.93215332 614.10882812 -46.86430664 613.90515625 -47.82470703 613.6953125 C-75.87601821 607.50309665 -103.70036432 596.29411278 -127 579.3125 C-127.92522461 578.64565186 -127.92522461 578.64565186 -128.86914062 577.96533203 C-136.83899015 572.20355434 -144.45079207 566.27165209 -151.625 559.53515625 C-153.69963814 557.59359523 -155.82171445 555.76005747 -158 553.9375 C-190.65904583 525.31943144 -211.84460123 482.57805799 -223 441.3125 C-223.19577637 440.58998047 -223.39155273 439.86746094 -223.59326172 439.12304688 C-226.71664468 427.34966622 -228.57868637 415.40180756 -230 403.3125 C-230.09716309 402.48927246 -230.19432617 401.66604492 -230.29443359 400.81787109 C-231.16954766 392.45479716 -231.24332552 384.08716575 -231.25 375.6875 C-231.25067474 374.91960144 -231.25134949 374.15170288 -231.25204468 373.36053467 C-231.22600502 354.57936964 -229.61904559 336.35865891 -224.53833008 318.20751953 C-223.12175083 312.96089017 -222.86788833 308.6702276 -224 303.3125 C-224.17418457 302.47066162 -224.34836914 301.62882324 -224.52783203 300.76147461 C-224.93167733 298.8710465 -225.34438307 296.98249438 -225.76489258 295.09570312 C-239.91844958 231.26855531 -226.84938781 163.39186945 -192.8828125 107.76953125 C-191.00318607 104.87989808 -189.04027901 102.09091335 -187 99.3125 C-186.57283691 98.71985352 -186.14567383 98.12720703 -185.70556641 97.51660156 C-173.00594538 79.92164522 -159.11466161 63.75260183 -142 50.3125 C-141.37029297 49.81169922 -140.74058594 49.31089844 -140.09179688 48.79492188 C-125.63490329 37.32053929 -110.67745468 28.18367315 -94 20.3125 C-93.35450195 20.00570312 -92.70900391 19.69890625 -92.04394531 19.3828125 C-77.34095066 12.46375619 -62.29315635 7.79717969 -46.375 4.5625 C-45.39926025 4.36382324 -44.42352051 4.16514648 -43.41821289 3.96044922 C-28.98527431 1.17943059 -14.68424732 -0.07653161 0 0 Z " fill="#FECF28" transform="translate(439,187.6875)"/>
<path d="M0 0 C1.13236084 0.00323273 1.13236084 0.00323273 2.28759766 0.00653076 C22.34401725 0.09759103 41.41004056 2.49123861 60.8828125 7.41845703 C67.32794529 8.99347655 72.49335624 9.67098361 79 8.3125 C80.29115723 8.05025635 80.29115723 8.05025635 81.60839844 7.78271484 C84.45460232 7.17610575 87.28929649 6.5288274 90.125 5.875 C149.55641956 -7.38346929 213.38633214 1.74783631 265.2421875 34.20703125 C287.02541049 48.21806355 307.1110014 65.83788968 323 86.3125 C323.763125 87.24707031 324.52625 88.18164062 325.3125 89.14453125 C343.31902766 111.62383421 356.50752171 137.85512319 365 165.3125 C365.26506348 166.15200195 365.53012695 166.99150391 365.80322266 167.85644531 C378.76084166 209.26771473 383.17205632 258.2428759 370.39453125 300.30566406 C367.63965505 309.5455928 370.38739289 318.65213029 372.4375 327.8125 C385.32239233 388.32308918 373.35976309 455.86642981 340.12158203 508.22021484 C325.24403468 531.12102634 307.81388952 552.65569849 286 569.3125 C285.46890625 569.72532227 284.9378125 570.13814453 284.390625 570.56347656 C253.34489271 594.61323821 217.69001599 609.78296717 179 616.3125 C177.47620728 616.58960815 177.47620728 616.58960815 175.92163086 616.87231445 C165.35204184 618.62186551 154.87684046 618.66741479 144.1875 618.625 C142.76227524 618.62226578 142.76227524 618.62226578 141.30825806 618.61947632 C121.12383018 618.55432898 101.84051168 617.03651063 82.2487793 611.85083008 C76.88065419 610.4786713 72.4651493 610.15294223 67 611.3125 C66.14817139 611.48668457 65.29634277 611.66086914 64.41870117 611.84033203 C60.51241675 612.66295714 56.6157433 613.52531596 52.72265625 614.40820312 C36.22507089 617.98949121 19.77252954 618.72256929 2.9375 618.6875 C1.94965515 618.68695618 0.9618103 618.68641235 -0.05596924 618.68585205 C-15.41036079 618.64707128 -29.99778792 617.82394426 -45 614.3125 C-45.93215332 614.10882812 -46.86430664 613.90515625 -47.82470703 613.6953125 C-75.87601821 607.50309665 -103.70036432 596.29411278 -127 579.3125 C-127.92522461 578.64565186 -127.92522461 578.64565186 -128.86914062 577.96533203 C-136.83899015 572.20355434 -144.45079207 566.27165209 -151.625 559.53515625 C-153.69963814 557.59359523 -155.82171445 555.76005747 -158 553.9375 C-190.65904583 525.31943144 -211.84460123 482.57805799 -223 441.3125 C-223.19577637 440.58998047 -223.39155273 439.86746094 -223.59326172 439.12304688 C-226.71664468 427.34966622 -228.57868637 415.40180756 -230 403.3125 C-230.09716309 402.48927246 -230.19432617 401.66604492 -230.29443359 400.81787109 C-231.16954766 392.45479716 -231.24332552 384.08716575 -231.25 375.6875 C-231.25067474 374.91960144 -231.25134949 374.15170288 -231.25204468 373.36053467 C-231.22600502 354.57936964 -229.61904559 336.35865891 -224.53833008 318.20751953 C-223.12175083 312.96089017 -222.86788833 308.6702276 -224 303.3125 C-224.17418457 302.47066162 -224.34836914 301.62882324 -224.52783203 300.76147461 C-224.93167733 298.8710465 -225.34438307 296.98249438 -225.76489258 295.09570312 C-239.91844958 231.26855531 -226.84938781 163.39186945 -192.8828125 107.76953125 C-191.00318607 104.87989808 -189.04027901 102.09091335 -187 99.3125 C-186.57283691 98.71985352 -186.14567383 98.12720703 -185.70556641 97.51660156 C-173.00594538 79.92164522 -159.11466161 63.75260183 -142 50.3125 C-141.37029297 49.81169922 -140.74058594 49.31089844 -140.09179688 48.79492188 C-125.63490329 37.32053929 -110.67745468 28.18367315 -94 20.3125 C-93.35450195 20.00570312 -92.70900391 19.69890625 -92.04394531 19.3828125 C-77.34095066 12.46375619 -62.29315635 7.79717969 -46.375 4.5625 C-45.39926025 4.36382324 -44.42352051 4.16514648 -43.41821289 3.96044922 C-28.98527431 1.17943059 -14.68424732 -0.07653161 0 0 Z M64.96484375 31.59765625 C63.51948242 32.0167627 63.51948242 32.0167627 62.04492188 32.44433594 C61.01947266 32.75145508 59.99402344 33.05857422 58.9375 33.375 C57.33165039 33.85308105 57.33165039 33.85308105 55.69335938 34.34082031 C14.26700029 46.81789879 -24.13106427 66.30358067 -58 93.3125 C-58.91652344 94.02792969 -59.83304688 94.74335938 -60.77734375 95.48046875 C-72.51818969 104.70949676 -83.58118867 114.5548148 -94.09741211 125.14916992 C-95.82248477 126.88504731 -97.55811991 128.6098509 -99.29492188 130.33398438 C-105.98858074 137.01974431 -112.1279399 143.88591022 -118 151.3125 C-118.86304193 152.34034093 -119.73144668 153.36375098 -120.609375 154.37890625 C-132.63315045 168.39933054 -143.0053374 183.80429825 -153 199.3125 C-153.57862793 200.2087207 -153.57862793 200.2087207 -154.16894531 201.12304688 C-188.04742197 254.17104828 -188.04742197 254.17104828 -201 313.3125 C-199.94291407 317.42459528 -198.62690426 321.42242283 -197.25 325.4375 C-196.85240479 326.6116748 -196.45480957 327.78584961 -196.04516602 328.99560547 C-181.56382052 370.90697514 -161.33367527 410.59311411 -135 446.3125 C-134.57122559 446.89435059 -134.14245117 447.47620117 -133.70068359 448.07568359 C-127.20359089 456.8288873 -120.20946444 465.1412777 -113 473.3125 C-112.36578125 474.03574463 -111.7315625 474.75898926 -111.078125 475.50415039 C-105.2098633 482.11997411 -99.06834405 488.43036338 -92.81689453 494.6809082 C-91.12892145 496.37107346 -89.44914276 498.06910834 -87.76953125 499.76757812 C-81.15538214 506.4155575 -74.36054467 512.48944005 -67 518.3125 C-65.96026813 519.18707 -64.9251207 520.06717921 -63.8984375 520.95703125 C-27.97048448 551.82392587 16.46547232 573.62647267 61.6875 586.9375 C62.55979248 587.20989502 63.43208496 587.48229004 64.33081055 587.76293945 C71.07275715 589.64532649 76.27961578 589.07096494 83 587.3125 C83.96301025 587.06064941 84.92602051 586.80879883 85.91821289 586.54931641 C135.36506917 572.85856968 181.93124884 546.69132706 220 512.3125 C220.86874756 511.52987793 221.73749512 510.74725586 222.63256836 509.94091797 C229.6285771 503.60340786 236.41796412 497.08086335 243.09204102 490.40576172 C244.69204519 488.80796107 246.29993615 487.21838449 247.90820312 485.62890625 C254.39213046 479.18012619 260.31787681 472.49088962 266 465.3125 C267.0723827 464.01844293 268.14876074 462.72767844 269.23046875 461.44140625 C303.99941476 419.67943625 327.56291911 370.47214117 345 319.3125 C345.43183594 318.11109375 345.86367188 316.9096875 346.30859375 315.671875 C348.26364572 306.17275243 344.23723401 297.18139423 341.125 288.3125 C340.76068375 287.26219604 340.76068375 287.26219604 340.38900757 286.19067383 C333.93839311 267.64374202 326.0926908 249.69912991 317.02001953 232.28320312 C315.92154445 230.16092192 314.84936738 228.02637986 313.77734375 225.890625 C298.73248745 196.24258484 278.94010417 169.20469966 257 144.3125 C256.36143066 143.58490479 255.72286133 142.85730957 255.06494141 142.10766602 C249.33197801 135.64916699 243.34896927 129.4752438 237.24414062 123.37133789 C235.6285932 121.75359808 234.02124966 120.12799364 232.4140625 118.50195312 C225.92020801 111.97350046 219.21932884 106.04022575 212 100.3125 C210.1849197 98.75299815 208.37183674 97.19116188 206.5625 95.625 C191.54772867 83.1416766 174.99547016 72.85333359 158 63.3125 C156.72286133 62.59151123 156.72286133 62.59151123 155.41992188 61.85595703 C132.17847888 48.85779866 107.40845156 40.00094936 82 32.3125 C81.28392578 32.08578613 80.56785156 31.85907227 79.83007812 31.62548828 C74.45325309 29.96874321 70.34220907 30.02792322 64.96484375 31.59765625 Z " fill="#070907" transform="translate(439,187.6875)"/>
<path d="M0 0 C2.85872079 1.39237262 5.56657019 2.9177691 8.29174805 4.55688477 C9.36295898 5.20012695 10.43416992 5.84336914 11.5378418 6.50610352 C12.64772461 7.17770508 13.75760742 7.84930664 14.90112305 8.54125977 C16.54274414 9.52545898 16.54274414 9.52545898 18.2175293 10.52954102 C24.47125183 14.29675351 30.62488947 18.16926955 36.65112305 22.29125977 C33.11472118 26.29297767 28.9440029 28.72475903 24.40112305 31.41625977 C22.15376865 32.7613916 19.91543056 34.10941838 17.70402527 35.51315498 C15.3599626 36.87840966 13.16136363 37.96508681 10.69160461 39.04224968 C2.8408454 42.72077172 2.8408454 42.72077172 -2.26549911 49.40360498 C-3.7329448 55.75010633 -3.35300216 62.24777879 -3.1652832 68.71362305 C-3.16076579 70.89240687 -3.16331167 73.07121503 -3.17236328 75.24998474 C-3.17694336 81.14598346 -3.08308276 87.03674472 -2.97117996 92.93152857 C-2.8709625 99.0985197 -2.86174546 105.26563932 -2.84277344 111.43331909 C-2.79309849 123.10370216 -2.66188328 134.77167895 -2.5011816 146.44100368 C-2.32216218 159.72976763 -2.23432861 173.01823862 -2.15405464 186.30793023 C-1.98694001 213.63703939 -1.70562716 240.9640146 -1.34887695 268.29125977 C1.86198793 266.37507184 5.07103907 264.45586631 8.27978516 262.53613281 C9.18390892 261.99661736 10.08803268 261.4571019 11.01955414 260.90123749 C17.24589402 257.17345621 23.31127749 253.3298699 29.21362305 249.10375977 C30.04168457 248.51699463 30.86974609 247.93022949 31.72290039 247.32568359 C37.9237084 242.89575232 43.90375208 238.30130354 49.65112305 233.29125977 C50.49674805 232.56680664 51.34237305 231.84235352 52.21362305 231.09594727 C62.50055544 222.09488142 73.9836775 211.53507424 75.92456055 197.28344727 C76.2417721 190.67080635 74.47409767 185.68629871 70.65112305 180.29125977 C62.214255 171.58866359 51.11187157 168.89060479 39.65112305 166.29125977 C39.65112305 163.98125977 39.65112305 161.67125977 39.65112305 159.29125977 C56.52143324 153.66782304 81.74860735 158.98508268 97.2565918 166.56469727 C107.41792877 172.12960496 113.93253526 180.16848194 117.2331543 191.24438477 C120.08021576 205.18700354 114.97067232 218.66273607 107.65112305 230.29125977 C64.27455779 294.81494128 -26.01148812 330.37445162 -99.25878906 345.44311523 C-137.18292821 352.79931183 -184.78334609 357.02216954 -218.97387695 335.02172852 C-227.15656573 329.05967074 -233.61586484 320.55602384 -235.34887695 310.29125977 C-236.78632338 289.36581018 -228.41670316 272.83850223 -214.97338867 257.12670898 C-206.54647967 247.60559359 -197.31578156 237.90365813 -186.34887695 231.29125977 C-185.35887695 231.29125977 -184.36887695 231.29125977 -183.34887695 231.29125977 C-183.78913371 236.13408411 -184.68158766 238.13331621 -188.34887695 241.29125977 C-197.85170975 250.27878743 -206.56230555 263.70279852 -207.55200195 277.02563477 C-207.69080785 285.95548064 -206.7222769 291.95249286 -200.80957031 298.85083008 C-198.42001781 301.20723318 -195.72663534 302.52482822 -192.72387695 303.97875977 C-191.03391602 304.81987305 -191.03391602 304.81987305 -189.30981445 305.67797852 C-186.14593636 307.07966435 -182.94331883 308.00183212 -179.60131836 308.89208984 C-178.61612213 309.15597 -177.6309259 309.41985016 -176.61587524 309.69172668 C-175.86776581 309.8895726 -175.11965637 310.08741852 -174.34887695 310.29125977 C-174.36823461 309.74663999 -174.38759226 309.20202021 -174.40753651 308.6408968 C-174.87306543 295.33574643 -175.21827376 282.03203597 -175.43693256 268.72046375 C-175.54626599 262.28206023 -175.69431662 255.84955689 -175.93310547 249.41455078 C-176.16240464 243.19589319 -176.28704613 236.98288052 -176.34129906 230.76032066 C-176.37991708 228.3949456 -176.45535437 226.02985915 -176.56920815 223.66691017 C-177.40242549 205.64663346 -177.40242549 205.64663346 -172.29522324 200.03461456 C-167.2430903 195.97799441 -161.70885046 193.1056049 -155.82575035 190.44470406 C-152.57116693 188.9290914 -149.66595721 187.1030203 -146.66137695 185.14282227 C-144.89150116 184.06572643 -143.12072546 182.99010735 -141.34887695 181.91625977 C-140.4362207 181.34649414 -139.52356445 180.77672852 -138.58325195 180.18969727 C-137.7015332 179.65860352 -136.81981445 179.12750977 -135.91137695 178.58032227 C-135.14954102 178.11319824 -134.38770508 177.64607422 -133.6027832 177.16479492 C-128.6134685 175.23111121 -123.20794433 178.42701762 -118.53637695 180.35375977 C-117.84350586 180.63541992 -117.15063477 180.91708008 -116.43676758 181.20727539 C-114.73920071 181.8980095 -113.04381383 182.59409705 -111.34887695 183.29125977 C-111.38551704 182.0179203 -111.38551704 182.0179203 -111.42289734 180.71885681 C-111.64371625 172.70117665 -111.81097383 164.68452324 -111.91881084 156.66449642 C-111.97612005 152.54144589 -112.05376747 148.42091588 -112.17871094 144.29931641 C-112.29864176 140.31794784 -112.36407887 136.33899481 -112.39252663 132.35595894 C-112.4127836 130.84021519 -112.45234976 129.3245975 -112.51190758 127.80988884 C-112.68815513 123.13977101 -112.66686241 118.82475854 -111.34887695 114.29125977 C-108.12068292 110.91363858 -104.57746387 109.18074683 -100.34887695 107.29125977 C-99.08307083 106.539754 -97.82846899 105.76857869 -96.59326172 104.96777344 C-90.08821865 101.01204949 -90.08821865 101.01204949 -87.77587891 99.60986328 C-85.8881627 98.4646768 -84.00226695 97.31653197 -82.11645508 96.16821289 C-80.90367188 95.43170783 -79.69078513 94.69537327 -78.4777832 93.95922852 C-77.3956958 93.30204834 -76.3136084 92.64486816 -75.19873047 91.96777344 C-74.25827881 91.41452393 -73.31782715 90.86127441 -72.34887695 90.29125977 C-71.66559326 89.86498291 -70.98230957 89.43870605 -70.27832031 88.99951172 C-66.97691797 87.78764683 -64.58536187 88.74351445 -61.4519043 90.1315918 C-59.29401417 91.17098646 -57.16361964 92.25306851 -55.03637695 93.35375977 C-54.29581055 93.73081055 -53.55524414 94.10786133 -52.79223633 94.49633789 C-50.97500173 95.42254133 -49.16155292 96.35616605 -47.34887695 97.29125977 C-47.44214264 96.01364525 -47.44214264 96.01364525 -47.53729248 94.71022034 C-48.10266013 86.60977475 -48.52649291 78.51607221 -48.79961777 70.40031528 C-48.94484077 66.22761812 -49.1405713 62.07139231 -49.46118164 57.90820312 C-51.42260577 31.76135239 -51.42260577 31.76135239 -46.12507248 24.64796829 C-39.73381243 18.031956 -31.09510069 14.31627649 -22.75071716 10.79701233 C-17.98781054 8.68881253 -13.73594384 5.98355671 -9.41137695 3.10375977 C-3.18967088 -0.96243785 -3.18967088 -0.96243785 0 0 Z " fill="#060807" transform="translate(562.348876953125,308.708740234375)"/>
<path d="M0 0 C48.79540002 -0.88776852 95.62212111 6.37430415 136 36 C136.5249707 36.38510742 137.04994141 36.77021484 137.59082031 37.16699219 C145.092383 42.70856837 152.24204022 48.56475178 159 55 C159.58652344 55.55397461 160.17304687 56.10794922 160.77734375 56.67871094 C204.16663279 97.90726576 228.24628701 156.18059881 230.12011719 215.82324219 C230.23852873 223.55105123 230.17942651 231.27361838 230 239 C229.34 239 228.68 239 228 239 C227.61521484 237.83210938 227.61521484 237.83210938 227.22265625 236.640625 C215.96173833 203.72992886 198.16631577 173.20091651 178 145 C177.45730469 144.23945313 176.91460938 143.47890625 176.35546875 142.6953125 C168.70763355 132.02632344 160.75291238 121.78359953 152 112 C151.175 111.07574219 150.35 110.15148437 149.5 109.19921875 C148.08180085 107.62051395 146.65955458 106.0454192 145.23046875 104.4765625 C143.97257252 103.07987912 142.72179869 101.67644813 141.49633789 100.2512207 C136.90335176 94.91660026 132.05168805 89.90142634 127.0625 84.9375 C126.30259766 84.17373047 125.54269531 83.40996094 124.75976562 82.62304688 C120.00279891 77.87420478 115.10381112 73.37154551 110 69 C108.90523389 68.03891663 107.81143536 67.07672963 106.71875 66.11328125 C75.40889607 38.75515645 38.8163898 15.9703617 0 1 C0 0.67 0 0.34 0 0 Z " fill="#FDD027" transform="translate(564,210)"/>
<path d="M0 0 C-2.00835162 2.00835162 -3.30383478 2.70338536 -5.8671875 3.8125 C-6.65996094 4.16030518 -7.45273437 4.50811035 -8.26953125 4.86645508 C-9.12933594 5.2405249 -9.98914063 5.61459473 -10.875 6 C-33.01498712 15.83001051 -54.09842745 27.13997626 -74 41 C-74.80630859 41.55953369 -74.80630859 41.55953369 -75.62890625 42.13037109 C-87.43590619 50.35022157 -98.94557209 58.96427386 -109.5234375 68.734375 C-110.86980324 69.96606606 -112.22361724 71.19054017 -113.61254883 72.37402344 C-119.772983 77.63346089 -125.49381847 83.30769935 -131.2175293 89.03222656 C-132.92543056 90.73794598 -134.64118045 92.43549027 -136.35742188 94.1328125 C-143.03806481 100.77972091 -149.15175791 107.60024684 -155 115 C-155.86299676 116.02787886 -156.73138541 117.05130398 -157.609375 118.06640625 C-173.35140628 136.42253397 -187.01145691 157.01883568 -199 178 C-199.44811035 178.78262207 -199.8962207 179.56524414 -200.35791016 180.37158203 C-206.52326277 191.21884708 -212.19801021 202.23791432 -217.4375 213.5625 C-217.92130127 214.60768799 -218.40510254 215.65287598 -218.90356445 216.72973633 C-222.23360092 224.04540114 -225.18966542 231.47038108 -228 239 C-228.33 239 -228.66 239 -229 239 C-230.25838194 179.12037923 -215.29526458 117.97793009 -175 72 C-173.94425781 70.77990234 -173.94425781 70.77990234 -172.8671875 69.53515625 C-127.24174616 17.77726311 -67.50000204 -1.39307831 0 0 Z " fill="#FDD027" transform="translate(459,210)"/>
<path d="M0 0 C3.15267864 1.57633932 3.52137573 4.77095015 4.625 7.9375 C16.61410446 40.87707526 34.25658296 71.81765961 55 100 C55.49209961 100.67611328 55.98419922 101.35222656 56.49121094 102.04882812 C66.33226358 115.55866617 77.06379871 128.11131208 88.45605469 140.33837891 C90.17825231 142.19183827 91.88962473 144.05503068 93.6015625 145.91796875 C104.34945142 157.56254972 115.57411381 168.13375329 128 178 C128.6098877 178.49306641 129.21977539 178.98613281 129.84814453 179.49414062 C159.18895336 203.19606874 192.63544513 224.49581344 228 238 C228 238.33 228 238.66 228 239 C191.57146549 239.64326399 191.57146549 239.64326399 174 236 C172.53240234 235.70198486 172.53240234 235.70198486 171.03515625 235.39794922 C150.12913133 231.04252736 130.79610374 224.10227247 112 214 C110.86820312 213.40960937 109.73640625 212.81921875 108.5703125 212.2109375 C91.9376302 203.18396212 77.40277878 191.27276946 64 178 C63.39768555 177.40944824 62.79537109 176.81889648 62.17480469 176.21044922 C57.01845175 171.11872257 52.46889774 165.70588864 48 160 C47.57702637 159.46407227 47.15405273 158.92814453 46.71826172 158.37597656 C30.62237121 137.81862773 18.43510279 114.01846869 11 89 C10.7942334 88.32855957 10.5884668 87.65711914 10.37646484 86.96533203 C1.63353015 58.30463076 -0.40303529 29.7750074 0 0 Z " fill="#FDD027" transform="translate(230,545)"/>
<path d="M0 0 C0.66 0 1.32 0 2 0 C3.16471959 62.92173583 -13.00511634 124.55584819 -56.69921875 171.51171875 C-58.69652435 173.67179288 -60.60543338 175.87547945 -62.5 178.125 C-93.61362057 213.6218327 -144.36677517 234.44882146 -190.61621094 238.78613281 C-202.70993637 239.55049814 -214.89153367 239.21508025 -227 239 C-224.272117 237.18141133 -221.61216468 235.92260303 -218.6081543 234.6418457 C-186.58596944 220.95706155 -157.25603514 202.56875222 -130 181 C-129.07960938 180.27425781 -128.15921875 179.54851562 -127.2109375 178.80078125 C-120.92946876 173.75931426 -115.00197596 168.40201943 -109.125 162.90234375 C-106.44486616 160.39746197 -103.70060484 157.97578868 -100.9375 155.5625 C-95.37107497 150.57440484 -90.38980045 145.09180341 -85.39453125 139.54296875 C-84.14881047 138.16465024 -82.88789631 136.80009865 -81.625 135.4375 C-75.83541687 129.15166689 -70.56959438 122.51620363 -65.35546875 115.75390625 C-64.07783657 114.10071649 -62.79065841 112.45552864 -61.5 110.8125 C-39.60373789 82.74036908 -21.97017017 51.97055349 -7.1875 19.625 C-6.81423584 18.81691895 -6.44097168 18.00883789 -6.05639648 17.17626953 C-3.53062785 11.57223828 -1.63096586 5.92466926 0 0 Z " fill="#FDCF27" transform="translate(792,545)"/>
<path d="M0 0 C0 54.45 0 108.9 0 165 C-16 171 -16 171 -19 171 C-19.23368056 150.39014861 -19.40998137 129.78051585 -19.51812172 109.16960812 C-19.56966992 99.59935643 -19.639936 90.02992818 -19.75439453 80.46020508 C-19.85411873 72.11841757 -19.91859373 63.77722638 -19.94088495 55.43485934 C-19.95391467 51.01790924 -19.98449282 46.60266495 -20.05730057 42.18626213 C-20.12531624 38.02673583 -20.14609151 33.86961287 -20.13107681 29.70958328 C-20.13382219 28.18529874 -20.15364214 26.66093176 -20.19205475 25.13712883 C-20.46751704 13.64340914 -20.46751704 13.64340914 -16.85783005 9.60107613 C-14.30969976 7.78958464 -11.80098769 6.37940333 -9 5 C-7.46873503 4.03722849 -5.94580842 3.0608522 -4.4375 2.0625 C-1.1414791 0 -1.1414791 0 0 0 Z " fill="#FDD327" transform="translate(515,433)"/>
<path d="M0 0 C0 31.35 0 62.7 0 95 C-5.61 95.99 -11.22 96.98 -17 98 C-17.36231877 86.6991381 -17.65544776 75.40216398 -17.82899475 64.09679604 C-17.91231641 58.84634385 -18.02516759 53.60008727 -18.20703125 48.35205078 C-18.38164274 43.28121635 -18.47668529 38.21439849 -18.51803589 33.14078903 C-18.5474738 31.21139619 -18.60497612 29.28221021 -18.69168091 27.35454178 C-19.32790384 12.61562438 -19.32790384 12.61562438 -15.36932373 8.16777802 C-11.64329185 5.11233478 -5.00007659 0 0 0 Z " fill="#FDD129" transform="translate(451,521)"/>
<path d="M0 0 C0 31.35 0 62.7 0 95 C-3.8726592 95.9681648 -7.03611362 96.07622858 -11 96 C-11 95.67 -11 95.34 -11 95 C-6.545 94.505 -6.545 94.505 -2 94 C-2.33 64.3 -2.66 34.6 -3 4 C-3.99 4.495 -3.99 4.495 -5 5 C-3.33333333 0 -3.33333333 0 0 0 Z " fill="#FADD1E" transform="translate(451,521)"/>
<path d="M0 0 C0.66 0.33 1.32 0.66 2 1 C-0.99925342 2.58475045 -3.99954008 4.16753521 -7 5.75 C-7.83917969 6.1934375 -8.67835938 6.636875 -9.54296875 7.09375 C-14.66491841 9.79369246 -19.81166899 12.42985454 -25 15 C-19.39 15.33 -13.78 15.66 -8 16 C-8 16.33 -8 16.66 -8 17 C-16.91 17 -25.82 17 -35 17 C-32.68780541 15.45853694 -30.77107885 14.38342737 -28.26171875 13.30078125 C-27.53017578 12.98165771 -26.79863281 12.66253418 -26.04492188 12.33374023 C-24.87799805 11.82822632 -24.87799805 11.82822632 -23.6875 11.3125 C-16.51622956 8.18267815 -9.5407535 4.81032911 -2.625 1.15234375 C-1.75875 0.77207031 -0.8925 0.39179687 0 0 Z " fill="#F7EE25" transform="translate(600,767)"/>
<path d="M0 0 C2 1 2 1 3.1875 3.8125 C4.03793448 7.14881987 3.82908523 7.85110806 3 11 C2.85431597 12.95053764 2.75340533 14.90465065 2.68359375 16.859375 C2.64169922 17.97441406 2.59980469 19.08945312 2.55664062 20.23828125 C2.49766602 21.97658203 2.49766602 21.97658203 2.4375 23.75 C2.39431641 24.92433594 2.35113281 26.09867188 2.30664062 27.30859375 C2.20065206 30.20561451 2.09858362 33.10271935 2 36 C1.67 36 1.34 36 1 36 C0.23737336 31.27382588 -0.11892423 26.75795287 -0.09765625 21.97265625 C-0.09443359 20.68681641 -0.09121094 19.40097656 -0.08789062 18.07617188 C-0.07953802 16.73828055 -0.07107311 15.40038993 -0.0625 14.0625 C-0.05747659 12.69726726 -0.05291517 11.33203274 -0.04882812 9.96679688 C-0.03708851 6.64448543 -0.02066679 3.32226592 0 0 Z " fill="#DAC722" transform="translate(230,545)"/>
<path d="M0 0 C0.33 0 0.66 0 1 0 C1.90816798 3.86207074 2.11643845 7.43148656 2.09765625 11.39453125 C2.09443359 12.59658203 2.09121094 13.79863281 2.08789062 15.03710938 C2.07951172 16.28298828 2.07113281 17.52886719 2.0625 18.8125 C2.05798828 20.07771484 2.05347656 21.34292969 2.04882812 22.64648438 C2.03706251 25.7643711 2.02062272 28.88216133 2 32 C1.34 32 0.68 32 0 32 C-0.66 28.7 -1.32 25.4 -2 22 C-1.67 22 -1.34 22 -1 22 C-0.67 14.74 -0.34 7.48 0 0 Z " fill="#D5C01F" transform="translate(792,417)"/>
<path d="M0 0 C0.97683252 2.59098869 1.11350885 3.70278605 0.109375 6.33203125 C-0.56351563 7.55986328 -0.56351563 7.55986328 -1.25 8.8125 C-2.87779855 11.86067678 -4.40741668 14.85234286 -5.6875 18.0625 C-7 21 -7 21 -9 22 C-8.67 22.66 -8.34 23.32 -8 24 C-8.99 24.33 -9.98 24.66 -11 25 C-11.33 25.99 -11.66 26.98 -12 28 C-14.0625 29.6875 -14.0625 29.6875 -16 31 C-16.66 30.67 -17.32 30.34 -18 30 C-17.443125 29.319375 -16.88625 28.63875 -16.3125 27.9375 C-9.91758624 19.81423117 -5.37188176 11.34601255 -1 2 C-0.67 1.34 -0.34 0.68 0 0 Z " fill="#F5E223" transform="translate(678,521)"/>
<path d="M0 0 C0.33 0 0.66 0 1 0 C1.22638576 4.22840284 1.42794972 8.45763658 1.625 12.6875 C1.68945312 13.88568359 1.75390625 15.08386719 1.8203125 16.31835938 C1.871875 17.47529297 1.9234375 18.63222656 1.9765625 19.82421875 C2.02893066 20.88729248 2.08129883 21.95036621 2.13525391 23.0456543 C1.99408472 26.12920727 1.31336415 28.22759138 0 31 C-0.33 31 -0.66 31 -1 31 C-1.02469575 26.90658501 -1.04285793 22.81319879 -1.05493164 18.71972656 C-1.0599643 17.32681523 -1.06679098 15.9339092 -1.07543945 14.54101562 C-1.08755152 12.54038754 -1.09270412 10.53972112 -1.09765625 8.5390625 C-1.10289307 7.33459473 -1.10812988 6.13012695 -1.11352539 4.88916016 C-1 2 -1 2 0 0 Z " fill="#D4C024" transform="translate(231,418)"/>
<path d="M0 0 C8.91 0 17.82 0 27 0 C23.09224671 1.95387664 21.00312413 2.34762234 16.75 2.625 C15.67234375 2.69976562 14.5946875 2.77453125 13.484375 2.8515625 C12.66453125 2.90054688 11.8446875 2.94953125 11 3 C12.32 3.99 13.64 4.98 15 6 C11.33827525 5.37321829 8.1181005 4.35548154 4.6875 2.9375 C3.36298828 2.39416016 3.36298828 2.39416016 2.01171875 1.83984375 C1.34785156 1.56269531 0.68398438 1.28554687 0 1 C0 0.67 0 0.34 0 0 Z " fill="#FCEC27" transform="translate(564,210)"/>
<path d="M0 0 C1 2 1 2 0.42480469 3.95654297 C-2.41725594 10.78772765 -5.5229775 17.467678 -8.75 24.125 C-9.25660156 25.176875 -9.76320313 26.22875 -10.28515625 27.3125 C-11.52050578 29.87643298 -12.75882801 32.43888195 -14 35 C-15.11077513 31.63504529 -15.04616358 31.10884096 -13.55859375 27.6015625 C-12.86218295 26.27043115 -12.15445684 24.94517861 -11.4375 23.625 C-8.00057526 17.06098129 -4.9609758 10.44246739 -2.12890625 3.59765625 C-1 1 -1 1 0 0 Z " fill="#F2E524" transform="translate(790,554)"/>
<path d="M0 0 C0.66 0 1.32 0 2 0 C3.62109375 1.64453125 3.62109375 1.64453125 5.4375 3.8125 C9.12898308 8.5286485 9.12898308 8.5286485 13.9375 11.875 C16.71227855 13.38851557 18.04447199 15.52683223 20 18 C21.93944702 19.75792242 23.94957083 21.36897679 26 23 C21.63149092 23 19.49630718 20.3240071 16.375 17.5625 C15.75415527 17.02061035 15.13331055 16.4787207 14.49365234 15.92041016 C3.87811853 6.57576948 3.87811853 6.57576948 0 2 C0 1.34 0 0.68 0 0 Z " fill="#F6E523" transform="translate(290,717)"/>
<path d="M0 0 C1.44490842 3.81346082 0.49383755 6.19443733 -0.875 9.9375 C-2.20715375 13.62188326 -3.33107775 17.13590655 -4 21 C-4.66 21 -5.32 21 -6 21 C-6 21.99 -6 22.98 -6 24 C-6.66 24 -7.32 24 -8 24 C-5.69356492 15.86184696 -2.89571216 7.94317882 0 0 Z " fill="#F1DF21" transform="translate(251,456)"/>
<path d="M0 0 C-2.57516622 2.63746863 -4.54331396 3.21887499 -8.109375 3.29296875 C-9.65652231 3.27313353 -11.20353396 3.2375101 -12.75 3.1875 C-13.54277344 3.17396484 -14.33554687 3.16042969 -15.15234375 3.14648438 C-17.10185564 3.11125223 -19.05101626 3.05744821 -21 3 C-21 2.67 -21 2.34 -21 2 C-18.0638549 1.47023682 -15.12651442 0.95087475 -12.1875 0.4375 C-10.93743164 0.21030273 -10.93743164 0.21030273 -9.66210938 -0.02148438 C-8.45844727 -0.2293457 -8.45844727 -0.2293457 -7.23046875 -0.44140625 C-6.49207764 -0.57232666 -5.75368652 -0.70324707 -4.99291992 -0.83813477 C-3 -1 -3 -1 0 0 Z " fill="#ECD41E" transform="translate(632,802)"/>
<path d="M0 0 C0.66 0.33 1.32 0.66 2 1 C1.113125 1.70125 0.22625 2.4025 -0.6875 3.125 C-3.90375955 5.79121041 -6.41236896 8.72740781 -9 12 C-9.66 11.67 -10.32 11.34 -11 11 C-11 10.01 -11 9.02 -11 8 C-8.59375 5.95703125 -8.59375 5.95703125 -5.5 3.8125 C-4.4790625 3.09707031 -3.458125 2.38164063 -2.40625 1.64453125 C-1.6121875 1.10183594 -0.818125 0.55914063 0 0 Z " fill="#F4DC22" transform="translate(657,730)"/>
<path d="M0 0 C4.474976 0.28412546 8.60276134 1.14911399 12.9375 2.25 C12.9375 2.91 12.9375 3.57 12.9375 4.25 C10.87472893 4.10805236 8.81228969 3.96127784 6.75 3.8125 C5.60144531 3.73128906 4.45289063 3.65007813 3.26953125 3.56640625 C0.42151829 3.29596188 -2.27460482 2.87478253 -5.0625 2.25 C-3.0625 0.25 -3.0625 0.25 0 0 Z " fill="#1A1405" transform="translate(384.0625,654.75)"/>
<path d="M0 0 C2.83419229 3.29708329 3.96554174 6.47689646 5.1875 10.625 C5.53167969 11.77226563 5.87585938 12.91953125 6.23046875 14.1015625 C7 17 7 17 7 19 C6.34 19 5.68 19 5 19 C4.15665671 16.77417611 3.32521449 14.54503974 2.5 12.3125 C2.14228516 11.37374023 2.14228516 11.37374023 1.77734375 10.41601562 C0.4587275 6.81807701 -0.29329235 3.83479747 0 0 Z " fill="#161106" transform="translate(238,626)"/>
<path d="M0 0 C-0.3125 2.875 -0.3125 2.875 -1 6 C-1.99 6.66 -2.98 7.32 -4 8 C-4.99 7.01 -5.98 6.02 -7 5 C-5.64703851 0.94111554 -4.27479763 0 0 0 Z " fill="#100F05" transform="translate(379,540)"/>
<path d="M0 0 C0.33 0.66 0.66 1.32 1 2 C1.99 2.33 2.98 2.66 4 3 C4 3.66 4 4.32 4 5 C5.65 5.33 7.3 5.66 9 6 C9 7.65 9 9.3 9 11 C7.87411986 10.04270084 6.7493285 9.08412105 5.625 8.125 C4.99851562 7.59132813 4.37203125 7.05765625 3.7265625 6.5078125 C2.44163349 5.38567993 1.20628025 4.20628025 0 3 C0 2.01 0 1.02 0 0 Z " fill="#1E1506" transform="translate(325,691)"/>
<path d="M0 0 C0 0.33 0 0.66 0 1 C-9.41002278 3.11161731 -9.41002278 3.11161731 -14 4 C-14.33 3.01 -14.66 2.02 -15 1 C-9.42567486 -0.66251802 -5.6932495 -1.18609365 0 0 Z " fill="#ECD523" transform="translate(516,798)"/>
<path d="M0 0 C2.36557373 2.13300328 3.62967528 3.95949399 4.75 6.9375 C5.01296875 7.60652344 5.2759375 8.27554687 5.546875 8.96484375 C6.07046274 11.31647491 5.74954377 12.73617523 5 15 C4.34 14.67 3.68 14.34 3 14 C2.40234375 11.85546875 2.40234375 11.85546875 1.9375 9.1875 C1.38404122 6.09087526 0.80148625 3.04281065 0 0 Z " fill="#F6E124" transform="translate(774,341)"/>
<path d="M0 0 C0.66 0.99 1.32 1.98 2 3 C1.071875 3.3403125 1.071875 3.3403125 0.125 3.6875 C-2.65367862 5.40374268 -2.91815865 6.97084422 -4 10 C-4.95824253 11.36365283 -5.94721175 12.70794169 -7 14 C-6.44010697 10.00987629 -5.24330232 7.4744948 -2.9375 4.1875 C-2.38964844 3.39730469 -1.84179688 2.60710938 -1.27734375 1.79296875 C-0.64505859 0.90544922 -0.64505859 0.90544922 0 0 Z " fill="#F8E522" transform="translate(365,560)"/>
<path d="M0 0 C0.66 0.33 1.32 0.66 2 1 C1 2 0 3 -1 4 C-2.2065625 5.36125 -2.2065625 5.36125 -3.4375 6.75 C-4.7059375 7.86375 -4.7059375 7.86375 -6 9 C-7.32 8.67 -8.64 8.34 -10 8 C-6.7 5.36 -3.4 2.72 0 0 Z " fill="#F9E326" transform="translate(386,277)"/>
<path d="M0 0 C2.18697502 2.79624958 3.99152813 5.63307872 5.6875 8.75 C6.12449219 9.54921875 6.56148438 10.3484375 7.01171875 11.171875 C7.33785156 11.77515625 7.66398437 12.3784375 8 13 C2 10 2 10 0.875 7.1875 C0 4 0 4 0 0 Z " fill="#F2DF24" transform="translate(255,599)"/>
<path d="M0 0 C1.32 0.33 2.64 0.66 4 1 C3.67 3.97 3.34 6.94 3 10 C0.70366176 6.55549263 0.45983515 4.06187717 0 0 Z " fill="#F5D823" transform="translate(810,510)"/>
<path d="M0 0 C0.99 0 1.98 0 3 0 C3.33 2.97 3.66 5.94 4 9 C3.01 9.33 2.02 9.66 1 10 C0.67 6.7 0.34 3.4 0 0 Z " fill="#EEC925" transform="translate(208,467)"/>
<path d="M0 0 C0 0.66 0 1.32 0 2 C-4.29385993 5.4887612 -7.71870895 5.26854022 -13 5 C-10.54278328 3.36185552 -8.65432189 2.38047801 -5.9375 1.375 C-5.24527344 1.11460937 -4.55304688 0.85421875 -3.83984375 0.5859375 C-2 0 -2 0 0 0 Z " fill="#EED823" transform="translate(478,228)"/>
<path d="M0 0 C2 1 2 1 2 1 Z M0 1 C-0.8125 2.9375 -0.8125 2.9375 -2 5 C-2.99 5.33 -3.98 5.66 -5 6 C-5.66 6.66 -6.32 7.32 -7 8 C-7.99 7.34 -8.98 6.68 -10 6 C-8.71186658 5.16121545 -7.41936744 4.32913217 -6.125 3.5 C-5.40570312 3.0359375 -4.68640625 2.571875 -3.9453125 2.09375 C-2 1 -2 1 0 1 Z " fill="#150F05" transform="translate(625,726)"/>
<path d="M0 0 C1.42944945 2.35438733 2.08661261 3.48032433 1.625 6.25 C1.41875 6.8275 1.2125 7.405 1 8 C0.34 8 -0.32 8 -1 8 C-1 9.98 -1 11.96 -1 14 C-1.33 14 -1.66 14 -2 14 C-2.1799928 8.78020872 -1.97094808 4.92737019 0 0 Z " fill="#F7E227" transform="translate(236,384)"/>
<path d="M0 0 C3.55780196 0.60990891 6.6828589 1.5783681 10 3 C10 3.33 10 3.66 10 4 C7.03 4 4.06 4 1 4 C0.67 2.68 0.34 1.36 0 0 Z " fill="#EFD526" transform="translate(446,779)"/>
<path d="M0 0 C0.66 1.32 1.32 2.64 2 4 C-1.00229182 5.91813089 -3.52846619 7.23596585 -7 8 C-6.02133662 6.85373678 -5.04205413 5.70800212 -4.0625 4.5625 C-3.51722656 3.92441406 -2.97195313 3.28632812 -2.41015625 2.62890625 C-1.63204305 1.73008851 -0.84063472 0.84063472 0 0 Z " fill="#130E06" transform="translate(676,683)"/>
<path d="M0 0 C0 3 0 3 -1.53125 4.60546875 C-2.1809375 5.12753906 -2.830625 5.64960937 -3.5 6.1875 C-4.1496875 6.71730469 -4.799375 7.24710938 -5.46875 7.79296875 C-5.9740625 8.19128906 -6.479375 8.58960938 -7 9 C-7.66 8.01 -8.32 7.02 -9 6 C-6.03 4.02 -3.06 2.04 0 0 Z " fill="#F6DC23" transform="translate(625,583)"/>
<path d="M0 0 C0.33 0 0.66 0 1 0 C1 4.62 1 9.24 1 14 C0.01 14 -0.98 14 -2 14 C-2.25328119 8.93437617 -1.33583899 4.84241633 0 0 Z " fill="#F7C626" transform="translate(791,426)"/>
<path d="M0 0 C0.66 0.99 1.32 1.98 2 3 C0.35 4.98 -1.3 6.96 -3 9 C-3.66 8.01 -4.32 7.02 -5 6 C-3.35 4.02 -1.7 2.04 0 0 Z " fill="#F3D424" transform="translate(319,341)"/>
<path d="M0 0 C2.75 -0.25 2.75 -0.25 6 0 C8.375 2 8.375 2 10 4 C9.01 4.495 9.01 4.495 8 5 C6.0546875 4.22265625 6.0546875 4.22265625 3.875 3.0625 C3.15054688 2.68222656 2.42609375 2.30195313 1.6796875 1.91015625 C1.12539063 1.60980469 0.57109375 1.30945313 0 1 C0 0.67 0 0.34 0 0 Z " fill="#F6DA22" transform="translate(666,202)"/>
<path d="M0 0 C0.66 1.32 1.32 2.64 2 4 C0.68 5.32 -0.64 6.64 -2 8 C-2.99 7.67 -3.98 7.34 -5 7 C-3.35 4.69 -1.7 2.38 0 0 Z " fill="#F2D422" transform="translate(723,665)"/>
<path d="M0 0 C0 0.66 0 1.32 0 2 C-3.21451269 3.60725635 -6.43612536 3.05748185 -10 3 C-9 1 -9 1 -7.25 0.375 C-4.79549443 -0.03408426 -2.4840589 -0.06900164 0 0 Z " fill="#F4DA24" transform="translate(392,216)"/>
<path d="M0 0 C-4.95 2.97 -4.95 2.97 -10 6 C-9.34 4.02 -8.68 2.04 -8 0 C-2.25 -1.125 -2.25 -1.125 0 0 Z " fill="#F6E124" transform="translate(463,416)"/>
<path d="M0 0 C0.33 0.99 0.66 1.98 1 3 C1.66 3 2.32 3 3 3 C2.34 5.64 1.68 8.28 1 11 C0.34 11 -0.32 11 -1 11 C-0.67 7.37 -0.34 3.74 0 0 Z " fill="#E4CA22" transform="translate(233,395)"/>
<path d="M0 0 C0.99 0.33 1.98 0.66 3 1 C1.54735962 1.8638129 0.0876837 2.71580454 -1.375 3.5625 C-2.59316406 4.27599609 -2.59316406 4.27599609 -3.8359375 5.00390625 C-4.55007813 5.33261719 -5.26421875 5.66132813 -6 6 C-6.66 5.67 -7.32 5.34 -8 5 C-8 4.34 -8 3.68 -8 3 C-6.865625 2.690625 -5.73125 2.38125 -4.5625 2.0625 C-1.21224901 1.37075469 -1.21224901 1.37075469 0 0 Z " fill="#EDD720" transform="translate(426,486)"/>
<path d="M0 0 C2 2 2 2 2.125 5.625 C2.08375 6.73875 2.0425 7.8525 2 9 C1.01 9 0.02 9 -1 9 C-0.67 6.03 -0.34 3.06 0 0 Z " fill="#130D04" transform="translate(213,379)"/>
<path d="M0 0 C2.64 0 5.28 0 8 0 C7.67 1.32 7.34 2.64 7 4 C4.69 3.01 2.38 2.02 0 1 C0 0.67 0 0.34 0 0 Z " fill="#EED31D" transform="translate(564,210)"/>
<path d="M0 0 C0 3 0 3 -2.5 5.6875 C-3.325 6.450625 -4.15 7.21375 -5 8 C-4.1875 4.5625 -4.1875 4.5625 -3 1 C-2.01 0.67 -1.02 0.34 0 0 Z " fill="#FBE821" transform="translate(749,697)"/>
<path d="M0 0 C2.66735273 2.48952921 4.55746343 4.63408134 6 8 C3.53199953 6.84826645 1.95216435 5.95216435 0 4 C0 2.68 0 1.36 0 0 Z " fill="#181205" transform="translate(297,624)"/>
<path d="M0 0 C2.7972908 2.06756277 3.02692273 3.14440371 3.6875 6.6875 C3.790625 7.780625 3.89375 8.87375 4 10 C2.25372522 7.38058783 1.61277612 5.96175123 1 3 C0.34 3 -0.32 3 -1 3 C-0.67 2.01 -0.34 1.02 0 0 Z " fill="#F7E325" transform="translate(235,559)"/>
</svg>
