<?xml version="1.0" encoding="UTF-8"?>
<svg version="1.1" xmlns="http://www.w3.org/2000/svg" width="1024" height="1024">
<path d="M0 0 C337.92 0 675.84 0 1024 0 C1024 337.92 1024 675.84 1024 1024 C686.08 1024 348.16 1024 0 1024 C0 686.08 0 348.16 0 0 Z " fill="#0D141C" transform="translate(0,0)"/>
<path d="M0 0 C12.92071677 11.63671595 24.90765851 23.83210147 34.6171875 38.296875 C35.05853027 38.95252441 35.49987305 39.60817383 35.95458984 40.28369141 C50.64129275 62.37572635 61.01210243 86.92992005 67.3046875 112.671875 C67.59001343 113.81765015 67.59001343 113.81765015 67.88110352 114.98657227 C72.0352906 132.7527362 73.15476518 150.22068899 73.0546875 168.421875 C73.05264313 169.54284576 73.05059875 170.66381653 73.04849243 171.8187561 C72.9994276 188.33445119 72.1725673 204.12054101 68.6171875 220.296875 C68.13790216 222.64415624 67.67023334 224.99308357 67.21411133 227.3449707 C66.84613022 229.21164647 66.44284689 231.07128042 66.03515625 232.9296875 C65.26086863 239.16740642 66.73671986 245.14893337 67.97558594 251.24536133 C78.66357232 304.03370996 74.79633679 360.52207248 50.6171875 409.296875 C50.24368164 410.06547852 49.87017578 410.83408203 49.48535156 411.62597656 C37.99691844 435.10982612 21.81272637 457.54043152 1.6171875 474.296875 C0.781875 475.03164063 -0.0534375 475.76640625 -0.9140625 476.5234375 C-28.53080088 500.42253802 -61.80563452 515.10208077 -97.3828125 522.296875 C-98.23762207 522.47621582 -99.09243164 522.65555664 -99.97314453 522.84033203 C-129.19054621 528.71649011 -163.99722487 527.68508891 -192.86572266 520.42041016 C-201.15343381 518.36407783 -207.11217605 518.42779704 -215.3828125 520.296875 C-217.57285264 520.65847555 -219.76574723 521.00313851 -221.9609375 521.33203125 C-223.05921875 521.50154297 -224.1575 521.67105469 -225.2890625 521.84570312 C-226.3925 522.01521484 -227.4959375 522.18472656 -228.6328125 522.359375 C-229.75171875 522.53275391 -230.870625 522.70613281 -232.0234375 522.88476562 C-233.1165625 523.05298828 -234.2096875 523.22121094 -235.3359375 523.39453125 C-236.79241699 523.61894897 -236.79241699 523.61894897 -238.27832031 523.84790039 C-244.94144771 524.81152821 -251.33483067 525.45493178 -258.0625 525.46484375 C-258.87413605 525.46817215 -259.68577209 525.47150055 -260.52200317 525.47492981 C-262.23471517 525.47996521 -263.94743686 525.48233919 -265.66015625 525.48217773 C-268.21632163 525.4843399 -270.77203711 525.50246439 -273.328125 525.52148438 C-288.05407564 525.57308757 -302.64027932 524.58238633 -317.0078125 521.171875 C-317.91474854 520.95869629 -318.82168457 520.74551758 -319.75610352 520.52587891 C-373.93897772 507.29383119 -421.38701732 474.92935394 -450.6640625 427.03515625 C-463.42913196 405.48776671 -472.16510588 382.96425915 -477.6953125 358.546875 C-477.93781738 357.483479 -478.18032227 356.42008301 -478.43017578 355.32446289 C-481.85791202 339.45150057 -482.7619368 323.86103241 -482.6953125 307.671875 C-482.69348969 306.74967163 -482.69166687 305.82746826 -482.68978882 304.87731934 C-482.62570806 285.59130728 -480.87208044 267.42492967 -475.92114258 248.73535156 C-474.43012841 242.8522244 -474.26681148 238.2455391 -475.3828125 232.296875 C-475.59325195 231.16427246 -475.80369141 230.03166992 -476.02050781 228.86474609 C-476.91664756 224.19591734 -477.85109142 219.53554621 -478.79882812 214.87695312 C-485.02369462 184.16564494 -485.63132107 148.8782864 -478.3828125 118.296875 C-478.13611816 117.2538623 -477.88942383 116.21084961 -477.63525391 115.13623047 C-469.5955781 82.2915144 -455.37470939 51.17209941 -433.3828125 25.296875 C-432.4940189 24.21287273 -431.60605877 23.12818677 -430.71875 22.04296875 C-416.04981351 4.2912867 -398.45659893 -10.37504547 -378.3828125 -21.703125 C-377.69912598 -22.09209961 -377.01543945 -22.48107422 -376.31103516 -22.88183594 C-353.71116047 -35.61010126 -329.14111648 -44.28445687 -303.3828125 -47.703125 C-302.66174316 -47.79883789 -301.94067383 -47.89455078 -301.19775391 -47.99316406 C-291.05872549 -49.11636793 -280.82029541 -48.94514628 -270.6328125 -48.953125 C-269.6262561 -48.95446442 -268.61969971 -48.95580383 -267.5826416 -48.95718384 C-251.27478261 -48.95247058 -235.7470197 -48.01406907 -219.73828125 -44.765625 C-218.98901367 -44.61907471 -218.23974609 -44.47252441 -217.46777344 -44.3215332 C-215.52537475 -43.93177267 -213.59198861 -43.49774027 -211.66015625 -43.05859375 C-205.54866195 -42.18410475 -199.40547633 -43.70324163 -193.3828125 -44.703125 C-191.05020119 -45.05302478 -188.71686785 -45.39814747 -186.3828125 -45.73828125 C-185.2278125 -45.90779297 -184.0728125 -46.07730469 -182.8828125 -46.25195312 C-181.7278125 -46.42146484 -180.5728125 -46.59097656 -179.3828125 -46.765625 C-178.2278125 -46.93900391 -177.0728125 -47.11238281 -175.8828125 -47.29101562 C-113.67813469 -56.35096033 -47.86993975 -42.0134347 0 0 Z " fill="#0F151D" transform="translate(716.3828125,270.703125)"/>
<path d="M0 0 C12.92071677 11.63671595 24.90765851 23.83210147 34.6171875 38.296875 C35.05853027 38.95252441 35.49987305 39.60817383 35.95458984 40.28369141 C50.64129275 62.37572635 61.01210243 86.92992005 67.3046875 112.671875 C67.59001343 113.81765015 67.59001343 113.81765015 67.88110352 114.98657227 C72.0352906 132.7527362 73.15476518 150.22068899 73.0546875 168.421875 C73.05264313 169.54284576 73.05059875 170.66381653 73.04849243 171.8187561 C72.9994276 188.33445119 72.1725673 204.12054101 68.6171875 220.296875 C68.13790216 222.64415624 67.67023334 224.99308357 67.21411133 227.3449707 C66.84613022 229.21164647 66.44284689 231.07128042 66.03515625 232.9296875 C65.26086863 239.16740642 66.73671986 245.14893337 67.97558594 251.24536133 C78.66357232 304.03370996 74.79633679 360.52207248 50.6171875 409.296875 C50.24368164 410.06547852 49.87017578 410.83408203 49.48535156 411.62597656 C37.99691844 435.10982612 21.81272637 457.54043152 1.6171875 474.296875 C0.781875 475.03164063 -0.0534375 475.76640625 -0.9140625 476.5234375 C-28.53080088 500.42253802 -61.80563452 515.10208077 -97.3828125 522.296875 C-98.23762207 522.47621582 -99.09243164 522.65555664 -99.97314453 522.84033203 C-129.19054621 528.71649011 -163.99722487 527.68508891 -192.86572266 520.42041016 C-201.15343381 518.36407783 -207.11217605 518.42779704 -215.3828125 520.296875 C-217.57285264 520.65847555 -219.76574723 521.00313851 -221.9609375 521.33203125 C-223.05921875 521.50154297 -224.1575 521.67105469 -225.2890625 521.84570312 C-226.3925 522.01521484 -227.4959375 522.18472656 -228.6328125 522.359375 C-229.75171875 522.53275391 -230.870625 522.70613281 -232.0234375 522.88476562 C-233.1165625 523.05298828 -234.2096875 523.22121094 -235.3359375 523.39453125 C-236.79241699 523.61894897 -236.79241699 523.61894897 -238.27832031 523.84790039 C-244.94144771 524.81152821 -251.33483067 525.45493178 -258.0625 525.46484375 C-258.87413605 525.46817215 -259.68577209 525.47150055 -260.52200317 525.47492981 C-262.23471517 525.47996521 -263.94743686 525.48233919 -265.66015625 525.48217773 C-268.21632163 525.4843399 -270.77203711 525.50246439 -273.328125 525.52148438 C-288.05407564 525.57308757 -302.64027932 524.58238633 -317.0078125 521.171875 C-317.91474854 520.95869629 -318.82168457 520.74551758 -319.75610352 520.52587891 C-373.93897772 507.29383119 -421.38701732 474.92935394 -450.6640625 427.03515625 C-463.42913196 405.48776671 -472.16510588 382.96425915 -477.6953125 358.546875 C-477.93781738 357.483479 -478.18032227 356.42008301 -478.43017578 355.32446289 C-481.85791202 339.45150057 -482.7619368 323.86103241 -482.6953125 307.671875 C-482.69348969 306.74967163 -482.69166687 305.82746826 -482.68978882 304.87731934 C-482.62570806 285.59130728 -480.87208044 267.42492967 -475.92114258 248.73535156 C-474.43012841 242.8522244 -474.26681148 238.2455391 -475.3828125 232.296875 C-475.59325195 231.16427246 -475.80369141 230.03166992 -476.02050781 228.86474609 C-476.91664756 224.19591734 -477.85109142 219.53554621 -478.79882812 214.87695312 C-485.02369462 184.16564494 -485.63132107 148.8782864 -478.3828125 118.296875 C-478.13611816 117.2538623 -477.88942383 116.21084961 -477.63525391 115.13623047 C-469.5955781 82.2915144 -455.37470939 51.17209941 -433.3828125 25.296875 C-432.4940189 24.21287273 -431.60605877 23.12818677 -430.71875 22.04296875 C-416.04981351 4.2912867 -398.45659893 -10.37504547 -378.3828125 -21.703125 C-377.69912598 -22.09209961 -377.01543945 -22.48107422 -376.31103516 -22.88183594 C-353.71116047 -35.61010126 -329.14111648 -44.28445687 -303.3828125 -47.703125 C-302.66174316 -47.79883789 -301.94067383 -47.89455078 -301.19775391 -47.99316406 C-291.05872549 -49.11636793 -280.82029541 -48.94514628 -270.6328125 -48.953125 C-269.6262561 -48.95446442 -268.61969971 -48.95580383 -267.5826416 -48.95718384 C-251.27478261 -48.95247058 -235.7470197 -48.01406907 -219.73828125 -44.765625 C-218.98901367 -44.61907471 -218.23974609 -44.47252441 -217.46777344 -44.3215332 C-215.52537475 -43.93177267 -213.59198861 -43.49774027 -211.66015625 -43.05859375 C-205.54866195 -42.18410475 -199.40547633 -43.70324163 -193.3828125 -44.703125 C-191.05020119 -45.05302478 -188.71686785 -45.39814747 -186.3828125 -45.73828125 C-185.2278125 -45.90779297 -184.0728125 -46.07730469 -182.8828125 -46.25195312 C-181.7278125 -46.42146484 -180.5728125 -46.59097656 -179.3828125 -46.765625 C-178.2278125 -46.93900391 -177.0728125 -47.11238281 -175.8828125 -47.29101562 C-113.67813469 -56.35096033 -47.86993975 -42.0134347 0 0 Z M-298.3828125 19.296875 C-299.15963379 19.80331543 -299.93645508 20.30975586 -300.73681641 20.83154297 C-315.02037807 30.21243884 -328.40591217 40.51592581 -340.9765625 52.1015625 C-343.01078837 53.95746338 -345.07552941 55.76018686 -347.16015625 57.55859375 C-351.4281837 61.28453894 -355.4519472 65.21776994 -359.4453125 69.234375 C-360.11369141 69.89888672 -360.78207031 70.56339844 -361.47070312 71.24804688 C-365.97989856 75.76600654 -370.22767551 80.4531542 -374.3828125 85.296875 C-375.2284375 86.26109375 -376.0740625 87.2253125 -376.9453125 88.21875 C-411.69579512 128.53822022 -436.60947743 175.30740227 -452.5078125 225.984375 C-452.80333008 226.90992188 -453.09884766 227.83546875 -453.40332031 228.7890625 C-453.66725586 229.66175781 -453.93119141 230.53445313 -454.203125 231.43359375 C-454.43273926 232.18342529 -454.66235352 232.93325684 -454.89892578 233.70581055 C-456.14021683 240.35254209 -455.27826093 245.8164681 -453.109375 252.14453125 C-452.87027405 252.87010727 -452.6311731 253.59568329 -452.38482666 254.34324646 C-451.60653552 256.68694492 -450.80887373 259.02336939 -450.0078125 261.359375 C-449.73648499 262.16133301 -449.46515747 262.96329102 -449.18560791 263.78955078 C-444.61260396 277.28685957 -439.51725616 290.42374373 -433.3828125 303.296875 C-432.98916504 304.13492676 -432.59551758 304.97297852 -432.18994141 305.83642578 C-420.84614537 329.84630082 -406.87552515 352.49697459 -390.3828125 373.296875 C-389.38314453 374.57111328 -389.38314453 374.57111328 -388.36328125 375.87109375 C-378.30449942 388.59309683 -367.60780659 400.59745436 -356.3828125 412.296875 C-355.86654297 412.83650879 -355.35027344 413.37614258 -354.81835938 413.93212891 C-349.24219807 419.73156181 -343.46679613 425.0570676 -337.171875 430.06640625 C-334.33455671 432.33546611 -331.58100887 434.6854529 -328.8203125 437.046875 C-315.5452824 448.09512585 -301.29633678 457.61843854 -286.3828125 466.296875 C-285.65094727 466.72597168 -284.91908203 467.15506836 -284.16503906 467.59716797 C-263.33895565 479.73882057 -241.30118672 488.91461534 -218.1953125 495.734375 C-217.33429932 495.99371826 -216.47328613 496.25306152 -215.58618164 496.52026367 C-206.48734255 499.10887227 -199.70175688 498.49472838 -190.6953125 495.796875 C-189.78104492 495.52697754 -188.86677734 495.25708008 -187.92480469 494.97900391 C-143.41631929 481.52277288 -102.11516328 457.08861606 -67.3828125 426.296875 C-66.42632813 425.45125 -65.46984375 424.605625 -64.484375 423.734375 C-53.07848452 413.45989993 -41.8163789 402.8164453 -32.31640625 390.73046875 C-30.44148647 388.37072123 -28.47719755 386.14688971 -26.4453125 383.921875 C3.84089999 349.96101442 25.50483105 307.24346878 39.6171875 264.296875 C39.98666504 263.19069824 40.35614258 262.08452148 40.73681641 260.94482422 C41.78111937 257.79784747 42.79935427 254.64399373 43.8046875 251.484375 C44.10874512 250.55399414 44.41280273 249.62361328 44.72607422 248.66503906 C52.88082899 222.07965266 26.23218362 178.38827909 14.01025391 155.25537109 C1.00731511 131.15398408 -14.42184951 108.95055014 -32.3828125 88.296875 C-32.99511719 87.58402344 -33.60742188 86.87117188 -34.23828125 86.13671875 C-45.78448421 72.78042221 -57.85871328 59.67903586 -71.3828125 48.296875 C-72.29933594 47.49121094 -73.21585938 46.68554688 -74.16015625 45.85546875 C-82.13935212 38.88535448 -90.55136156 32.70636277 -99.29248047 26.72705078 C-101.25722053 25.38280326 -103.21282874 24.02611945 -105.16796875 22.66796875 C-174.12450761 -24.77184861 -228.25924332 -26.55851532 -298.3828125 19.296875 Z " fill="#F9BF17" transform="translate(716.3828125,270.703125)"/>
<path d="M0 0 C4.56281351 1.055096 8.19010125 3.15365173 12.1328125 5.625 C12.69193329 5.97256348 13.25105408 6.32012695 13.82711792 6.67822266 C15.59678604 7.77967097 17.36106774 8.88939387 19.125 10 C20.89701384 11.10901546 22.67011841 12.21624193 24.44430542 13.32177734 C26.04974056 14.32318307 27.65215294 15.32943003 29.25439453 16.3359375 C31.46926888 17.67833333 33.6618095 18.89276719 36 20 C34.58515254 23.4306471 33.04640614 24.96083888 29.96484375 26.98828125 C29.15466797 27.53033203 28.34449219 28.07238281 27.50976562 28.63085938 C26.66091797 29.18580078 25.81207031 29.74074219 24.9375 30.3125 C19.0223956 34.22342785 13.31302958 38.21848875 7.81469727 42.70385742 C6 44 6 44 4 44 C4.02212303 45.00238016 4.04424606 46.00476032 4.06703949 47.03751564 C4.60066694 71.46754889 4.99459522 95.89682398 5.24349213 120.33146095 C5.36707247 132.1485409 5.53540979 143.961764 5.81054688 155.77636719 C6.05035114 166.07869419 6.20472458 176.37822862 6.25812387 186.6832689 C6.28933147 192.137759 6.36217787 197.58426393 6.53752136 203.0361824 C7.56165644 236.1424935 7.56165644 236.1424935 1.68893433 244.15190887 C-3.8700906 249.06568505 -9.97700229 251.73744515 -16.98872375 253.96876144 C-21.60093246 255.54825368 -25.67042557 257.94207919 -29.875 260.375 C-36.58523937 264 -36.58523937 264 -39 264 C-39.33 214.5 -39.66 165 -40 114 C-44.95 116.97 -49.9 119.94 -55 123 C-57.475 123.99 -57.475 123.99 -60 125 C-60 173.84 -60 222.68 -60 273 C-65.29524332 275.64762166 -69.77342307 277.75731872 -75.2734375 279.578125 C-75.92325592 279.79442566 -76.57307434 280.01072632 -77.24258423 280.23358154 C-78.59778787 280.68332331 -79.95394962 281.13018789 -81.31103516 281.57421875 C-83.39333835 282.25600432 -85.47219477 282.94760016 -87.55078125 283.640625 C-97.70418937 287 -97.70418937 287 -100 287 C-100.33 256.64 -100.66 226.28 -101 195 C-108.92 199.455 -108.92 199.455 -117 204 C-117.66 204 -118.32 204 -119 204 C-119 234.03 -119 264.06 -119 295 C-104.5081502 292.86678065 -104.5081502 292.86678065 -90.25 289.8125 C-89.03123169 289.49949951 -89.03123169 289.49949951 -87.7878418 289.18017578 C-37.02271319 275.68326997 12.50032228 248.74970074 51 213 C51.7734375 212.30390625 52.546875 211.6078125 53.34375 210.890625 C63.83606687 201.04509479 71.90700301 187.91831764 72.5625 173.3125 C72.30260375 166.23661486 70.33488562 162.11014333 65.203125 157.32421875 C56.78734708 150.54110174 47.43637478 148.12921402 37 146 C37 144.35 37 142.7 37 141 C58.83902474 141.27454774 82.27933631 144.66476273 99 160 C100.64453125 162.1328125 100.64453125 162.1328125 101.8125 164.125 C102.21082031 164.78757812 102.60914063 165.45015625 103.01953125 166.1328125 C106.76695799 173.26934629 105.76037615 183.01695273 103.875 190.625 C95.97472788 215.44924956 74.24650447 235.76209949 53.69482422 250.75830078 C51.93744836 252.04582795 50.2044259 253.36186767 48.47265625 254.68359375 C33.23451921 266.21521232 16.88142629 276.07795283 0 285 C-0.90347168 285.47969238 -1.80694336 285.95938477 -2.73779297 286.45361328 C-42.25633505 307.27362757 -86.22662843 320.32290436 -131 322 C-132.71896484 322.07927734 -132.71896484 322.07927734 -134.47265625 322.16015625 C-157.49684691 322.73638735 -185.63710712 318.71923508 -203.0234375 302.28125 C-209.55742929 294.74004209 -212.4090361 286.66698098 -212.27734375 276.8046875 C-210.98127623 263.69797649 -203.31298462 251.8182164 -195 242 C-194.33226562 241.19820312 -193.66453125 240.39640625 -192.9765625 239.5703125 C-187.23207948 232.91334842 -180.88668792 227.43161348 -174 222 C-173.26394531 221.41089844 -172.52789062 220.82179688 -171.76953125 220.21484375 C-170 219 -170 219 -168 219 C-169.56568173 222.52690411 -171.71775773 225.24723787 -174.125 228.25 C-183.9307715 241.13395867 -189.16695278 253.67957337 -188 270 C-186.39169818 277.18101642 -182.14039692 282.10133529 -176 286 C-169.95277143 288.87516811 -163.72164782 290.82386058 -157.27270508 292.57128906 C-156.28458328 292.8394342 -155.29646149 293.10757935 -154.27839661 293.3838501 C-153.52652573 293.58717957 -152.77465485 293.79050903 -152 294 C-152.02220612 292.73990112 -152.04441223 291.47980225 -152.06729126 290.18151855 C-152.27019862 278.29369224 -152.42000176 266.40621812 -152.51812172 254.5170517 C-152.57026397 248.40483819 -152.64095915 242.29402483 -152.75439453 236.18261719 C-152.86322676 230.28213294 -152.92287848 224.38299326 -152.94877243 218.48158264 C-152.96721913 216.23278129 -153.00324412 213.98405182 -153.05730057 211.73582458 C-153.46420883 194.10774228 -153.46420883 194.10774228 -149.8442688 188.89680481 C-147.30334137 186.83362138 -144.94002043 185.41291299 -142 184 C-140.68214661 183.0711084 -139.37819697 182.12149365 -138.1015625 181.13671875 C-136.94485333 180.31727623 -135.78605774 179.50076937 -134.625 178.6875 C-130.14050992 175.57327576 -130.14050992 175.57327576 -125.8984375 172.14453125 C-124 171 -124 171 -121.67163086 171.28564453 C-118.96876046 172.008353 -116.81578153 172.96294734 -114.35546875 174.28515625 C-113.51435547 174.73310547 -112.67324219 175.18105469 -111.80664062 175.64257812 C-110.51016602 176.34543945 -110.51016602 176.34543945 -109.1875 177.0625 C-108.30384766 177.53494141 -107.42019531 178.00738281 -106.50976562 178.49414062 C-104.33668422 179.65703284 -102.16697716 180.82578375 -100 182 C-100.03330917 181.15998947 -100.06661835 180.31997894 -100.10093689 179.45451355 C-100.40280469 171.497332 -100.63048588 163.54209799 -100.77718258 155.58048534 C-100.85515084 151.48775795 -100.96063681 147.39979698 -101.1315918 143.30981445 C-102.29683046 114.67584642 -102.29683046 114.67584642 -96.98535156 108.62084961 C-93.92771731 106.04986586 -90.61965763 104.37113143 -86.94058228 102.85543823 C-84.03063352 101.57268849 -81.6425838 99.70683811 -79.1171875 97.79296875 C-77.37196347 96.58799422 -75.62462637 95.38607335 -73.875 94.1875 C-72.98296875 93.55263672 -72.0909375 92.91777344 -71.171875 92.26367188 C-70.30820312 91.67521484 -69.44453125 91.08675781 -68.5546875 90.48046875 C-67.79655762 89.95348389 -67.03842773 89.42649902 -66.25732422 88.88354492 C-64 88 -64 88 -61.66287231 88.78218079 C-59.08590366 89.96071343 -56.61422018 91.2269488 -54.13671875 92.6015625 C-53.25048828 93.09140625 -52.36425781 93.58125 -51.45117188 94.0859375 C-50.0831543 94.84777344 -50.0831543 94.84777344 -48.6875 95.625 C-47.75615234 96.140625 -46.82480469 96.65625 -45.86523438 97.1875 C-43.57536531 98.45573517 -41.28702285 99.72664162 -39 101 C-39.0566256 99.64935455 -39.0566256 99.64935455 -39.11439514 98.27142334 C-39.45654928 89.74078783 -39.71456257 81.21248633 -39.88080692 72.67654037 C-39.96916636 68.28852105 -40.0886915 63.90621385 -40.2824707 59.52148438 C-41.49635845 31.3174724 -41.49635845 31.3174724 -37.44372559 24.30841064 C-33.65534988 20.21485162 -29.23934959 17.92266718 -24.10482788 15.88110352 C-21.19736185 14.66400707 -18.81103778 12.92808665 -16.2890625 11.0546875 C-14.73529002 9.99345074 -13.18064959 8.93348323 -11.625 7.875 C-10.820625 7.32585937 -10.01625 6.77671875 -9.1875 6.2109375 C-6.13349998 4.12727193 -3.07620824 2.05080549 0 0 Z " fill="#FABE17" transform="translate(553,337)"/>
<path d="M0 0 C0.90289764 -0.00095673 1.80579529 -0.00191345 2.73605347 -0.00289917 C4.6301887 -0.003575 6.52432634 -0.00176274 8.41845703 0.00244141 C11.30376408 0.00781078 14.18891638 0.00246957 17.07421875 -0.00390625 C18.92447951 -0.00324561 20.77474017 -0.00196473 22.625 0 C23.47933624 -0.00202423 24.33367249 -0.00404846 25.21389771 -0.00613403 C29.974135 0.01236116 34.48472947 0.33755216 39.1796875 1.1328125 C36.80730459 2.71440111 34.79371385 3.82107464 32.21484375 4.9453125 C31.42537354 5.29303711 30.63590332 5.64076172 29.82250977 5.99902344 C28.54525024 6.56024902 28.54525024 6.56024902 27.2421875 7.1328125 C-10.90189957 24.17172541 -47.52132863 46.96617355 -76.8046875 77.1171875 C-78.77547621 79.08797621 -80.81960803 80.89414307 -82.9453125 82.6953125 C-86.23506931 85.52618378 -89.05422835 88.54606683 -91.85546875 91.85546875 C-93.74194195 94.04197745 -95.69463075 96.15359021 -97.67016602 98.25952148 C-109.22527563 110.62459693 -119.08541916 124.31635415 -128.8203125 138.1328125 C-129.2622998 138.75736328 -129.70428711 139.38191406 -130.15966797 140.02539062 C-138.25715428 151.5471556 -145.04961903 163.79936226 -151.8203125 176.1328125 C-152.30677246 177.00711914 -152.79323242 177.88142578 -153.29443359 178.78222656 C-161.41301545 193.41419538 -167.75805688 208.56162274 -173.8203125 224.1328125 C-174.1503125 224.1328125 -174.4803125 224.1328125 -174.8203125 224.1328125 C-175.72101291 219.48108246 -176.00829221 214.94364993 -176.05859375 210.21875 C-176.07321655 209.07985573 -176.07321655 209.07985573 -176.08813477 207.91795349 C-176.47351114 169.98559737 -170.94956504 133.86198313 -152.86181641 100.08007812 C-152.16566535 98.77850737 -151.47785564 97.47244179 -150.79833984 96.16210938 C-142.43791544 80.05232149 -131.37419575 66.17660339 -118.8203125 53.1328125 C-118.24410156 52.50503906 -117.66789062 51.87726563 -117.07421875 51.23046875 C-88.38833053 20.82771939 -41.67628586 -0.09921632 0 0 Z " fill="#0F151E" transform="translate(428.8203125,241.8671875)"/>
<path d="M0 0 C0.83930557 -0.00960754 1.67861115 -0.01921509 2.54335022 -0.02911377 C3.44742111 -0.03336365 4.351492 -0.03761353 5.28295898 -0.04199219 C6.23105942 -0.04769226 7.17915985 -0.05339233 8.1559906 -0.05926514 C10.17087696 -0.06871399 12.18577876 -0.07524867 14.20068359 -0.07910156 C17.21603497 -0.08866727 20.23066229 -0.11963098 23.24584961 -0.15136719 C39.4041297 -0.24102903 54.94813884 1.26277117 70.46655273 5.97363281 C71.34013428 6.23225098 72.21371582 6.49086914 73.11376953 6.75732422 C119.62928304 20.84724492 158.9543506 52.68713392 182.20263672 95.36791992 C197.41864225 124.07090949 206.98301079 155.98697954 206.81420898 188.63769531 C206.81208656 190.21458633 206.81208656 190.21458633 206.80992126 191.82333374 C206.8043736 195.14429709 206.79183115 198.46519022 206.77905273 201.78613281 C206.77403096 204.05305891 206.76946924 206.31998609 206.76538086 208.58691406 C206.75442138 214.11167715 206.7377363 219.63639996 206.71655273 225.16113281 C204.61628096 223.06086103 204.02786034 221.76248108 202.97436523 219.03222656 C202.63679199 218.17483887 202.29921875 217.31745117 201.95141602 216.43408203 C201.58516113 215.49838379 201.21890625 214.56268555 200.84155273 213.59863281 C185.59115937 175.57012614 165.0142799 140.60841492 138.71655273 109.16113281 C138.26570312 108.62149902 137.81485352 108.08186523 137.3503418 107.52587891 C131.89834794 101.02215038 126.41618992 94.66057698 120.31030273 88.75488281 C118.71655273 87.16113281 118.71655273 87.16113281 116.71655273 84.59863281 C114.34955103 81.71384949 111.67933978 79.45640519 108.84545898 77.04003906 C106.76285813 75.20200051 104.83562886 73.28116934 102.90405273 71.28613281 C98.16887308 66.49578602 92.98689014 62.34480271 87.71655273 58.16113281 C86.64342296 57.296814 85.57051243 56.43222293 84.49780273 55.56738281 C57.86908499 34.22103432 28.25765406 16.53664213 -3.50024414 3.96386719 C-5.28344727 3.16113281 -5.28344727 3.16113281 -8.28344727 1.16113281 C-5.45964174 0.36249682 -2.9312277 0.02729626 0 0 Z " fill="#0F151E" transform="translate(563.283447265625,241.8388671875)"/>
<path d="M0 0 C1.60038679 2.40058019 2.53678125 4.15435098 3.5234375 6.7890625 C14.62869697 35.80415469 29.02715955 62.68869414 47 88 C48.0964849 89.56501258 49.1928392 91.13011667 50.2890625 92.6953125 C57.03803918 102.25761875 64.19216811 111.28363056 72 120 C72.82628906 120.92554688 73.65257812 121.85109375 74.50390625 122.8046875 C76.0002228 124.47063723 77.50124641 126.13237594 79.0078125 127.7890625 C80.7724713 129.74748775 82.48262136 131.73976996 84.1875 133.75 C92.07214858 142.79523937 100.80405633 151.29947147 110 159 C110.92683594 159.804375 111.85367188 160.60875 112.80859375 161.4375 C141.97791334 186.66946389 176.4563054 209.13626341 213 222 C213 222.33 213 222.66 213 223 C153.62872778 224.00498247 102.06654066 213.58944991 58 171 C56.61554688 169.69289063 56.61554688 169.69289063 55.203125 168.359375 C37.56215452 151.31640352 24.61106615 130.46543386 15 108 C14.57146729 107.00202393 14.57146729 107.00202393 14.13427734 105.98388672 C6.6687254 88.24026326 2.25812253 69.08030824 0 50 C-0.09571289 49.20827393 -0.19142578 48.41654785 -0.29003906 47.60083008 C-1.11234364 39.87392743 -1.15281262 32.16108601 -1.13037109 24.40063477 C-1.12496705 22.173923 -1.13037138 19.94740915 -1.13671875 17.72070312 C-1.13605858 16.28645789 -1.13477868 14.85221279 -1.1328125 13.41796875 C-1.13168457 12.13688232 -1.13055664 10.8557959 -1.12939453 9.53588867 C-1.00963744 6.26335678 -0.62243224 3.21074904 0 0 Z " fill="#0F151E" transform="translate(254,553)"/>
<path d="M0 0 C0.33 0 0.66 0 1 0 C1.70516644 33.29687435 0.99954997 64.17726481 -10 96 C-10.41997212 97.29795038 -10.8392695 98.59611932 -11.2578125 99.89453125 C-17.55323967 118.6434317 -27.4722819 136.72084582 -40 152 C-40.66829834 152.83313721 -40.66829834 152.83313721 -41.35009766 153.68310547 C-68.81323116 187.84649249 -106.18887169 210.57747377 -149 220 C-150.61140869 220.39384888 -150.61140869 220.39384888 -152.25537109 220.7956543 C-164.80672016 223.56680552 -177.19936293 223.33875604 -190 223.1875 C-192.23957427 223.17241596 -194.47915844 223.15873418 -196.71875 223.14648438 C-202.14605341 223.11379688 -207.57297886 223.06389674 -213 223 C-210.39719853 220.39719853 -207.88410744 219.68346815 -204.4375 218.375 C-175.71690424 207.14072976 -149.2559665 190.95463786 -125 172 C-124.3414502 171.48711426 -123.68290039 170.97422852 -123.00439453 170.44580078 C-105.02456827 156.36299325 -87.71528468 140.50276151 -73 123 C-72.22914063 122.11828125 -71.45828125 121.2365625 -70.6640625 120.328125 C-41.7882612 87.12122453 -18.56072688 48.60659205 -2.95458984 7.49755859 C-1.99528277 4.98765798 -1.00397112 2.49232897 0 0 Z " fill="#0F151E" transform="translate(769,553)"/>
<path d="M0 0 C0 49.83 0 99.66 0 151 C0.99 151.33 1.98 151.66 3 152 C1.68 152 0.36 152 -1 152 C-1.76666303 147.92083491 -2.12395171 144.07381324 -2.12025452 139.92556763 C-2.12162918 138.73092392 -2.12300385 137.53628021 -2.12442017 136.30543518 C-2.12082489 135.0085527 -2.11722961 133.71167023 -2.11352539 132.37548828 C-2.11324309 130.98545839 -2.1134021 129.59542836 -2.1139679 128.20539856 C-2.11425418 124.443464 -2.10838478 120.68156148 -2.10139394 116.91963434 C-2.09513224 112.98384928 -2.09455437 109.04806344 -2.09336853 105.11227417 C-2.09026351 97.664489 -2.08206131 90.21671855 -2.07201904 82.76893985 C-2.06083214 74.28770655 -2.05534096 65.80647254 -2.05032361 57.3252337 C-2.039878 39.88348062 -2.02229463 22.44174187 -2 5 C-2.99 5 -3.98 5 -5 5 C-3.33333333 0 -3.33333333 0 0 0 Z " fill="#030622" transform="translate(514,450)"/>
<path d="M0 0 C2.31 0 4.62 0 7 0 C6.67 0.66 6.34 1.32 6 2 C4.68 2 3.36 2 2 2 C2 2.66 2 3.32 2 4 C3.2375 4.061875 4.475 4.12375 5.75 4.1875 C14.90250675 5.22526454 24.44412032 9.42731037 31 16 C32.2109375 18.18359375 32.2109375 18.18359375 33 20 C32.56171875 19.63648438 32.1234375 19.27296875 31.671875 18.8984375 C22.04941054 11.27087421 12.03392195 7.21268887 0 5 C0 3.35 0 1.7 0 0 Z " fill="#F0D217" transform="translate(590,478)"/>
<path d="M0 0 C0.33 0.33 0.66 0.66 1 1 C3.0708472 1.1584265 5.14678029 1.25124422 7.22265625 1.31640625 C9.11274414 1.37924805 9.11274414 1.37924805 11.04101562 1.44335938 C12.38150736 1.48317596 13.7220022 1.52288814 15.0625 1.5625 C16.40691523 1.60568042 17.7513166 1.64929456 19.09570312 1.69335938 C22.3970234 1.79985358 25.69842236 1.9018646 29 2 C29 2.33 29 2.66 29 3 C15.47 3 1.94 3 -12 3 C-8.65607852 -0.34392148 -4.51045397 -1.83759236 0 0 Z " fill="#08071F" transform="translate(568,773)"/>
<path d="M0 0 C-1.56367357 3.52238047 -3.69495889 6.27123994 -6.125 9.25 C-6.84945313 10.14203125 -7.57390625 11.0340625 -8.3203125 11.953125 C-9.15175781 12.96632813 -9.15175781 12.96632813 -10 14 C-11.32 12.68 -12.64 11.36 -14 10 C-12.75160501 8.894019 -11.50120766 7.79029799 -10.25 6.6875 C-9.55390625 6.07261719 -8.8578125 5.45773437 -8.140625 4.82421875 C-2.47965739 0 -2.47965739 0 0 0 Z " fill="#F3D016" transform="translate(385,556)"/>
<path d="M0 0 C4.3177458 0.50797009 8.03302114 1.19682779 12 3 C12 3.33 12 3.66 12 4 C-0.21 4 -12.42 4 -25 4 C-25 3.67 -25 3.34 -25 3 C-12.625 2.505 -12.625 2.505 0 2 C0 1.34 0 0.68 0 0 Z " fill="#080720" transform="translate(455,772)"/>
<path d="M0 0 C4.53330099 4.17540881 6.76616664 7.09083795 7.265625 13.3046875 C7.21361372 25.18926397 7.21361372 25.18926397 5 31 C4.14694832 28.09330538 3.92710285 25.68951127 4.12109375 22.671875 C4.16943359 21.87265625 4.21777344 21.0734375 4.26757812 20.25 C4.32365234 19.425 4.37972656 18.6 4.4375 17.75 C4.48970703 16.90953125 4.54191406 16.0690625 4.59570312 15.203125 C4.72495689 13.1350648 4.86174274 11.0674778 5 9 C4.34 9 3.68 9 3 9 C2.87625 8.2575 2.7525 7.515 2.625 6.75 C2.04513299 4.19858515 1.26291261 2.2732427 0 0 Z " fill="#F5D517" transform="translate(651,498)"/>
<path d="M0 0 C0.33 0 0.66 0 1 0 C1 13.53 1 27.06 1 41 C-1.5654594 38.4345406 -1.54046087 36.52313332 -2 33 C-1.67 33 -1.34 33 -1 33 C-0.67 22.11 -0.34 11.22 0 0 Z " fill="#050320" transform="translate(769,426)"/>
<path d="M0 0 C4.43041169 1.67637199 7.71470744 3.58835003 11 7 C11.804375 7.78375 12.60875 8.5675 13.4375 9.375 C15.81186757 11.80727898 17.92555465 14.31090418 20 17 C17 17 17 17 15.52954102 15.87011719 C15.02608154 15.35094727 14.52262207 14.83177734 14.00390625 14.296875 C13.44509766 13.72839844 12.88628906 13.15992188 12.31054688 12.57421875 C11.73369141 11.97222656 11.15683594 11.37023437 10.5625 10.75 C9.70301758 9.87021484 9.70301758 9.87021484 8.82617188 8.97265625 C7.71464492 7.83426846 6.60596723 6.69308999 5.50048828 5.54882812 C3.68799806 3.67794658 1.84869147 1.83506476 0 0 Z " fill="#18141F" transform="translate(712,267)"/>
<path d="M0 0 C0.8353125 0.37125 0.8353125 0.37125 1.6875 0.75 C0.0375 1.08 -1.6125 1.41 -3.3125 1.75 C-3.3125 2.74 -3.3125 3.73 -3.3125 4.75 C-0.6725 4.42 1.9675 4.09 4.6875 3.75 C2.22658406 6.21091594 0.168704 6.77845243 -3.125 7.875 C-4.16269531 8.22820313 -5.20039063 8.58140625 -6.26953125 8.9453125 C-9.11735601 9.69839581 -11.38825626 9.91215769 -14.3125 9.75 C-13.714375 9.46125 -13.11625 9.1725 -12.5 8.875 C-10.11922208 7.70257974 -10.11922208 7.70257974 -7.3125 5.75 C-7.3125 5.09 -7.3125 4.43 -7.3125 3.75 C-3.10958131 -0.33617095 -3.10958131 -0.33617095 0 0 Z " fill="#070920" transform="translate(482.3125,615.25)"/>
<path d="M0 0 C0.33 0 0.66 0 1 0 C1 4.95 1 9.9 1 15 C0.01 14.67 -0.98 14.34 -2 14 C-2.05389087 12.04196493 -2.09274217 10.08351091 -2.125 8.125 C-2.14820313 7.03445313 -2.17140625 5.94390625 -2.1953125 4.8203125 C-2 2 -2 2 0 0 Z " fill="#1D191E" transform="translate(791,582)"/>
<path d="M0 0 C0.66 0.33 1.32 0.66 2 1 C-0.61678563 2.70051054 -3.24462239 4.38310507 -5.875 6.0625 C-6.62136719 6.54783203 -7.36773438 7.03316406 -8.13671875 7.53320312 C-8.85214844 7.98759766 -9.56757812 8.44199219 -10.3046875 8.91015625 C-10.96452637 9.33433838 -11.62436523 9.75852051 -12.30419922 10.19555664 C-13.14362061 10.5937561 -13.14362061 10.5937561 -14 11 C-14.66 10.67 -15.32 10.34 -16 10 C-14.7934375 9.38125 -14.7934375 9.38125 -13.5625 8.75 C-10.85890282 7.26547669 -10.85890282 7.26547669 -10.1875 4.8125 C-10.125625 4.214375 -10.06375 3.61625 -10 3 C-8.906875 2.87625 -7.81375 2.7525 -6.6875 2.625 C-2.92618198 2.24535199 -2.92618198 2.24535199 0 0 Z " fill="#F4D215" transform="translate(618,742)"/>
<path d="M0 0 C0 0.99 0 1.98 0 3 C-10.55808656 4.33257403 -10.55808656 4.33257403 -15 3 C-15 2.67 -15 2.34 -15 2 C-13.06302033 1.66365624 -11.12539514 1.33102835 -9.1875 1 C-7.56908203 0.7215625 -7.56908203 0.7215625 -5.91796875 0.4375 C-3 0 -3 0 0 0 Z " fill="#1D1A1E" transform="translate(498,791)"/>
<path d="M0 0 C0.66 0.66 1.32 1.32 2 2 C1.9765625 4.3828125 1.9765625 4.3828125 1.625 7.125 C1.51414062 8.03507813 1.40328125 8.94515625 1.2890625 9.8828125 C1.19367187 10.58148437 1.09828125 11.28015625 1 12 C0.01 12 -0.98 12 -2 12 C-1.34 8.04 -0.68 4.08 0 0 Z " fill="#ECC316" transform="translate(768,610)"/>
<path d="M0 0 C1.08667969 0.01804688 2.17335938 0.03609375 3.29296875 0.0546875 C4.54013672 0.08949219 4.54013672 0.08949219 5.8125 0.125 C5.4825 1.115 5.1525 2.105 4.8125 3.125 C-2.1175 2.63 -2.1175 2.63 -9.1875 2.125 C-5.66070901 -0.22619399 -4.15870515 -0.08943452 0 0 Z " fill="#201B1F" transform="translate(609.1875,220.875)"/>
<path d="M0 0 C-9.88924051 5.14240506 -9.88924051 5.14240506 -13.4375 4.6875 C-13.953125 4.460625 -14.46875 4.23375 -15 4 C-14.67 3.34 -14.34 2.68 -14 2 C-9.17574056 0.52819204 -5.07522852 -0.25376143 0 0 Z " fill="#EFCC15" transform="translate(398,227)"/>
<path d="M0 0 C1.87184371 3.74368742 2.23999767 4.8400791 2.125 8.75 C2.10695313 9.54921875 2.08890625 10.3484375 2.0703125 11.171875 C2.04710937 11.77515625 2.02390625 12.3784375 2 13 C1.01 13 0.02 13 -1 13 C-0.67 8.71 -0.34 4.42 0 0 Z " fill="#1F1B1E" transform="translate(788,600)"/>
<path d="M0 0 C0 0.66 0 1.32 0 2 C-1.24420647 2.5345256 -2.49570936 3.05208611 -3.75 3.5625 C-4.44609375 3.85253906 -5.1421875 4.14257812 -5.859375 4.44140625 C-8.30012784 5.07831803 -9.6403655 4.80248831 -12 4 C-12 3.34 -12 2.68 -12 2 C-10.37548581 1.66430703 -8.75037083 1.3315204 -7.125 1 C-6.22007812 0.814375 -5.31515625 0.62875 -4.3828125 0.4375 C-2 0 -2 0 0 0 Z " fill="#1A191E" transform="translate(631,790)"/>
<path d="M0 0 C1.485 0.99 1.485 0.99 3 2 C3.40843923 4.71203652 3.13336867 7.2437142 3 10 C2.01 9.67 1.02 9.34 0 9 C0 6.03 0 3.06 0 0 Z " fill="#1E191F" transform="translate(232,459)"/>
<path d="M0 0 C3.26008643 3.16952847 6.22237877 6.39937989 9 10 C7.66666667 9.33333333 6.33333333 8.66666667 5 8 C4.278125 7.7525 3.55625 7.505 2.8125 7.25 C1 6 1 6 0.25 2.875 C0.1675 1.92625 0.085 0.9775 0 0 Z " fill="#F3CE15" transform="translate(327,646)"/>
<path d="M0 0 C0 0.33 0 0.66 0 1 C-3.3 1 -6.6 1 -10 1 C-10.33 0.34 -10.66 -0.32 -11 -1 C-6.58937864 -2.0257259 -4.07369424 -2.03684712 0 0 Z " fill="#F6CC16" transform="translate(427,241)"/>
<path d="M0 0 C1.98 0.495 1.98 0.495 4 1 C4 1.66 4 2.32 4 3 C5.98 3.66 7.96 4.32 10 5 C7 6 7 6 4.95703125 5.22265625 C4.24933594 4.83980469 3.54164063 4.45695313 2.8125 4.0625 C2.09707031 3.68222656 1.38164063 3.30195313 0.64453125 2.91015625 C0.10183594 2.60980469 -0.44085937 2.30945313 -1 2 C-0.67 1.34 -0.34 0.68 0 0 Z " fill="#F4D017" transform="translate(650,251)"/>
<path d="M0 0 C3.29696105 1.09898702 4.04670589 1.94597387 6.1875 4.5625 C6.71730469 5.20316406 7.24710937 5.84382812 7.79296875 6.50390625 C8.19128906 6.99761719 8.58960938 7.49132812 9 8 C8.67 8.66 8.34 9.32 8 10 C6.66070495 8.71451591 5.32871357 7.42141845 4 6.125 C2.88625 5.04605469 2.88625 5.04605469 1.75 3.9453125 C0 2 0 2 0 0 Z " fill="#ECCD13" transform="translate(292,730)"/>
<path d="M0 0 C2 3 2 3 1.75 5.5625 C1 8 1 8 -1 10 C-2.46726798 6.18510326 -1.43336419 3.70988378 0 0 Z " fill="#191720" transform="translate(778,650)"/>
<path d="M0 0 C0.33 0.99 0.66 1.98 1 3 C-2.3 2.67 -5.6 2.34 -9 2 C-5.5647952 -0.29013653 -4.014669 -0.17842973 0 0 Z " fill="#181720" transform="translate(472,220)"/>
<path d="M0 0 C0.33 0 0.66 0 1 0 C2.35384615 6.4 2.35384615 6.4 0.5625 9.4375 C0.046875 9.953125 -0.46875 10.46875 -1 11 C-1.0270043 9.54176788 -1.04639787 8.08339325 -1.0625 6.625 C-1.07410156 5.81289063 -1.08570313 5.00078125 -1.09765625 4.1640625 C-1 2 -1 2 0 0 Z " fill="#F2D017" transform="translate(237,538)"/>
<path d="M0 0 C0.99 0.33 1.98 0.66 3 1 C3.33 3.64 3.66 6.28 4 9 C3.01 9 2.02 9 1 9 C1.020625 8.2575 1.04125 7.515 1.0625 6.75 C1.00671312 4.29537721 0.6930096 2.33890739 0 0 Z " fill="#1C171E" transform="translate(234,615)"/>
<path d="M0 0 C3.36720387 1.39332574 4.9859524 2.9789286 7 6 C4 6 4 6 1.8125 4.125 C0 2 0 2 0 0 Z " fill="#261F1F" transform="translate(725,278)"/>
<path d="M0 0 C0.99 0.33 1.98 0.66 3 1 C0.47211993 3.79872437 -1.20411134 5.45773019 -5 6 C-3.35 4.02 -1.7 2.04 0 0 Z " fill="#E3BE16" transform="translate(298,279)"/>
<path d="M0 0 C2.97 0.33 5.94 0.66 9 1 C5.3558226 3.4294516 3.28758728 3.16179575 -1 3 C-0.67 2.01 -0.34 1.02 0 0 Z " fill="#1C1A1E" transform="translate(588,219)"/>
<path d="M0 0 C2 3 2 3 2 7 C2.66 7.33 3.32 7.66 4 8 C2.68 8.33 1.36 8.66 0 9 C0 6.03 0 3.06 0 0 Z " fill="#E4C816" transform="translate(514,592)"/>
<path d="M0 0 C0.33 0.66 0.66 1.32 1 2 C-1 5 -1 5 -4.125 5.6875 C-5.07375 5.790625 -6.0225 5.89375 -7 6 C-4.74259377 3.66475218 -2.7194239 1.81294927 0 0 Z " fill="#F3D116" transform="translate(521,359)"/>
</svg>
